<?xml version="1.0" encoding="iso-8859-1"?>
<!-- Generator: Adobe Illustrator 19.0.0, SVG Export Plug-In . SVG Version: 6.00 Build 0)  -->
<svg version="1.1" id="Layer_1" xmlns="http://www.w3.org/2000/svg" xmlns:xlink="http://www.w3.org/1999/xlink" x="0px" y="0px"
	 viewBox="0 0 512 512" style="enable-background:new 0 0 512 512;" xml:space="preserve">
<g>
	<g>
		<path d="M408.614,89.131c26.866-9.269,40.468-21.013,40.468-35.024c0-16.933-19.847-30.559-58.988-40.5
			C355.541,4.833,309.741,0,261.13,0c-48.61,0-94.411,4.833-128.963,13.608c-39.142,9.941-58.988,23.567-58.988,40.5
			c0,12.727,11.217,23.586,33.41,32.417C51.986,130.37,16.964,197.648,16.964,272.963C16.964,404.768,124.195,512,255.999,512
			c131.805,0,239.037-107.232,239.037-239.037C495.036,199.13,461.383,133.013,408.614,89.131z M90.265,54.107
			c0-4.229,9.636-14.676,46.107-23.938c33.218-8.436,77.525-13.083,124.758-13.083s91.539,4.646,124.758,13.083
			c36.471,9.262,46.107,19.709,46.107,23.938c0,3.987-8.571,13.495-40.09,22.33c-38.614-26.786-85.455-42.511-135.907-42.511
			c-49.1,0-94.784,14.888-132.79,40.375C97.521,66.112,90.265,57.774,90.265,54.107z M368.767,81.868
			c-30.644,6.004-68.114,9.26-107.637,9.26c-42.848,0-83.288-3.824-115.226-10.832c32.466-18.624,70.058-29.283,110.094-29.283
			C297.143,51.014,335.697,62.279,368.767,81.868z M255.999,494.914c-122.383,0-221.949-99.567-221.949-221.951
			c0-73.968,36.378-139.588,92.174-179.942c1.933,0.538,3.906,1.067,5.944,1.584c34.552,8.776,80.352,13.609,128.962,13.609
			c47.866,0,93.001-4.689,127.362-13.211c54.261,40.502,89.458,105.197,89.458,177.96
			C477.95,395.347,378.383,494.914,255.999,494.914z"/>
	</g>
</g>
<g>
	<g>
		<path d="M209.784,244.793c-10.832-18.13-29.906-28.953-51.025-28.953c-21.119,0-40.193,10.824-51.025,28.953
			c-2.421,4.051-1.098,9.296,2.953,11.716c4.054,2.422,9.296,1.098,11.716-2.953c7.719-12.917,21.309-20.629,36.357-20.629
			c15.047,0,28.639,7.713,36.357,20.63c1.599,2.678,4.435,4.162,7.343,4.162c1.491,0,3-0.391,4.373-1.211
			C210.882,254.088,212.203,248.844,209.784,244.793z"/>
	</g>
</g>
<g>
	<g>
		<path d="M404.266,244.792c-10.833-18.128-29.907-28.951-51.026-28.951c-21.118,0-40.192,10.824-51.024,28.953
			c-2.419,4.051-1.098,9.296,2.953,11.716c4.051,2.422,9.297,1.098,11.716-2.953c7.717-12.917,21.308-20.629,36.356-20.63
			c15.049,0,28.64,7.713,36.358,20.63c1.599,2.678,4.435,4.162,7.342,4.162c1.491,0,3.002-0.391,4.374-1.211
			C405.364,254.087,406.686,248.842,404.266,244.792z"/>
	</g>
</g>
<g>
	<g>
		<path d="M383.96,318.327c-3.336-3.335-8.744-3.338-12.082,0c-30.952,30.952-72.105,47.998-115.879,47.998
			s-84.926-17.047-115.879-47.998c-3.336-3.338-8.746-3.336-12.081,0c-3.336,3.336-3.336,8.746,0,12.081
			c34.179,34.18,79.623,53.004,127.96,53.004s93.781-18.824,127.961-53.004C387.297,327.071,387.297,321.662,383.96,318.327z"/>
	</g>
</g>
<g>
	<g>
		<path d="M302.863,400.305c-1.273-4.543-5.985-7.191-10.531-5.92c-23.77,6.664-48.896,6.665-72.666,0
			c-4.543-1.273-9.259,1.376-10.532,5.92c-1.273,4.543,1.376,9.259,5.92,10.532c13.392,3.755,27.169,5.632,40.945,5.632
			s27.551-1.877,40.944-5.632C301.486,409.564,304.137,404.848,302.863,400.305z"/>
	</g>
</g>
<g>
</g>
<g>
</g>
<g>
</g>
<g>
</g>
<g>
</g>
<g>
</g>
<g>
</g>
<g>
</g>
<g>
</g>
<g>
</g>
<g>
</g>
<g>
</g>
<g>
</g>
<g>
</g>
<g>
</g>
</svg>
