<?xml version="1.0" encoding="iso-8859-1"?>
<!-- Generator: Adobe Illustrator 19.0.0, SVG Export Plug-In . SVG Version: 6.00 Build 0)  -->
<svg version="1.1" id="Layer_1" xmlns="http://www.w3.org/2000/svg" xmlns:xlink="http://www.w3.org/1999/xlink" x="0px" y="0px"
	 viewBox="0 0 512 512" style="enable-background:new 0 0 512 512;" xml:space="preserve">
<g>
	<g>
		<path d="M397.431,148.165c-3.957-2.365-9.084-1.073-11.448,2.885c-7.541,12.622-20.821,20.157-35.524,20.158
			c-14.704,0-27.985-7.536-35.526-20.158c-2.364-3.958-7.49-5.248-11.448-2.885c-3.958,2.365-5.249,7.49-2.885,11.448
			c10.585,17.714,29.223,28.29,49.859,28.29c20.635,0,39.273-10.576,49.857-28.29C402.681,155.655,401.389,150.53,397.431,148.165z"
			/>
	</g>
</g>
<g>
	<g>
		<path d="M207.399,148.165c-3.954-2.364-9.082-1.074-11.448,2.885c-7.541,12.622-20.822,20.158-35.526,20.158
			c-14.703,0-27.983-7.536-35.524-20.158c-2.364-3.958-7.49-5.248-11.448-2.885c-3.958,2.365-5.249,7.49-2.885,11.448
			c10.584,17.713,29.222,28.289,49.857,28.29c20.635,0,39.275-10.577,49.859-28.29C212.648,155.655,211.357,150.53,207.399,148.165z
			"/>
	</g>
</g>
<g>
	<g>
		<path d="M295.449,276.796c-26.172-7.337-53.842-7.338-80.016,0c-4.439,1.244-7.029,5.852-5.784,10.291
			c1.034,3.686,4.384,6.097,8.034,6.097c0.746,0,1.505-0.101,2.257-0.312c23.227-6.511,47.78-6.511,71.003,0
			c4.437,1.245,9.046-1.346,10.291-5.784C302.479,282.648,299.889,278.041,295.449,276.796z"/>
	</g>
</g>
<g>
	<g>
		<path d="M512,295.814c0-16.19-9.395-30.224-23.017-36.948c0.012-0.962,0.027-1.929,0.027-2.866
			c0-128.793-104.776-233.574-233.563-233.574C126.654,22.426,21.874,127.207,21.874,256c0,1.143,0.017,2.29,0.032,3.436
			C8.888,266.361,0,280.066,0,295.814c0,10.342,3.937,20.26,10.805,27.786c-5.254,8.497-8.086,18.346-8.086,28.43
			c0,29.82,24.261,54.08,54.081,54.08c6.004,0,11.844-0.979,17.358-2.843c20.78,25.529,47.062,46.703,76.361,61.463
			c32.727,16.485,68.03,24.844,104.928,24.844c36.99,0,72.372-8.398,105.162-24.961c29.322-14.811,55.606-36.044,76.371-61.637
			c5.764,2.058,11.903,3.134,18.221,3.134c29.82,0,54.08-24.26,54.08-54.08c0-10.084-2.832-19.932-8.086-28.43
			C508.063,316.072,512,306.155,512,295.814z M255.447,39.121c119.135,0,216.129,96.57,216.85,215.547
			c-0.492-0.018-0.984-0.038-1.48-0.038c-11.391,0-22.113,4.678-29.82,12.778l-103.163-45.461c-3.306-1.457-7.176-0.621-9.587,2.072
			c-2.41,2.694-2.813,6.632-0.998,9.758l15.77,27.17c-25.981-14.833-55.482-22.891-85.974-23.166
			c-30.959-0.277-61.012,7.477-87.525,22.239l15.232-26.245c1.814-3.125,1.411-7.063-0.998-9.757
			c-2.41-2.694-6.28-3.527-9.587-2.073L71.005,267.407c-7.708-8.101-18.429-12.778-29.821-12.778c-0.873,0-1.737,0.037-2.597,0.09
			C39.278,135.722,136.289,39.121,255.447,39.121z M56.801,389.415c-20.615-0.001-37.386-16.771-37.386-37.385
			c0-6.664,1.791-13.18,5.125-18.872c4.225,1.704,10.043,3.297,17.062,3.297c0.898,0,1.819-0.026,2.756-0.081
			c4.602-0.272,8.113-4.223,7.841-8.825c-0.272-4.602-4.197-8.109-8.826-7.841c-9.638,0.57-16.071-3.734-16.525-4.049
			c-6.357-4.604-10.151-12.021-10.151-19.843c0-13.502,10.985-24.487,24.487-24.487c8.207,0,15.83,4.086,20.39,10.929
			c2.251,3.377,6.603,4.643,10.313,3.01l85.561-37.705l-43.379,74.737c-2.252,3.88-1.035,8.846,2.756,11.245
			c7.154,4.526,11.424,12.267,11.424,20.706c0,13.502-10.985,24.487-24.487,24.487c-3.698,0-7.249-0.802-10.554-2.385
			c-3.233-1.548-7.096-0.858-9.593,1.714C76.505,385.383,66.983,389.415,56.801,389.415z M353.083,449.71
			c-30.435,15.373-63.284,23.167-97.636,23.167c-34.265,0-67.041-7.758-97.416-23.059c-26.221-13.209-49.827-31.965-68.782-54.529
			c0.741-0.559,1.474-1.132,2.189-1.732c3.964,1.245,8.089,1.874,12.324,1.874c22.708,0,41.183-18.474,41.183-41.183
			c0-11.458-4.674-22.145-12.796-29.842l17.321-29.844c29.27-25.891,66.794-40.093,105.962-40.093c0.488,0,0.974,0.002,1.461,0.007
			c39.768,0.358,77.668,15.342,106.867,42.207l16.091,27.723c-8.122,7.696-12.796,18.383-12.796,29.842
			c0,22.708,18.474,41.183,41.183,41.183c4.235,0,8.361-0.629,12.324-1.874c0.499,0.417,1.006,0.819,1.517,1.217
			C403.104,417.508,379.421,436.407,353.083,449.71z M485.15,315.661c-0.008,0.006-0.013,0.011-0.021,0.017
			c-0.007,0.004-0.014,0.009-0.022,0.014c-0.065,0.046-6.75,4.587-16.478,4.014c-4.654-0.288-8.555,3.24-8.826,7.841
			c-0.272,4.602,3.239,8.554,7.841,8.825c0.938,0.056,1.857,0.081,2.756,0.081c7.018,0,12.836-1.592,17.062-3.297
			c3.332,5.693,5.123,12.208,5.123,18.873c0,20.614-16.772,37.384-37.384,37.384c-10.182,0-19.705-4.03-26.812-11.35
			c-1.609-1.656-3.783-2.532-5.992-2.532c-1.221,0-2.451,0.267-3.602,0.818c-3.307,1.583-6.858,2.385-10.555,2.385
			c-13.502,0-24.487-10.985-24.487-24.487c0-8.44,4.271-16.18,11.423-20.706c3.791-2.399,5.009-7.365,2.757-11.245l-43.38-74.737
			l85.561,37.705c3.71,1.634,8.063,0.367,10.312-3.009c4.563-6.844,12.186-10.93,20.391-10.93c13.502,0,24.487,10.985,24.487,24.487
			C495.305,303.639,491.509,311.058,485.15,315.661z"/>
	</g>
</g>
<g>
</g>
<g>
</g>
<g>
</g>
<g>
</g>
<g>
</g>
<g>
</g>
<g>
</g>
<g>
</g>
<g>
</g>
<g>
</g>
<g>
</g>
<g>
</g>
<g>
</g>
<g>
</g>
<g>
</g>
</svg>
