<?xml version="1.0" encoding="utf-8"?>
<!-- Generator: Adobe Illustrator 21.1.0, SVG Export Plug-In . SVG Version: 6.00 Build 0)  -->
<svg version="1.1" id="Layer_1" xmlns="http://www.w3.org/2000/svg" xmlns:xlink="http://www.w3.org/1999/xlink" x="0px" y="0px"
	 viewBox="0 0 512 512" style="enable-background:new 0 0 512 512;" xml:space="preserve">
<style type="text/css">
	.st0{fill:#836D95;}
	.st1{fill:#FFFFFF;}
</style>
<g>
	<g>
		<g>
			<path class="st0" d="M256,510.5C115.7,510.5,1.5,396.3,1.5,256S115.7,1.5,256,1.5c140.3,0,254.5,114.2,254.5,254.5
				S396.3,510.5,256,510.5z M256,21.6C126.8,21.6,21.6,126.8,21.6,256c0,129.2,105.1,234.4,234.4,234.4
				c129.2,0,234.4-105.1,234.4-234.4C490.4,126.8,385.2,21.6,256,21.6z"/>
			<path class="st1" d="M256,2.5c139.8,0,253.5,113.7,253.5,253.5S395.8,509.5,256,509.5S2.5,395.8,2.5,256S116.2,2.5,256,2.5
				 M256,491.4c129.8,0,235.4-105.6,235.4-235.4S385.8,20.6,256,20.6S20.6,126.2,20.6,256S126.2,491.4,256,491.4 M256,0.5
				C115.1,0.5,0.5,115.1,0.5,256S115.1,511.5,256,511.5c140.9,0,255.5-114.6,255.5-255.5S396.9,0.5,256,0.5L256,0.5z M256,489.4
				C127.3,489.4,22.6,384.7,22.6,256C22.6,127.3,127.3,22.6,256,22.6S489.4,127.3,489.4,256C489.4,384.7,384.7,489.4,256,489.4
				L256,489.4z"/>
		</g>
	</g>
</g>
<g>
	<g>
		<g>
			<path class="st0" d="M146.7,264.6c-19.2,0-34.9-15.6-34.9-34.9c0-12.1,6.3-23.3,16.6-29.7c-12-9.2-17.8-18.1-18.1-18.5
				c-1.5-2.3-2-5-1.4-7.6c0.6-2.6,2.1-4.9,4.4-6.4c1.6-1.1,3.5-1.6,5.5-1.6c3.5,0,6.6,1.7,8.5,4.6c0.8,1.2,19.9,29.4,62.5,29.4
				c0,0,0,0,0,0c9.7,0,20-1.5,30.6-4.3c0.9-0.2,1.8-0.4,2.7-0.4c4.6,0,8.6,3.1,9.8,7.5c1.5,5.4-1.7,11-7.1,12.5
				c-12.3,3.3-24.3,5-35.7,5c-3.3,0-6.7-0.2-10.1-0.4c1,3.3,1.5,6.6,1.5,10C181.6,249,165.9,264.6,146.7,264.6z"/>
			<path class="st1" d="M118.9,167c3,0,5.9,1.5,7.7,4.2c1,1.5,20.3,29.8,63.4,29.8c9.2,0,19.4-1.3,30.8-4.4c0.8-0.2,1.6-0.3,2.4-0.3
				c4,0,7.7,2.7,8.8,6.8c1.3,4.9-1.6,9.9-6.4,11.2c-13,3.5-24.8,5-35.4,5c-4,0-7.8-0.2-11.5-0.6c1.2,3.5,1.9,7.3,1.9,11.2
				c0,18.7-15.2,33.9-33.9,33.9s-33.9-15.2-33.9-33.9c0-12.7,7-23.8,17.4-29.6c-12.6-9.3-18.7-18.7-19-19.2
				c-2.7-4.2-1.5-9.9,2.7-12.6C115.5,167.4,117.2,167,118.9,167 M118.9,165C118.9,165,118.9,165,118.9,165c-2.1,0-4.2,0.6-6,1.8
				c-2.5,1.6-4.2,4.1-4.9,7c-0.6,2.9-0.1,5.9,1.5,8.4c0.2,0.4,5.8,8.9,17.2,17.9c-9.8,6.6-15.9,17.8-15.9,29.7
				c0,19.8,16.1,35.9,35.9,35.9c19.8,0,35.9-16.1,35.9-35.9c0-3-0.4-6-1.1-8.9c2.9,0.2,5.8,0.3,8.7,0.3c11.5,0,23.6-1.7,36-5.1
				c5.9-1.6,9.4-7.8,7.8-13.7c-1.3-4.8-5.7-8.2-10.8-8.2c-1,0-2,0.1-2.9,0.4c-10.5,2.9-20.7,4.3-30.3,4.3
				c-42.2,0-60.9-27.7-61.7-28.9C126.2,166.9,122.7,165,118.9,165L118.9,165L118.9,165z"/>
		</g>
	</g>
</g>
<g>
	<g>
		<g>
			<path class="st0" d="M168.6,340.4c-1.1,0-2.3-0.2-3.4-0.6c-5.3-1.9-8.1-7.7-6.2-12.9c14.9-42.4,55.6-70.8,101.3-70.8
				c45.7,0,86.4,28.5,101.3,70.8c1.9,5.3-0.9,11.1-6.2,12.9c-1.1,0.4-2.2,0.6-3.4,0.6c-4.3,0-8.2-2.7-9.6-6.8
				c-12-34.2-45-57.2-82.2-57.2c-37.1,0-70.2,23-82.2,57.2C176.7,337.6,172.9,340.4,168.6,340.4z"/>
			<path class="st1" d="M260.3,257c45.3,0,85.6,28.2,100.4,70.2c1.7,4.8-0.8,10-5.6,11.7c-1,0.4-2,0.5-3,0.5c0,0,0,0,0,0
				c-3.8,0-7.3-2.4-8.6-6.1c-12.2-34.6-45.6-57.9-83.1-57.9c-37.6,0-71,23.3-83.1,57.9c-1.3,3.8-4.9,6.1-8.6,6.1c-1,0-2-0.2-3-0.5
				c-4.8-1.7-7.3-6.9-5.6-11.7C174.7,285.2,215,257,260.3,257 M260.3,255c-46.2,0-87.3,28.7-102.3,71.5c-2,5.8,1,12.2,6.8,14.2
				c1.2,0.4,2.4,0.6,3.7,0.6c4.7,0,9-3,10.5-7.5c11.9-33.8,44.5-56.6,81.2-56.6c36.7,0,69.3,22.7,81.2,56.6
				c1.6,4.5,5.8,7.5,10.5,7.5c1.3,0,2.5-0.2,3.7-0.6c5.8-2,8.9-8.4,6.8-14.2C347.6,283.7,306.5,255,260.3,255L260.3,255z"/>
		</g>
	</g>
</g>
<g>
	<g>
		<g>
			<path class="st0" d="M220.8,327.4c-3.1,0-5.9-1.4-7.9-3.7c-3.5-4.3-2.9-10.7,1.5-14.3c11.8-9.6,26.8-14.9,42.3-14.9
				c14.7,0,29.2,4.9,40.7,13.7c4.4,3.4,5.3,9.8,1.9,14.2c-1.9,2.5-4.9,4-8.1,4c0,0,0,0,0,0c-2.2,0-4.4-0.7-6.2-2.1
				c-8-6.1-18.1-9.5-28.4-9.5c-10.8,0-21.2,3.7-29.5,10.4C225.4,326.6,223.1,327.4,220.8,327.4z"/>
			<path class="st1" d="M256.7,295.4c14.5,0,28.8,4.8,40.1,13.5c4,3.1,4.8,8.8,1.7,12.8c-1.8,2.4-4.5,3.6-7.3,3.6
				c-1.9,0-3.9-0.6-5.6-1.9c-8.2-6.3-18.5-9.7-29-9.7c-11,0-21.7,3.8-30.1,10.6c-1.7,1.4-3.7,2.1-5.8,2.1c-2.7,0-5.3-1.2-7.1-3.4
				c-3.2-3.9-2.6-9.7,1.3-12.9C226.7,300.7,241.4,295.4,256.7,295.4 M256.7,293.4c-15.7,0-30.9,5.4-42.9,15.1
				c-4.8,3.9-5.5,10.9-1.6,15.7c2.1,2.6,5.3,4.1,8.7,4.1c2.6,0,5-0.9,7-2.5c8-6.5,18.3-10.1,28.8-10.1c10.1,0,19.9,3.3,27.8,9.3
				c2,1.5,4.3,2.3,6.8,2.3c3.5,0,6.7-1.6,8.9-4.4c3.7-4.9,2.8-11.9-2.1-15.6C286.3,298.4,271.6,293.4,256.7,293.4L256.7,293.4z"/>
		</g>
	</g>
</g>
<g>
	<g>
		<g>
			<path class="st0" d="M365.3,264.6c-19.2,0-34.9-15.6-34.9-34.9c0-3.4,0.5-6.8,1.5-10c-3.3,0.3-6.7,0.4-10.1,0.4
				c-11.4,0-23.5-1.7-35.7-5c-5.4-1.5-8.6-7.1-7.1-12.5c1.2-4.4,5.2-7.5,9.8-7.5c0.9,0,1.8,0.1,2.7,0.4c10.6,2.9,20.9,4.3,30.6,4.3
				c42.7,0,61.8-28.2,62.6-29.4c1.9-2.9,5.1-4.6,8.5-4.6c2,0,3.9,0.6,5.5,1.6c4.7,3,6,9.3,3,14c-0.2,0.4-6,9.3-18.1,18.5
				c10.3,6.3,16.6,17.6,16.6,29.7C400.1,249,384.5,264.6,365.3,264.6z"/>
			<path class="st1" d="M393.1,167c1.7,0,3.4,0.5,5,1.5c4.2,2.7,5.4,8.4,2.7,12.6c-0.3,0.5-6.4,9.8-19,19.2
				c10.4,5.8,17.4,16.9,17.4,29.6c0,18.7-15.2,33.9-33.9,33.9s-33.9-15.2-33.9-33.9c0-3.9,0.7-7.7,1.9-11.2
				c-3.7,0.4-7.5,0.6-11.5,0.6c-10.6,0-22.4-1.4-35.4-5c-4.9-1.3-7.8-6.4-6.4-11.2c1.1-4.1,4.8-6.8,8.8-6.8c0.8,0,1.6,0.1,2.4,0.3
				c11.4,3.1,21.6,4.4,30.8,4.4c43.2,0,62.4-28.4,63.4-29.8C387.2,168.4,390.1,167,393.1,167 M393.1,165c-3.8,0-7.3,1.9-9.3,5
				c-0.8,1.2-19.5,28.9-61.7,28.9c-9.6,0-19.8-1.5-30.3-4.3c-1-0.3-1.9-0.4-2.9-0.4c-5,0-9.4,3.4-10.8,8.2
				c-1.6,5.9,1.9,12.1,7.8,13.7c12.3,3.4,24.4,5.1,36,5.1c2.9,0,5.8-0.1,8.7-0.3c-0.8,2.9-1.1,5.9-1.1,8.9
				c0,19.8,16.1,35.9,35.9,35.9c19.8,0,35.9-16.1,35.9-35.9c0-12-6-23.1-15.9-29.7c11.4-9,17-17.5,17.2-17.9
				c3.3-5.1,1.8-12-3.3-15.4C397.4,165.6,395.3,165,393.1,165L393.1,165z"/>
		</g>
	</g>
</g>
</svg>
