<?xml version="1.0" encoding="iso-8859-1"?>
<!-- Generator: Adobe Illustrator 19.0.0, SVG Export Plug-In . SVG Version: 6.00 Build 0)  -->
<svg version="1.1" id="Layer_1" xmlns="http://www.w3.org/2000/svg" xmlns:xlink="http://www.w3.org/1999/xlink" x="0px" y="0px"
	 viewBox="0 0 512.001 512.001" style="enable-background:new 0 0 512.001 512.001;" xml:space="preserve">
<g>
	<g>
		<path d="M256.001,0C114.841,0,0,114.841,0,256.001s114.841,256.001,256.001,256.001S512.001,397.16,512.001,256.001
			S397.16,0,256.001,0z M256.001,493.701c-131.069,0-237.702-106.631-237.702-237.7S124.932,18.299,256.001,18.299
			s237.702,106.632,237.702,237.702S387.068,493.701,256.001,493.701z"/>
	</g>
</g>
<g>
	<g>
		<path d="M411.626,137.808c-4.333-2.59-9.955-1.177-12.547,3.162c-8.265,13.834-22.821,22.094-38.938,22.094
			c-16.115,0-30.67-8.26-38.936-22.094c-2.591-4.338-8.209-5.752-12.547-3.162c-4.338,2.592-5.753,8.209-3.162,12.547
			c11.6,19.415,32.028,31.007,54.645,31.007c0.001,0-0.001,0,0.001,0c22.615,0,43.046-11.593,54.646-31.007
			C417.379,146.018,415.964,140.4,411.626,137.808z"/>
	</g>
</g>
<g>
	<g>
		<path d="M203.342,137.809c-4.338-2.591-9.955-1.176-12.547,3.162c-8.265,13.834-22.82,22.093-38.936,22.094
			c-16.117,0-30.673-8.26-38.938-22.094c-2.59-4.338-8.208-5.752-12.547-3.162c-4.338,2.592-5.753,8.209-3.162,12.547
			c11.602,19.417,32.029,31.007,54.647,31.007s43.046-11.592,54.645-31.007C209.095,146.018,207.68,140.4,203.342,137.809z"/>
	</g>
</g>
<g>
	<g>
		<path d="M393.042,279.279c-75.568-75.565-198.519-75.563-274.084,0c-3.573,3.573-3.573,9.367,0,12.939
			c1.787,1.786,4.129,2.68,6.471,2.68s4.683-0.893,6.471-2.68c68.429-68.43,179.774-68.43,248.203,0
			c3.574,3.573,9.367,3.573,12.94,0C396.616,288.645,396.616,282.852,393.042,279.279z"/>
	</g>
</g>
<g>
	<g>
		<path d="M299.85,265.281c-28.688-8.043-59.015-8.042-87.7,0c-4.865,1.364-7.704,6.414-6.34,11.281
			c1.365,4.865,6.418,7.701,11.28,6.34c25.453-7.137,52.363-7.138,77.821,0c0.826,0.232,1.657,0.342,2.474,0.342
			c3.999,0,7.672-2.642,8.805-6.683C307.554,271.694,304.715,266.645,299.85,265.281z"/>
	</g>
</g>
<g>
</g>
<g>
</g>
<g>
</g>
<g>
</g>
<g>
</g>
<g>
</g>
<g>
</g>
<g>
</g>
<g>
</g>
<g>
</g>
<g>
</g>
<g>
</g>
<g>
</g>
<g>
</g>
<g>
</g>
</svg>
