<?xml version="1.0" encoding="utf-8"?>
<!-- Generator: Adobe Illustrator 21.1.0, SVG Export Plug-In . SVG Version: 6.00 Build 0)  -->
<svg version="1.1" id="Layer_1" xmlns="http://www.w3.org/2000/svg" xmlns:xlink="http://www.w3.org/1999/xlink" x="0px" y="0px"
	 viewBox="0 0 512 512" style="enable-background:new 0 0 512 512;" xml:space="preserve">
<style type="text/css">
	.st0{fill:#836D95;}
	.st1{fill:#FFFFFF;}
</style>
<g>
	<g>
		<g>
			<path class="st0" d="M256,510.5C115.7,510.5,1.5,396.3,1.5,256S115.7,1.5,256,1.5c140.3,0,254.5,114.2,254.5,254.5
				S396.3,510.5,256,510.5z M256,21.6C126.8,21.6,21.6,126.8,21.6,256c0,129.2,105.1,234.4,234.4,234.4
				c129.2,0,234.4-105.1,234.4-234.4C490.4,126.8,385.2,21.6,256,21.6z"/>
			<path class="st1" d="M256,2.5c139.8,0,253.5,113.7,253.5,253.5S395.8,509.5,256,509.5S2.5,395.8,2.5,256S116.2,2.5,256,2.5
				 M256,491.4c129.8,0,235.4-105.6,235.4-235.4S385.8,20.6,256,20.6S20.6,126.2,20.6,256S126.2,491.4,256,491.4 M256,0.5
				C115.1,0.5,0.5,115.1,0.5,256S115.1,511.5,256,511.5c140.9,0,255.5-114.6,255.5-255.5S396.9,0.5,256,0.5L256,0.5z M256,489.4
				C127.3,489.4,22.6,384.7,22.6,256C22.6,127.3,127.3,22.6,256,22.6S489.4,127.3,489.4,256C489.4,384.7,384.7,489.4,256,489.4
				L256,489.4z"/>
		</g>
	</g>
</g>
<g>
	<g>
		<g>
			<path class="st0" d="M138.3,316c-5.6,0-10.1-4.6-10.1-10.2s4.6-10.1,10.1-10.1h233c5.6,0,10.1,4.6,10.1,10.1s-4.6,10.2-10.1,10.2
				H138.3z"/>
			<path class="st1" d="M371.3,296.7c5.1,0,9.1,4.1,9.1,9.1c0,5.1-4.1,9.1-9.1,9.1h-233c-5.1,0-9.2-4.1-9.2-9.1s4.1-9.1,9.2-9.1
				H371.3 M371.3,294.7h-233c-6.1,0-11.2,5-11.2,11.1s5,11.1,11.2,11.1h233c6.1,0,11.1-5,11.1-11.1c0-3-1.2-5.8-3.3-7.9
				C377.1,295.8,374.3,294.7,371.3,294.7L371.3,294.7z"/>
		</g>
	</g>
</g>
<g>
	<g>
		<g>
			<path class="st0" d="M212.1,350.1c-5.6,0-10.1-4.6-10.1-10.2s4.6-10.1,10.1-10.1h85.4c5.6,0,10.1,4.6,10.1,10.1
				s-4.6,10.2-10.1,10.2H212.1z"/>
			<path class="st1" d="M297.5,330.8c5.1,0,9.1,4.1,9.1,9.1s-4.1,9.1-9.1,9.1h-85.4c-5.1,0-9.1-4.1-9.1-9.1s4.1-9.1,9.1-9.1H297.5
				 M297.5,328.8h-85.4c-6.1,0-11.1,5-11.1,11.1s5,11.1,11.1,11.1h85.4c6.1,0,11.1-5,11.1-11.1S303.6,328.8,297.5,328.8L297.5,328.8
				z"/>
		</g>
	</g>
</g>
<g>
	<g>
		<g>
			<path class="st0" d="M146.7,261.7c-19.2,0-34.9-15.6-34.9-34.9s15.6-34.9,34.9-34.9s34.9,15.6,34.9,34.9S165.9,261.7,146.7,261.7
				z"/>
			<path class="st1" d="M146.7,193c18.7,0,33.9,15.2,33.9,33.9c0,18.7-15.2,33.9-33.9,33.9s-33.9-15.2-33.9-33.9
				C112.9,208.2,128.1,193,146.7,193 M146.7,191c-19.8,0-35.9,16.1-35.9,35.9c0,19.8,16.1,35.9,35.9,35.9s35.9-16.1,35.9-35.9
				C182.6,207.1,166.5,191,146.7,191L146.7,191z"/>
		</g>
	</g>
</g>
<g>
	<g>
		<g>
			<path class="st0" d="M365.3,261.7c-19.2,0-34.9-15.6-34.9-34.9s15.6-34.9,34.9-34.9c9.3,0,18,3.6,24.6,10.2s10.2,15.3,10.2,24.6
				C400.1,246.1,384.5,261.7,365.3,261.7z"/>
			<path class="st1" d="M365.3,193c18.7,0,33.9,15.2,33.9,33.9c0,18.7-15.2,33.9-33.9,33.9s-33.9-15.2-33.9-33.9
				C331.4,208.2,346.6,193,365.3,193 M365.3,191c-19.8,0-35.9,16.1-35.9,35.9c0,19.8,16.1,35.9,35.9,35.9s35.9-16.1,35.9-35.9
				c0-9.6-3.7-18.6-10.5-25.3C383.8,194.7,374.8,191,365.3,191L365.3,191z"/>
		</g>
	</g>
</g>
</svg>
