<?xml version="1.0" encoding="utf-8"?>
<!-- Generator: Adobe Illustrator 21.1.0, SVG Export Plug-In . SVG Version: 6.00 Build 0)  -->
<svg version="1.1" id="Layer_1" xmlns="http://www.w3.org/2000/svg" xmlns:xlink="http://www.w3.org/1999/xlink" x="0px" y="0px"
	 viewBox="0 0 512 512" style="enable-background:new 0 0 512 512;" xml:space="preserve">
<style type="text/css">
	.st0{fill:#836D95;}
	.st1{fill:#FFFFFF;}
</style>
<g>
	<g>
		<g>
			<path class="st0" d="M256,510.5C115.7,510.5,1.5,396.3,1.5,256C1.5,115.7,115.7,1.5,256,1.5c140.3,0,254.5,114.2,254.5,254.5
				C510.5,396.3,396.3,510.5,256,510.5z M256,21.6C126.8,21.6,21.6,126.8,21.6,256c0,129.2,105.1,234.4,234.4,234.4
				c129.2,0,234.4-105.1,234.4-234.4C490.4,126.8,385.2,21.6,256,21.6z"/>
			<path class="st1" d="M256,2.5c139.8,0,253.5,113.7,253.5,253.5S395.8,509.5,256,509.5C116.2,509.5,2.5,395.8,2.5,256
				S116.2,2.5,256,2.5 M256,491.4c129.8,0,235.4-105.6,235.4-235.4S385.8,20.6,256,20.6C126.2,20.6,20.6,126.2,20.6,256
				S126.2,491.4,256,491.4 M256,0.5C115.1,0.5,0.5,115.1,0.5,256c0,140.9,114.6,255.5,255.5,255.5c140.9,0,255.5-114.6,255.5-255.5
				C511.5,115.1,396.9,0.5,256,0.5L256,0.5z M256,489.4C127.3,489.4,22.6,384.7,22.6,256C22.6,127.3,127.3,22.6,256,22.6
				c128.7,0,233.4,104.7,233.4,233.4C489.4,384.7,384.7,489.4,256,489.4L256,489.4z"/>
		</g>
	</g>
</g>
<g>
	<g>
		<g>
			<path class="st0" d="M105.1,182.9c-1.8,0-3.6-0.5-5.2-1.4c-2.3-1.4-4-3.6-4.6-6.2s-0.3-5.4,1.1-7.7
				c11.8-19.7,32.5-31.5,55.5-31.5c23,0,43.7,11.8,55.5,31.5c2.9,4.8,1.3,11-3.5,13.9c-1.6,0.9-3.4,1.4-5.2,1.4
				c-3.6,0-6.9-1.9-8.7-4.9c-8.1-13.5-22.3-21.6-38.1-21.6c-15.8,0-30,8.1-38.1,21.6C112,181,108.6,182.9,105.1,182.9z"/>
			<path class="st1" d="M151.9,137c22.6,0,43,11.6,54.6,31c2.6,4.3,1.2,10-3.2,12.5c-1.5,0.9-3.1,1.3-4.7,1.3
				c-3.1,0-6.2-1.6-7.9-4.5c-8.3-13.8-22.8-22.1-38.9-22.1c-16.1,0-30.7,8.3-38.9,22.1c-1.7,2.9-4.7,4.5-7.9,4.5
				c-1.6,0-3.2-0.4-4.7-1.3c-4.3-2.6-5.8-8.2-3.2-12.5C108.8,148.6,129.2,137,151.9,137 M151.9,135c-23.3,0-44.4,12-56.4,32
				c-1.5,2.6-2,5.6-1.2,8.4c0.7,2.9,2.5,5.3,5.1,6.8c1.7,1,3.7,1.6,5.7,1.6c3.9,0,7.6-2.1,9.6-5.4c7.9-13.2,21.8-21.1,37.2-21.1
				s29.3,7.9,37.2,21.1c2,3.4,5.7,5.4,9.6,5.4c2,0,4-0.5,5.7-1.6c5.3-3.2,7-10,3.9-15.3C196.3,147,175.2,135,151.9,135L151.9,135z"
				/>
		</g>
	</g>
</g>
<g>
	<g>
		<g>
			<path class="st0" d="M313.3,182.9c-1.8,0-3.6-0.5-5.2-1.4c-2.3-1.4-4-3.6-4.6-6.2c-0.7-2.6-0.3-5.4,1.1-7.7
				c11.8-19.7,32.5-31.5,55.5-31.5s43.7,11.8,55.5,31.5c2.9,4.8,1.3,11-3.5,13.9c-1.6,0.9-3.4,1.4-5.2,1.4c-3.6,0-6.9-1.9-8.7-4.9
				c-8.1-13.5-22.3-21.6-38.1-21.6s-30,8.1-38.1,21.6C320.2,181,316.9,182.9,313.3,182.9z"/>
			<path class="st1" d="M360.1,137c22.6,0,43,11.6,54.6,31c2.6,4.3,1.2,10-3.2,12.5c-1.5,0.9-3.1,1.3-4.7,1.3
				c-3.1,0-6.2-1.6-7.9-4.5c-8.3-13.8-22.8-22.1-38.9-22.1c-16.1,0-30.7,8.3-38.9,22.1c-1.7,2.9-4.7,4.5-7.9,4.5
				c-1.6,0-3.2-0.4-4.7-1.3c-4.3-2.6-5.8-8.2-3.2-12.5C317.1,148.6,337.5,137,360.1,137 M360.1,135c-23.3,0-44.4,12-56.4,32
				c-1.5,2.6-2,5.6-1.2,8.4c0.7,2.9,2.5,5.3,5.1,6.8c1.7,1,3.7,1.6,5.7,1.6c3.9,0,7.6-2.1,9.6-5.4c7.9-13.2,21.8-21.1,37.2-21.1
				s29.3,7.9,37.2,21.1c2,3.4,5.7,5.4,9.6,5.4c2,0,4-0.5,5.7-1.6c5.3-3.2,7-10,3.9-15.3C404.5,147,383.5,135,360.1,135L360.1,135z"
				/>
		</g>
	</g>
</g>
<g>
	<g>
		<g>
			<path class="st0" d="M156.5,298.5c-19.2,0-34.9-15.6-34.9-34.9c0-5.1,1.1-10,3.2-14.6h-11.7c-5.6,0-10.1-4.6-10.1-10.1
				c0-5.6,4.6-10.2,10.1-10.2h43.4c9.3,0,18,3.6,24.6,10.2c6.6,6.6,10.2,15.3,10.2,24.6C191.3,282.9,175.7,298.5,156.5,298.5z"/>
			<path class="st1" d="M156.5,229.8c18.7,0,33.9,15.2,33.9,33.9c0,18.7-15.2,33.9-33.9,33.9s-33.9-15.2-33.9-33.9
				c0-5.6,1.4-10.9,3.8-15.6h-13.3c-5.1,0-9.1-4.1-9.1-9.1s4.1-9.1,9.1-9.1H156.5 M156.5,227.8h-43.4c-6.1,0-11.1,5-11.1,11.1
				s5,11.1,11.1,11.1h10.2c-1.8,4.3-2.7,8.8-2.7,13.6c0,19.8,16.1,35.9,35.9,35.9c19.8,0,35.9-16.1,35.9-35.9
				c0-9.6-3.7-18.6-10.5-25.3C175,231.6,166,227.8,156.5,227.8L156.5,227.8z"/>
		</g>
	</g>
</g>
<g>
	<g>
		<g>
			<path class="st0" d="M375,298.5c-19.2,0-34.9-15.6-34.9-34.9c0-5.1,1.1-10,3.2-14.6h-11.7c-5.6,0-10.1-4.6-10.1-10.1
				c0-5.6,4.6-10.2,10.1-10.2H375c19.2,0,34.9,15.6,34.9,34.9C409.9,282.9,394.3,298.5,375,298.5z"/>
			<path class="st1" d="M375,229.8c18.7,0,33.9,15.2,33.9,33.9c0,18.7-15.2,33.9-33.9,33.9c-18.7,0-33.9-15.2-33.9-33.9
				c0-5.6,1.4-10.9,3.8-15.6h-13.3c-5.1,0-9.1-4.1-9.1-9.1s4.1-9.1,9.1-9.1H375 M375,227.8h-43.4c-6.1,0-11.1,5-11.1,11.1
				s5,11.1,11.1,11.1h10.2c-1.8,4.3-2.7,8.8-2.7,13.6c0,19.8,16.1,35.9,35.9,35.9s35.9-16.1,35.9-35.9
				C410.9,243.9,394.8,227.8,375,227.8L375,227.8z"/>
		</g>
	</g>
</g>
<g>
	<g>
		<g>
			<path class="st0" d="M285.8,377.8c-11.2,0-23.6-0.8-36.9-2.3c-36.1-4.1-66.4-12.2-67.7-12.5c-5.4-1.5-8.6-7-7.2-12.4
				c1.2-4.4,5.2-7.5,9.8-7.5c0.9,0,1.8,0.1,2.6,0.3c19.5,5.2,62.3,14,99.5,14c25.9,0,44.3-4.2,54.7-12.6c6.9-5.6,10-13.2,9.5-23.3
				c-0.3-5.6,4.1-10.4,9.6-10.6c0.2,0,0.3,0,0.5,0c5.4,0,9.9,4.2,10.1,9.7c0.8,16.8-4.9,30.3-17.1,40.1
				C339.4,372,316.6,377.8,285.8,377.8z"/>
			<path class="st1" d="M360.4,311.9c4.8,0,8.9,3.8,9.1,8.7c0.8,16.5-4.8,29.7-16.7,39.2c-13.9,11.2-36.4,16.9-67,16.9
				c-11.2,0-23.4-0.8-36.7-2.3c-35.9-4.1-66.2-12.1-67.5-12.5c-4.9-1.3-7.8-6.3-6.5-11.2c1.1-4.1,4.8-6.8,8.8-6.8
				c0.8,0,1.6,0.1,2.4,0.3c20.2,5.4,62.8,14.1,99.8,14.1c22.9,0,43.6-3.3,55.3-12.8c7.2-5.8,10.4-13.7,9.9-24.1
				c-0.2-5,3.6-9.3,8.7-9.6C360.1,311.9,360.3,311.9,360.4,311.9 M360.4,309.9c-0.2,0-0.4,0-0.5,0c-3,0.1-5.7,1.4-7.7,3.6
				s-3,5.1-2.9,8c0.5,9.8-2.5,17.1-9.2,22.5c-10.2,8.2-28.4,12.4-54.1,12.4c-37.1,0-79.8-8.8-99.2-14c-0.9-0.3-1.9-0.4-2.9-0.4
				c-5,0-9.5,3.4-10.8,8.3c-1.6,5.9,1.9,12.1,7.9,13.7c1.3,0.3,31.6,8.4,67.8,12.5c13.3,1.5,25.8,2.3,37,2.3
				c31.1,0,54-5.8,68.3-17.3c12.4-10,18.3-23.8,17.4-40.9C371.3,314.6,366.4,309.9,360.4,309.9L360.4,309.9z"/>
		</g>
	</g>
</g>
<g>
	<g>
		<g>
			<path class="st0" d="M288.5,411.2c-23.6,0-48.1-3.4-64.5-6.2c-5.5-1-9.2-6.2-8.3-11.7c0.8-4.9,5-8.4,10-8.4c0.6,0,1.2,0,1.7,0.1
				c15.6,2.7,38.9,5.9,61,5.9c6.9,0,13.4-0.3,19.3-0.9c0.4,0,0.7-0.1,1.1-0.1c5.2,0,9.5,3.9,10.1,9.1c0.6,5.6-3.5,10.6-9,11.2
				C303.3,410.8,296.1,411.2,288.5,411.2z"/>
			<path class="st1" d="M225.6,385.8c0.5,0,1,0,1.6,0.1c16.9,2.9,39.6,5.9,61.2,5.9c6.6,0,13.2-0.3,19.4-0.9c0.3,0,0.7-0.1,1-0.1
				c4.6,0,8.6,3.5,9.1,8.2c0.5,5-3.1,9.5-8.1,10.1c-6.9,0.7-14,1-21.2,1c-22.9,0-46.7-3.1-64.4-6.2c-5-0.9-8.3-5.6-7.5-10.6
				C217.4,389,221.3,385.8,225.6,385.8 M225.6,383.8L225.6,383.8c-5.4,0-10.1,3.9-11,9.3c-1,6.1,3,11.8,9.1,12.9
				c16.4,2.8,41,6.2,64.7,6.2c7.7,0,14.9-0.4,21.5-1c6.1-0.6,10.6-6.1,9.9-12.3c-0.6-5.7-5.4-10-11.1-10c-0.4,0-0.8,0-1.2,0.1
				c-5.8,0.6-12.3,0.9-19.2,0.9c-22,0-45.2-3.2-60.8-5.9C226.9,383.9,226.3,383.8,225.6,383.8L225.6,383.8z"/>
		</g>
	</g>
</g>
</svg>
