<?xml version="1.0" encoding="iso-8859-1"?>
<!-- Generator: Adobe Illustrator 19.0.0, SVG Export Plug-In . SVG Version: 6.00 Build 0)  -->
<svg version="1.1" id="Layer_1" xmlns="http://www.w3.org/2000/svg" xmlns:xlink="http://www.w3.org/1999/xlink" x="0px" y="0px"
	 viewBox="0 0 512.001 512.001" style="enable-background:new 0 0 512.001 512.001;" xml:space="preserve">
<g>
	<g>
		<path d="M256,0C114.842,0,0.001,114.841,0.001,256.001S114.842,512.001,256,512.001c141.159,0,256.001-114.841,256.001-256.001
			S397.16,0,256,0z M256,493.701c-131.068,0-237.7-106.631-237.7-237.7S124.932,18.299,256,18.299
			c131.069,0,237.702,106.632,237.702,237.702S387.069,493.701,256,493.701z"/>
	</g>
</g>
<g>
	<g>
		<path d="M299.851,388.93c-28.688-8.043-59.015-8.043-87.7,0c-4.866,1.364-7.704,6.414-6.34,11.28
			c1.365,4.865,6.414,7.704,11.28,6.34c25.456-7.138,52.365-7.137,77.822,0c0.826,0.232,1.657,0.342,2.474,0.342
			c3.999,0,7.672-2.642,8.805-6.683C307.555,395.345,304.716,390.294,299.851,388.93z"/>
	</g>
</g>
<g>
	<g>
		<path d="M197.564,188.803c-1.519-1.119-37.804-27.4-91.428-27.4c-5.053,0-9.15,4.097-9.15,9.15s4.097,9.15,9.15,9.15
			c21.322,0,39.709,4.781,53.513,10.062c-43.987,6.912-84.384,24.556-86.483,25.482c-4.624,2.04-6.717,7.442-4.677,12.064
			c1.51,3.422,4.861,5.459,8.376,5.459c1.233,0,2.487-0.251,3.688-0.781c0.605-0.267,61.034-26.669,111.585-26.669
			c3.95-0.001,7.456-2.54,8.691-6.295C202.063,195.27,200.745,191.146,197.564,188.803z"/>
	</g>
</g>
<g>
	<g>
		<path d="M438.837,215.245c-2.1-0.926-42.553-18.594-86.576-25.497c13.773-5.274,32.161-10.047,53.604-10.047
			c5.054,0,9.15-4.097,9.15-9.15s-4.095-9.15-9.15-9.15c-53.624,0-89.91,26.281-91.428,27.4c-3.182,2.345-4.499,6.468-3.265,10.222
			c1.235,3.755,4.74,6.294,8.692,6.294c50.402,0,110.841,26.342,111.585,26.669c1.2,0.531,2.455,0.781,3.688,0.781
			c3.515,0,6.866-2.036,8.376-5.459C445.555,222.687,443.461,217.285,438.837,215.245z"/>
	</g>
</g>
<g>
	<g>
		<path d="M410.948,278.387c-8.651-15.329-23.441-26.375-40.576-30.305c-74.821-17.177-153.922-17.178-228.746,0
			c-17.134,3.934-31.921,14.978-40.57,30.298c-8.68,15.376-10.504,33.803-5.013,50.53c0.177,0.545,0.367,1.091,0.583,1.707
			l0.376,1.052c5.719,15.906,17.795,28.993,33.175,35.976c0.146,0.074,0.295,0.146,0.446,0.214
			c12.485,5.552,26.124,6.874,39.444,3.827c56.223-12.889,115.651-12.889,171.866,0c4.669,1.069,9.378,1.601,14.062,1.601
			c8.676,0,17.271-1.823,25.378-5.427c0.151-0.067,0.3-0.138,0.446-0.214c15.379-6.984,27.456-20.072,33.185-36.004l0.385-1.081
			c0.189-0.543,0.381-1.099,0.556-1.643C421.448,312.178,419.627,293.76,410.948,278.387z M346.019,353.849
			c-29.447-6.751-59.726-10.127-90.017-10.127c-30.284,0-60.577,3.377-90.022,10.125c-5.825,1.332-11.738,1.483-17.491,0.477
			c13.712-18.117,35.404-29.096,58.375-29.096c15.892,0,30.993,4.996,43.67,14.448c3.245,2.419,7.693,2.419,10.937,0
			c12.679-9.452,27.767-14.448,43.635-14.448c22.98,0,44.688,10.986,58.4,29.098C357.755,355.334,351.843,355.183,346.019,353.849z
			 M380.913,347.218c-16.902-24.973-45.468-40.286-75.806-40.286c-17.606,0-34.447,4.922-49.103,14.295
			c-14.656-9.372-31.512-14.295-49.139-14.295c-30.329,0-58.879,15.305-75.781,40.286c-7.517-5.138-13.381-12.52-16.617-21.102
			c5.435-13.538,16.925-23.428,31.252-26.722c72.146-16.564,148.414-16.563,220.553-0.001c14.334,3.299,25.826,13.185,31.259,26.715
			C394.292,334.698,388.429,342.081,380.913,347.218z M370.372,281.557c-74.823-17.177-153.922-17.178-228.748,0.001
			c-10.912,2.509-20.652,7.73-28.519,14.997c0.945-3.171,2.235-6.253,3.885-9.178c6.216-11.011,16.419-18.633,28.73-21.46
			c72.145-16.563,148.413-16.563,220.559,0c12.312,2.823,22.516,10.446,28.736,21.465c1.651,2.924,2.939,6.006,3.884,9.175
			C391.031,289.292,381.29,284.069,370.372,281.557z"/>
	</g>
</g>
<g>
</g>
<g>
</g>
<g>
</g>
<g>
</g>
<g>
</g>
<g>
</g>
<g>
</g>
<g>
</g>
<g>
</g>
<g>
</g>
<g>
</g>
<g>
</g>
<g>
</g>
<g>
</g>
<g>
</g>
</svg>
