<?xml version="1.0" encoding="iso-8859-1"?>
<!-- Generator: Adobe Illustrator 19.0.0, SVG Export Plug-In . SVG Version: 6.00 Build 0)  -->
<svg version="1.1" id="Layer_1" xmlns="http://www.w3.org/2000/svg" xmlns:xlink="http://www.w3.org/1999/xlink" x="0px" y="0px"
	 viewBox="0 0 512.001 512.001" style="enable-background:new 0 0 512.001 512.001;" xml:space="preserve">
<g>
	<g>
		<path d="M256,0C114.842,0,0.001,114.841,0.001,256.001S114.842,512.001,256,512.001c141.159,0,256.001-114.841,256.001-256.001
			S397.16,0,256,0z M83.979,338.085l34.71-34.71l34.71,34.71c19.138,19.138,19.138,50.28,0,69.419
			c-19.138,19.138-50.28,19.14-69.419,0C64.84,388.365,64.84,357.224,83.979,338.085z M256,493.701
			c-57.82,0-110.877-20.761-152.129-55.207c4.875,1.092,9.845,1.655,14.817,1.655c17.256,0,34.512-6.568,47.65-19.706
			c26.274-26.274,26.274-69.024,0-95.298l-41.179-41.179c-1.715-1.716-4.043-2.68-6.469-2.68s-4.754,0.964-6.469,2.68
			l-41.179,41.179C56.836,339.351,50.328,358.371,51.482,377c-21.065-35.467-33.182-76.843-33.182-121
			C18.3,124.932,124.932,18.299,256,18.299c131.069,0,237.702,106.632,237.702,237.702S387.069,493.701,256,493.701z"/>
	</g>
</g>
<g>
	<g>
		<path d="M284.076,342.997c-18.366-8.839-37.784-8.839-56.151,0c-4.553,2.191-6.468,7.659-4.277,12.212
			c1.576,3.274,4.846,5.185,8.252,5.185c1.33,0,2.681-0.292,3.961-0.908c13.177-6.34,27.107-6.341,40.284,0
			c4.549,2.19,10.021,0.277,12.212-4.277C290.545,350.657,288.63,345.189,284.076,342.997z"/>
	</g>
</g>
<g>
	<g>
		<path d="M174.858,149.552c-31.233,1.474-58.686,18.813-73.44,46.381c-2.384,4.455-0.705,10,3.75,12.385
			c1.375,0.736,2.852,1.085,4.31,1.085c3.266,0,6.427-1.754,8.075-4.833c11.686-21.836,33.43-35.569,58.168-36.736
			c5.048-0.238,8.946-4.523,8.708-9.57C184.191,153.216,179.899,149.296,174.858,149.552z"/>
	</g>
</g>
<g>
	<g>
		<path d="M410.581,195.933c-14.75-27.568-42.205-44.907-73.439-46.381c-5.053-0.245-9.331,3.66-9.57,8.708
			c-0.239,5.048,3.66,9.333,8.708,9.57c24.738,1.167,46.485,14.9,58.169,36.736c1.649,3.082,4.808,4.835,8.075,4.835
			c1.455,0,2.934-0.349,4.309-1.085C411.286,205.932,412.966,200.387,410.581,195.933z"/>
	</g>
</g>
<g>
	<g>
		<path d="M314.459,318.618c-32.779-19.764-84.136-19.764-116.918,0c-4.327,2.609-5.72,8.232-3.111,12.559
			c2.609,4.327,8.233,5.72,12.559,3.111c26.565-16.017,71.453-16.017,98.022,0c1.477,0.891,3.106,1.315,4.715,1.315
			c3.101,0,6.125-1.577,7.844-4.426C320.18,326.85,318.787,321.227,314.459,318.618z"/>
	</g>
</g>
<g>
	<g>
		<path d="M146.724,203.59c-18.666,0-33.852,15.186-33.852,33.852c0,18.666,15.186,33.852,33.852,33.852
			s33.852-15.186,33.852-33.852C180.576,218.775,165.39,203.59,146.724,203.59z"/>
	</g>
</g>
<g>
	<g>
		<path d="M365.276,203.59c-18.666,0-33.852,15.186-33.852,33.852c0,18.666,15.186,33.852,33.852,33.852
			s33.852-15.186,33.852-33.852C399.128,218.775,383.942,203.59,365.276,203.59z"/>
	</g>
</g>
<g>
	<g>
		<g>
			<circle cx="158.812" cy="230.105" r="9.15"/>
			<circle cx="377.181" cy="230.105" r="9.15"/>
		</g>
	</g>
</g>
<g>
</g>
<g>
</g>
<g>
</g>
<g>
</g>
<g>
</g>
<g>
</g>
<g>
</g>
<g>
</g>
<g>
</g>
<g>
</g>
<g>
</g>
<g>
</g>
<g>
</g>
<g>
</g>
<g>
</g>
</svg>
