<?xml version="1.0" encoding="iso-8859-1"?>
<!-- Generator: Adobe Illustrator 19.0.0, SVG Export Plug-In . SVG Version: 6.00 Build 0)  -->
<svg version="1.1" id="Layer_1" xmlns="http://www.w3.org/2000/svg" xmlns:xlink="http://www.w3.org/1999/xlink" x="0px" y="0px"
	 viewBox="0 0 512 512" style="enable-background:new 0 0 512 512;" xml:space="preserve">
<g>
	<g>
		<path d="M256.006,285.928c-30.99,0-56.203,32.836-56.203,73.197c0,13.36,2.767,26.424,7.998,37.772
			c10.193,22.182,28.215,35.425,48.206,35.425s38.012-13.243,48.206-35.424c5.224-11.364,7.986-24.426,7.986-37.773
			C312.197,318.764,286.989,285.928,256.006,285.928z M256.006,304.227c10.287,0,19.623,5.978,26.458,15.651
			c-7.481,2.223-17.787,4.76-26.485,4.774c-0.039,0-0.077,0-0.117,0c-10.355,0-19.834-2.326-26.542-4.469
			C236.175,310.328,245.607,304.227,256.006,304.227z M287.586,389.256c-7.128,15.508-18.934,24.767-31.58,24.767
			c-12.646,0-24.451-9.258-31.583-24.777c-4.136-8.971-6.322-19.387-6.322-30.121c0-7.932,1.177-15.469,3.277-22.285
			c7.914,2.7,20.351,6.112,34.484,6.111c0.048,0,0.099,0,0.148,0c11.716-0.019,24.445-3.252,34.521-6.407
			c2.157,6.893,3.367,14.533,3.367,22.581C293.898,369.852,291.715,380.27,287.586,389.256z"/>
	</g>
</g>
<g>
	<g>
		<path d="M419.926,151.213c-11.6-19.414-32.03-31.006-54.648-31.006c-22.617,0-43.046,11.592-54.646,31.007l15.71,9.385
			c8.265-13.834,22.82-22.093,38.936-22.094c16.117,0,30.673,8.26,38.938,22.094c1.713,2.868,4.749,4.458,7.863,4.458
			c1.597,0,3.215-0.418,4.685-1.297C421.102,161.167,422.517,155.551,419.926,151.213z"/>
	</g>
</g>
<g>
	<g>
		<path d="M201.372,151.215c-11.601-19.415-32.029-31.007-54.645-31.007c-0.001,0,0.001,0-0.001,0
			c-22.615,0-43.046,11.593-54.646,31.007c-2.591,4.338-1.176,9.956,3.162,12.547c1.47,0.878,3.086,1.297,4.685,1.297
			c3.113,0,6.15-1.591,7.863-4.458c8.265-13.834,22.822-22.094,38.938-22.094c16.116,0,30.671,8.26,38.936,22.094
			c2.591,4.338,8.21,5.753,12.547,3.162C202.548,161.17,203.963,155.553,201.372,151.215z"/>
	</g>
</g>
<g>
	<g>
		<path d="M256.006,0C114.843,0,0,114.843,0,256.006c0,72.499,30.94,141.904,84.891,190.419
			c27.234,24.481,58.637,42.494,93.335,53.541c25.053,7.985,51.221,12.034,77.78,12.034c26.551,0,52.715-4.049,77.767-12.034
			c34.699-11.048,66.103-29.062,93.336-53.542l0.001-0.001C481.06,397.91,512,328.505,512,256.005C512,114.843,397.161,0,256.006,0z
			 M99.251,434.678c-0.598-2.991-0.899-6.216-0.899-9.795c0-14.866,4.955-21.677,11.228-30.301
			c6.905-9.491,14.731-20.249,14.731-41.066s-7.826-31.575-14.731-41.066c-6.274-8.624-11.228-15.435-11.228-30.301
			c0-14.853,4.953-21.66,11.221-30.279c3.783-5.199,7.981-10.982,10.916-18.71c18.159-5.463,35.014-9.139,50.313-10.98
			c-1.843,7.682-5.58,12.846-9.995,18.914c-6.904,9.489-14.73,20.245-14.73,41.055c0,20.817,7.826,31.575,14.731,41.066
			c6.274,8.624,11.228,15.435,11.228,30.301c0,14.866-4.955,21.677-11.228,30.301c-6.905,9.491-14.731,20.249-14.731,41.066
			c0,20.815,7.825,31.572,14.728,41.063c2.627,3.611,5.075,6.989,7.015,10.854C142.76,466.816,119.764,452.693,99.251,434.678z
			 M412.747,434.677c-20.512,18.015-43.506,32.137-68.568,42.122c1.94-3.865,4.388-7.244,7.015-10.855
			c6.904-9.491,14.728-20.249,14.728-41.063c0.001-20.816-7.825-31.573-14.73-41.063c-6.274-8.624-11.23-15.435-11.23-30.301
			s4.957-21.677,11.23-30.301c6.905-9.491,14.731-20.249,14.731-41.066c0-20.811-7.826-31.566-14.731-41.056
			c-4.416-6.068-8.152-11.233-9.995-18.914c15.292,1.84,32.149,5.517,50.313,10.979c2.935,7.728,7.133,13.511,10.915,18.71
			c6.271,8.618,11.222,15.426,11.222,30.279c0,14.866-4.957,21.677-11.23,30.301c-6.905,9.491-14.731,20.249-14.731,41.066
			s7.826,31.575,14.731,41.066c6.274,8.624,11.23,15.435,11.23,30.301C413.648,428.459,413.346,431.685,412.747,434.677z
			 M431.449,416.341c-1.803-15.391-8.344-24.429-14.233-32.524c-6.274-8.624-11.23-15.435-11.23-30.301s4.957-21.677,11.23-30.301
			c6.905-9.491,14.731-20.249,14.731-41.066c0-20.097-7.298-30.81-14.015-40.067c8.355,3.138,13.437,5.363,13.522,5.401
			c1.199,0.528,2.452,0.778,3.684,0.778c3.516,0,6.868-2.037,8.376-5.462c2.039-4.624-0.057-10.024-4.681-12.063
			c-0.63-0.278-15.663-6.873-37.384-13.67c-17.446-5.464-33.884-9.414-49.102-11.81c13.805-5.282,32.196-10.067,53.515-10.067
			c5.054,0,9.15-4.097,9.15-9.15s-4.095-9.15-9.15-9.15c-53.614,0-89.902,26.284-91.42,27.402
			c-3.182,2.345-4.499,6.468-3.265,10.222c1.235,3.755,4.74,6.294,8.692,6.294c0.822,0,1.659,0.028,2.489,0.042
			c2.045,14.478,8.352,23.194,14.037,31.007c6.274,8.621,11.228,15.431,11.228,30.289c0,14.866-4.957,21.677-11.23,30.301
			c-6.905,9.491-14.731,20.249-14.731,41.066s7.826,31.575,14.731,41.066c6.274,8.624,11.23,15.435,11.23,30.301
			c0,14.863-4.955,21.675-11.228,30.299c-5.395,7.418-11.411,15.702-13.737,29.036c-21.558,6.289-43.949,9.483-66.653,9.483
			c-22.712,0-45.106-3.194-66.664-9.483c-2.326-13.333-8.342-21.617-13.738-29.035c-6.273-8.624-11.227-15.436-11.227-30.3
			c0-14.866,4.955-21.677,11.228-30.301c6.905-9.491,14.731-20.249,14.731-41.066s-7.826-31.575-14.731-41.066
			c-6.274-8.624-11.228-15.435-11.228-30.301c0-14.858,4.955-21.667,11.228-30.289c5.684-7.814,11.991-16.529,14.036-31.007
			c0.834-0.013,1.675-0.041,2.502-0.041c3.953,0,7.458-2.539,8.692-6.294s-0.082-7.878-3.265-10.222
			c-1.52-1.117-37.807-27.401-91.435-27.401c-5.054,0-9.15,4.097-9.15,9.15c0,5.053,4.095,9.15,9.15,9.15
			c21.326,0,39.72,4.785,53.525,10.066c-15.224,2.396-31.663,6.346-49.109,11.81c-21.722,6.796-36.757,13.393-37.387,13.669
			c-4.624,2.039-6.719,7.439-4.681,12.063c1.508,3.423,4.86,5.462,8.376,5.462c1.233,0,2.486-0.251,3.685-0.78
			c0.085-0.038,5.152-2.261,13.522-5.403c-6.717,9.258-14.016,19.971-14.016,40.07c0,20.817,7.826,31.575,14.731,41.066
			c6.274,8.624,11.228,15.435,11.228,30.301s-4.955,21.677-11.228,30.301c-5.889,8.094-12.43,17.133-14.233,32.525
			c-39.796-43.601-62.25-100.842-62.25-160.337c0-131.072,106.634-237.707,237.707-237.707
			c131.065,0,237.695,106.634,237.695,237.707C493.701,315.501,471.246,372.742,431.449,416.341z"/>
	</g>
</g>
<g>
</g>
<g>
</g>
<g>
</g>
<g>
</g>
<g>
</g>
<g>
</g>
<g>
</g>
<g>
</g>
<g>
</g>
<g>
</g>
<g>
</g>
<g>
</g>
<g>
</g>
<g>
</g>
<g>
</g>
</svg>
