<?xml version="1.0" encoding="iso-8859-1"?>
<!-- Generator: Adobe Illustrator 19.0.0, SVG Export Plug-In . SVG Version: 6.00 Build 0)  -->
<svg version="1.1" id="Layer_1" xmlns="http://www.w3.org/2000/svg" xmlns:xlink="http://www.w3.org/1999/xlink" x="0px" y="0px"
	 viewBox="0 0 512.001 512.001" style="enable-background:new 0 0 512.001 512.001;" xml:space="preserve">
<g>
	<g>
		<path d="M256,0C114.842,0,0.001,114.841,0.001,256.001S114.842,512.001,256,512.001c141.159,0,256.001-114.841,256.001-256.001
			S397.16,0,256,0z M256,493.701c-131.068,0-237.7-106.631-237.7-237.7S124.932,18.299,256,18.299
			c131.069,0,237.702,106.632,237.702,237.702S387.069,493.701,256,493.701z"/>
	</g>
</g>
<g>
	<g>
		<path d="M363.356,207.453c-29.99,0-54.387,24.399-54.387,54.387c0,29.989,24.398,54.387,54.387,54.387
			c29.99,0,54.387-24.399,54.387-54.387C417.743,231.852,393.346,207.453,363.356,207.453z"/>
	</g>
</g>
<g>
	<g>
		<path d="M148.647,207.453c-29.99,0-54.389,24.399-54.389,54.387c0,29.989,24.399,54.387,54.389,54.387
			s54.387-24.399,54.387-54.387C203.034,231.852,178.635,207.453,148.647,207.453z"/>
	</g>
</g>
<g>
	<g>
		<path d="M312.911,318.973c-5.054,0-9.15,4.097-9.15,9.15c0,10.645-8.662,19.307-19.306,19.307
			c-10.644,0-19.306-8.662-19.306-19.307c0-5.053-4.095-9.15-9.15-9.15c-5.053,0-9.15,4.097-9.15,9.15
			c0,10.645-8.662,19.307-19.307,19.307s-19.307-8.662-19.307-19.307c0-5.053-4.097-9.15-9.15-9.15s-9.15,4.097-9.15,9.15
			c0,20.737,16.869,37.606,37.606,37.606c11.358,0,21.555-5.06,28.456-13.046c6.901,7.986,17.099,13.046,28.455,13.046
			c20.735,0,37.605-16.869,37.605-37.606C322.061,323.069,317.966,318.973,312.911,318.973z"/>
	</g>
</g>
<g>
	<g>
		<g>
			<circle cx="182.406" cy="273.413" r="9.15"/>
			<circle cx="400.775" cy="273.413" r="9.15"/>
			<circle cx="127.094" cy="290.492" r="9.15"/>
			<circle cx="345.463" cy="290.492" r="9.15"/>
			<circle cx="378.414" cy="244.439" r="19.325"/>
			<circle cx="163.704" cy="244.439" r="19.325"/>
		</g>
	</g>
</g>
<g>
</g>
<g>
</g>
<g>
</g>
<g>
</g>
<g>
</g>
<g>
</g>
<g>
</g>
<g>
</g>
<g>
</g>
<g>
</g>
<g>
</g>
<g>
</g>
<g>
</g>
<g>
</g>
<g>
</g>
</svg>
