<?xml version="1.0" encoding="iso-8859-1"?>
<!-- Generator: Adobe Illustrator 19.0.0, SVG Export Plug-In . SVG Version: 6.00 Build 0)  -->
<svg version="1.1" id="Layer_1" xmlns="http://www.w3.org/2000/svg" xmlns:xlink="http://www.w3.org/1999/xlink" x="0px" y="0px"
	 viewBox="0 0 512 512" style="enable-background:new 0 0 512 512;" xml:space="preserve">
<g>
	<g>
		<path d="M255.999,0C114.841,0,0,114.841,0,256.001S114.841,512,255.999,512C397.159,512,512,397.159,512,256.001
			C512,114.841,397.16,0,255.999,0z M255.999,493.701c-131.068,0-237.7-106.631-237.7-237.7s106.632-237.702,237.7-237.702
			c131.069,0,237.702,106.632,237.702,237.702S387.068,493.701,255.999,493.701z"/>
	</g>
</g>
<g>
	<g>
		<path d="M332.853,231.13H179.148c-36.828,0-66.789,29.962-66.789,66.789s29.962,66.789,66.789,66.789h153.705
			c36.828,0,66.788-29.962,66.788-66.789S369.679,231.13,332.853,231.13z M359.761,257.604c10.579,7.084,18.22,18.217,20.702,31.165
			h-20.837L359.761,257.604z M152.734,257.285l0.135,31.483h-21.334C134.057,275.622,141.901,264.351,152.734,257.285z
			 M131.535,307.067h21.414l0.137,31.709C142.072,331.726,134.085,320.356,131.535,307.067z M171.003,250.127
			c2.65-0.45,5.369-0.698,8.146-0.698h15.591l0.17,39.341H171.17L171.003,250.127z M179.148,346.408
			c-2.633,0-5.213-0.218-7.733-0.623l-0.167-38.717h23.739l0.17,39.341H179.148z M213.038,249.428h33.603l0.17,39.341h-33.603
			L213.038,249.428z M213.456,346.408l-0.17-39.341h33.603v0l0.17,39.341H213.456z M299.041,346.408H265.36l-0.171-39.341h34.022
			L299.041,346.408z M299.289,288.768H265.11l-0.17-39.341h34.518L299.289,288.768z M341.082,345.695
			c-2.677,0.46-5.424,0.712-8.23,0.712H317.34l0.17-39.341h23.739L341.082,345.695z M341.328,288.768h-23.739l0.17-39.341h15.094
			c2.95,0.001,5.835,0.281,8.641,0.787L341.328,288.768z M359.412,338.456l0.135-31.389h20.916
			C377.954,320.155,370.17,331.384,359.412,338.456z"/>
	</g>
</g>
<g>
	<g>
		<path d="M146.723,150.531c-18.666,0-33.852,15.186-33.852,33.852c0,18.666,15.187,33.852,33.852,33.852
			c18.666,0,33.852-15.186,33.852-33.852C180.575,165.717,165.39,150.531,146.723,150.531z M146.723,199.936
			c-8.576,0-15.553-6.977-15.553-15.553s6.978-15.553,15.553-15.553c8.576,0,15.553,6.977,15.553,15.553
			S155.299,199.936,146.723,199.936z"/>
	</g>
</g>
<g>
	<g>
		<path d="M365.275,150.531c-18.666,0-33.852,15.186-33.852,33.852c0,18.666,15.186,33.852,33.852,33.852
			s33.852-15.186,33.852-33.852C399.128,165.717,383.942,150.531,365.275,150.531z M365.275,199.936
			c-8.576,0-15.553-6.977-15.553-15.553s6.977-15.553,15.553-15.553s15.553,6.977,15.553,15.553S373.852,199.936,365.275,199.936z"
			/>
	</g>
</g>
<g>
</g>
<g>
</g>
<g>
</g>
<g>
</g>
<g>
</g>
<g>
</g>
<g>
</g>
<g>
</g>
<g>
</g>
<g>
</g>
<g>
</g>
<g>
</g>
<g>
</g>
<g>
</g>
<g>
</g>
</svg>
