<?xml version="1.0" encoding="iso-8859-1"?>
<!-- Generator: Adobe Illustrator 19.0.0, SVG Export Plug-In . SVG Version: 6.00 Build 0)  -->
<svg version="1.1" id="Layer_1" xmlns="http://www.w3.org/2000/svg" xmlns:xlink="http://www.w3.org/1999/xlink" x="0px" y="0px"
	 viewBox="0 0 512.001 512.001" style="enable-background:new 0 0 512.001 512.001;" xml:space="preserve">
<g>
	<g>
		<path d="M256,0C114.842,0,0.001,114.841,0.001,256.001S114.842,512.001,256,512.001c141.159,0,256.001-114.841,256.001-256.001
			S397.159,0,256,0z M256,493.701c-131.068,0-237.7-106.631-237.7-237.7S124.932,18.299,256,18.299
			c131.069,0,237.702,106.632,237.702,237.702S387.069,493.701,256,493.701z"/>
	</g>
</g>
<g>
	<g>
		<path d="M174.41,186.064V156.5h14.127c5.053,0,9.15-4.097,9.15-9.15c0-5.053-4.097-9.15-9.15-9.15H174.41v-22.537
			c0-5.053-4.097-9.15-9.15-9.15s-9.15,4.097-9.15,9.15v23.863c-13.432,3.961-23.266,16.398-23.266,31.096
			c0,14.698,9.834,27.134,23.266,31.095v29.568h-14.116v-0.001c-5.053,0-9.15,4.097-9.15,9.15s4.097,9.15,9.15,9.15h14.116v22.543
			c0,5.053,4.096,9.15,9.15,9.15c5.053,0,9.15-4.097,9.15-9.15v-23.866c13.436-3.958,23.276-16.397,23.276-31.099
			C197.687,202.461,187.848,190.021,174.41,186.064z M156.111,181.353c-3.033-2.591-4.966-6.436-4.966-10.731
			s1.932-8.139,4.966-10.732V181.353z M174.41,227.904v-21.482c3.04,2.594,4.977,6.443,4.977,10.742
			C179.388,221.463,177.451,225.313,174.41,227.904z"/>
	</g>
</g>
<g>
	<g>
		<path d="M366.541,186.065v-29.564h14.127c5.053,0,9.15-4.097,9.15-9.15c0-5.053-4.097-9.15-9.15-9.15h-14.127v-22.538
			c0-5.053-4.097-9.15-9.15-9.15s-9.15,4.097-9.15,9.15v23.863c-13.432,3.961-23.265,16.398-23.265,31.096
			c0,14.698,9.834,27.134,23.265,31.095v29.568h-14.116c-5.053,0-9.15,4.097-9.15,9.15s4.097,9.15,9.15,9.15h14.116v22.543
			c0,5.053,4.097,9.15,9.15,9.15s9.15-4.097,9.15-9.15v-23.866c13.436-3.959,23.276-16.397,23.276-31.099
			C389.818,202.462,379.979,190.023,366.541,186.065z M348.242,181.354c-3.033-2.591-4.966-6.438-4.966-10.732
			s1.932-8.139,4.966-10.732V181.354z M366.541,227.904v-21.481c3.041,2.592,4.977,6.441,4.977,10.74
			C371.518,221.463,369.581,225.312,366.541,227.904z"/>
	</g>
</g>
<g>
	<g>
		<path d="M380.435,299.036H131.567c-5.053,0-9.15,4.097-9.15,9.15c0,14.662,2.367,29.088,7.034,42.876
			c8.934,26.382,25.643,48.999,48.314,65.4c22.86,16.557,49.914,25.309,78.235,25.309c28.32,0,55.373-8.752,78.23-25.305
			c22.676-16.405,39.386-39.02,48.319-65.402c4.667-13.788,7.034-28.214,7.034-42.875
			C389.585,303.133,385.488,299.036,380.435,299.036z M256.001,423.47c-21.321,0-41.802-5.747-59.778-16.696
			c7.649-8.21,18.5-13.083,29.926-13.083c8.87,0,17.302,2.79,24.384,8.069c3.244,2.417,7.692,2.417,10.936,0
			c7.082-5.279,15.509-8.069,24.372-8.069c11.422,0,22.274,4.871,29.932,13.086C297.801,417.723,277.321,423.47,256.001,423.47z
			 M330.677,396.013c-11.137-12.9-27.534-20.619-44.836-20.619c-10.624,0-20.819,2.771-29.84,8.066
			c-9.021-5.296-19.221-8.066-29.852-8.066c-17.31,0-33.706,7.722-44.829,20.617c-12.623-10.71-22.681-23.855-29.665-38.733h208.694
			C353.362,372.156,343.304,385.301,330.677,396.013z M367.118,338.977H144.883c-1.954-7.067-3.233-14.303-3.809-21.642h229.852
			C370.351,324.675,369.073,331.91,367.118,338.977z"/>
	</g>
</g>
<g>
</g>
<g>
</g>
<g>
</g>
<g>
</g>
<g>
</g>
<g>
</g>
<g>
</g>
<g>
</g>
<g>
</g>
<g>
</g>
<g>
</g>
<g>
</g>
<g>
</g>
<g>
</g>
<g>
</g>
</svg>
