<?xml version="1.0" encoding="iso-8859-1"?>
<!-- Generator: Adobe Illustrator 19.0.0, SVG Export Plug-In . SVG Version: 6.00 Build 0)  -->
<svg version="1.1" id="Layer_1" xmlns="http://www.w3.org/2000/svg" xmlns:xlink="http://www.w3.org/1999/xlink" x="0px" y="0px"
	 viewBox="0 0 511.999 511.999" style="enable-background:new 0 0 511.999 511.999;" xml:space="preserve">
<g>
	<g>
		<path d="M130.823,152.672c-31.388,0-56.925,25.537-56.925,56.926c0,4.963,4.024,8.987,8.987,8.987s8.987-4.024,8.987-8.987
			c0-21.478,17.473-38.952,38.95-38.952c21.478,0,38.952,17.473,38.952,38.952c0,4.963,4.024,8.987,8.987,8.987
			s8.987-4.024,8.987-8.987C187.749,178.208,162.212,152.672,130.823,152.672z"/>
	</g>
</g>
<g>
	<g>
		<path d="M374.326,152.672c-31.388,0-56.925,25.537-56.925,56.926c0,4.963,4.024,8.987,8.987,8.987s8.987-4.024,8.987-8.987
			c0-21.478,17.473-38.952,38.95-38.952c21.478,0,38.952,17.473,38.952,38.952c0,4.963,4.024,8.987,8.987,8.987
			s8.987-4.024,8.987-8.987C431.252,178.208,405.715,152.672,374.326,152.672z"/>
	</g>
</g>
<g>
	<g>
		<path d="M374.8,273.488H130.349c-4.963,0-8.987,4.024-8.987,8.987c0,14.401,2.325,28.57,6.909,42.114
			c8.775,25.914,25.187,48.129,47.458,64.239c22.456,16.263,49.028,24.86,76.845,24.86c27.817,0,54.389-8.596,76.841-24.856
			c22.275-16.113,38.688-38.328,47.462-64.243c4.585-13.543,6.909-27.712,6.909-42.114
			C383.787,277.512,379.763,273.488,374.8,273.488z M252.575,395.713c-20.941,0-41.061-5.645-58.717-16.4
			c7.513-8.065,18.171-12.85,29.394-12.85c8.713,0,16.995,2.74,23.953,7.926c3.186,2.374,7.554,2.374,10.74,0
			c6.957-5.185,15.236-7.926,23.941-7.926c11.218,0,21.877,4.785,29.401,12.854C293.633,390.069,273.515,395.713,252.575,395.713z
			 M325.927,368.743c-10.939-12.671-27.045-20.255-44.042-20.255c-10.435,0-20.45,2.723-29.31,7.924
			c-8.862-5.202-18.881-7.924-29.322-7.924c-17.005,0-33.112,7.588-44.035,20.251c-12.399-10.52-22.277-23.431-29.139-38.046h204.99
			C348.209,345.308,338.329,358.221,325.927,368.743z M365.461,291.462c-0.566,7.208-1.821,14.316-3.741,21.258H143.429
			c-1.92-6.942-3.175-14.05-3.741-21.258L365.461,291.462L365.461,291.462z"/>
	</g>
</g>
<g>
	<g>
		<path d="M491.496,136.688c12.502-12.502,19.387-29.123,19.387-46.803s-6.885-34.302-19.387-46.803L451.047,2.633
			C449.362,0.947,447.076,0,444.693,0s-4.67,0.947-6.355,2.633L397.89,43.081c-2.416,2.416-4.616,4.988-6.603,7.689
			C350.131,23.464,302.38,9.077,252.577,9.077C113.921,9.077,1.116,121.882,1.116,260.538s112.805,251.461,251.461,251.461
			c138.649,0,251.449-112.805,251.449-251.461c0-39.296-9.252-78.162-26.797-113.027
			C482.338,144.629,487.151,141.033,491.496,136.688z M410.599,55.791l34.094-34.094l34.094,34.094
			c9.107,9.107,14.122,21.214,14.122,34.094s-5.016,24.987-14.122,34.094c-18.799,18.799-49.387,18.8-68.187,0
			c-9.107-9.107-14.122-21.214-14.122-34.094S401.493,64.898,410.599,55.791z M486.052,260.539
			c0,128.745-104.736,233.487-233.475,233.487c-128.745,0-233.487-104.741-233.487-233.487S123.832,27.053,252.577,27.053
			c46.785,0,91.61,13.676,130.115,39.603c-2.743,7.331-4.189,15.167-4.189,23.229c0,17.68,6.885,34.302,19.387,46.803
			c12.906,12.906,29.852,19.357,46.804,19.356c5.298,0,10.595-0.631,15.769-1.892C477.223,186.883,486.052,223.506,486.052,260.539z
			"/>
	</g>
</g>
<g>
</g>
<g>
</g>
<g>
</g>
<g>
</g>
<g>
</g>
<g>
</g>
<g>
</g>
<g>
</g>
<g>
</g>
<g>
</g>
<g>
</g>
<g>
</g>
<g>
</g>
<g>
</g>
<g>
</g>
</svg>
