<?xml version="1.0" encoding="utf-8"?>
<!-- Generator: Adobe Illustrator 21.1.0, SVG Export Plug-In . SVG Version: 6.00 Build 0)  -->
<svg version="1.1" id="Layer_1" xmlns="http://www.w3.org/2000/svg" xmlns:xlink="http://www.w3.org/1999/xlink" x="0px" y="0px"
	 viewBox="0 0 512 512" style="enable-background:new 0 0 512 512;" xml:space="preserve">
<style type="text/css">
	.st0{fill:#836D95;}
	.st1{fill:#FFFFFF;}
</style>
<g>
	<g>
		<g>
			<path class="st0" d="M256,510.5C115.7,510.5,1.5,396.3,1.5,256C1.5,115.7,115.7,1.5,256,1.5c140.3,0,254.5,114.2,254.5,254.5
				C510.5,396.3,396.3,510.5,256,510.5z M256,21.6C126.8,21.6,21.6,126.8,21.6,256c0,129.2,105.1,234.4,234.4,234.4
				c129.2,0,234.4-105.1,234.4-234.4C490.4,126.8,385.2,21.6,256,21.6z"/>
			<path class="st1" d="M256,2.5c139.8,0,253.5,113.7,253.5,253.5c0,139.8-113.7,253.5-253.5,253.5C116.2,509.5,2.5,395.8,2.5,256
				C2.5,116.2,116.2,2.5,256,2.5 M256,491.4c129.8,0,235.4-105.6,235.4-235.4c0-129.8-105.6-235.4-235.4-235.4
				C126.2,20.6,20.6,126.2,20.6,256C20.6,385.8,126.2,491.4,256,491.4 M256,0.5C115.1,0.5,0.5,115.1,0.5,256
				c0,140.9,114.6,255.5,255.5,255.5c140.9,0,255.5-114.6,255.5-255.5C511.5,115.1,396.9,0.5,256,0.5L256,0.5z M256,489.4
				C127.3,489.4,22.6,384.7,22.6,256C22.6,127.3,127.3,22.6,256,22.6c128.7,0,233.4,104.7,233.4,233.4
				C489.4,384.7,384.7,489.4,256,489.4L256,489.4z"/>
		</g>
	</g>
</g>
<g>
	<g>
		<g>
			<path class="st0" d="M146.7,239.7c-19.2,0-34.9-15.6-34.9-34.9s15.6-34.9,34.9-34.9s34.9,15.6,34.9,34.9S165.9,239.7,146.7,239.7
				z"/>
			<path class="st1" d="M146.7,171c18.7,0,33.9,15.2,33.9,33.9c0,18.7-15.2,33.9-33.9,33.9s-33.9-15.2-33.9-33.9
				C112.9,186.2,128.1,171,146.7,171 M146.7,169c-19.8,0-35.9,16.1-35.9,35.9c0,19.8,16.1,35.9,35.9,35.9s35.9-16.1,35.9-35.9
				C182.6,185.1,166.5,169,146.7,169L146.7,169z"/>
		</g>
	</g>
</g>
<g>
	<g>
		<g>
			<path class="st0" d="M365.3,239.7c-19.2,0-34.9-15.6-34.9-34.9s15.6-34.9,34.9-34.9c19.2,0,34.9,15.6,34.9,34.9
				S384.5,239.7,365.3,239.7z"/>
			<path class="st1" d="M365.3,171c18.7,0,33.9,15.2,33.9,33.9s-15.2,33.9-33.9,33.9s-33.9-15.2-33.9-33.9
				C331.4,186.2,346.6,171,365.3,171 M365.3,169c-19.8,0-35.9,16.1-35.9,35.9c0,19.8,16.1,35.9,35.9,35.9s35.9-16.1,35.9-35.9
				C401.1,185.1,385,169,365.3,169L365.3,169z"/>
		</g>
	</g>
</g>
<g>
	<g>
		<g>
			<path class="st0" d="M252.3,408.3c-28.5,0-55.8-8.8-78.8-25.5c-22.8-16.5-39.7-39.3-48.7-65.9c-4.7-13.9-7.1-28.4-7.1-43.2
				c0-5.6,4.6-10.1,10.1-10.1h248.9c5.6,0,10.1,4.6,10.1,10.2c0,14.8-2.4,29.3-7.1,43.2c-9,26.6-25.8,49.4-48.7,65.9
				C308.1,399.5,280.9,408.3,252.3,408.3z M194.2,372.1c17.5,10.4,37.6,15.9,58.2,15.9c20.6,0,40.7-5.5,58.2-15.9
				c-7.5-7.6-17.8-11.9-28.3-11.9c-8.6,0-16.9,2.7-23.8,7.9c-1.8,1.3-3.9,2-6.1,2c-2.2,0-4.3-0.7-6.1-2c-6.9-5.1-15.1-7.9-23.8-7.9
				C211.9,360.2,201.6,364.5,194.2,372.1z M282.2,339.9c17.1,0,33.5,7.4,44.9,20.2c11.8-10.2,21.2-22.4,28-36.3H149.6
				c6.8,13.9,16.2,26.1,28,36.3c11.5-12.9,27.8-20.2,44.9-20.2c10.5,0,20.8,2.7,29.9,7.9C261.4,342.7,271.7,339.9,282.2,339.9z
				 M362.7,303.5c1.7-6.4,2.9-13,3.5-19.6H138.5c0.6,6.6,1.8,13.2,3.5,19.6H362.7z"/>
			<path class="st1" d="M376.8,264.6c5.1,0,9.1,4.1,9.1,9.2c0,14.7-2.4,29.1-7,42.9c-8.9,26.4-25.6,49-48.3,65.4
				c-22.9,16.6-49.9,25.3-78.2,25.3s-55.4-8.8-78.2-25.3c-22.7-16.4-39.4-39-48.3-65.4c-4.7-13.8-7-28.2-7-42.9
				c0-5.1,4.1-9.1,9.2-9.1H376.8 M141.2,304.5h222.2c2-7.1,3.2-14.3,3.8-21.6H137.4C138,290.2,139.3,297.4,141.2,304.5 M177.7,361.5
				c11.1-12.9,27.5-20.6,44.8-20.6c10.6,0,20.8,2.8,29.9,8.1c9-5.3,19.2-8.1,29.8-8.1c17.3,0,33.7,7.7,44.8,20.6
				c12.6-10.7,22.7-23.9,29.7-38.7H148C155,337.7,165,350.8,177.7,361.5 M252.3,369.1c-1.9,0-3.8-0.6-5.5-1.8
				c-7.1-5.3-15.5-8.1-24.4-8.1c-11.4,0-22.3,4.9-29.9,13.1c18,10.9,38.5,16.7,59.8,16.7c21.3,0,41.8-5.7,59.8-16.7
				c-7.7-8.2-18.5-13.1-29.9-13.1c-8.9,0-17.3,2.8-24.4,8.1C256.2,368.5,254.3,369.1,252.3,369.1 M376.8,262.6H127.9
				c-6.1,0-11.2,5-11.2,11.1c0,14.9,2.4,29.5,7.1,43.5c9.1,26.8,26,49.7,49,66.4c23.2,16.8,50.7,25.7,79.4,25.7
				c28.7,0,56.2-8.9,79.4-25.7c23-16.6,40-39.6,49-66.4c4.7-14,7.1-28.6,7.1-43.5C387.9,267.6,382.9,262.6,376.8,262.6L376.8,262.6z
				 M139.6,284.9h225.5c-0.6,5.9-1.6,11.9-3.2,17.6H142.8C141.2,296.7,140.2,290.8,139.6,284.9L139.6,284.9z M151.2,324.8h202.3
				c-6.5,12.9-15.3,24.3-26.3,33.9c-11.6-12.6-27.9-19.8-45-19.8c-10.5,0-20.8,2.7-29.8,7.8c-9.1-5.1-19.3-7.8-29.9-7.8
				c-17.1,0-33.4,7.2-45,19.8C166.5,349.1,157.7,337.7,151.2,324.8L151.2,324.8z M252.3,371.1c2.4,0,4.7-0.8,6.7-2.2
				c6.7-5,14.7-7.7,23.2-7.7c9.9,0,19.5,3.9,26.7,10.7c-17.1,9.9-36.6,15.1-56.5,15.1c-20,0-39.4-5.2-56.6-15.1
				c7.2-6.8,16.8-10.7,26.7-10.7c8.4,0,16.5,2.7,23.2,7.7C247.6,370.3,249.9,371.1,252.3,371.1L252.3,371.1z"/>
		</g>
	</g>
</g>
</svg>
