<?xml version="1.0" encoding="iso-8859-1"?>
<!-- Generator: Adobe Illustrator 19.0.0, SVG Export Plug-In . SVG Version: 6.00 Build 0)  -->
<svg version="1.1" id="Layer_1" xmlns="http://www.w3.org/2000/svg" xmlns:xlink="http://www.w3.org/1999/xlink" x="0px" y="0px"
	 viewBox="0 0 512 512" style="enable-background:new 0 0 512 512;" xml:space="preserve">
<g>
	<g>
		<path d="M255.999,0C114.841,0,0,114.841,0,256.001S114.841,512,255.999,512C397.16,512,512,397.16,512,256.001
			S397.159,0,255.999,0z M255.999,493.702c-131.068,0-237.7-106.632-237.7-237.702s106.632-237.702,237.7-237.702
			c131.069,0,237.702,106.632,237.702,237.702S387.068,493.702,255.999,493.702z"/>
	</g>
</g>
<g>
	<g>
		<path d="M442.829,266.377c-3.573-3.573-9.365-3.573-12.94,0c-95.882,95.884-251.897,95.884-347.78,0
			c-3.572-3.573-9.365-3.573-12.939,0c-3.573,3.572-3.573,9.365,0,12.939c49.904,49.904,116.254,77.387,186.829,77.387
			s136.926-27.484,186.83-77.387C446.403,275.744,446.403,269.951,442.829,266.377z"/>
	</g>
</g>
<g>
	<g>
		<path d="M321.969,374.546c-1.364-4.865-6.412-7.701-11.28-6.34c-35.778,10.032-73.601,10.032-109.379,0
			c-4.864-1.363-9.917,1.475-11.281,6.34c-1.364,4.866,1.475,9.917,6.34,11.281c19.506,5.469,39.568,8.203,59.629,8.203
			c20.063,0,40.124-2.734,59.629-8.203C320.494,384.461,323.333,379.412,321.969,374.546z"/>
	</g>
</g>
<g>
	<g>
		<path d="M196.907,199.314c-35.732,0-68.325,9.143-87.187,24.459c-3.923,3.185-4.521,8.948-1.336,12.87
			c1.809,2.226,4.447,3.382,7.109,3.382c2.026,0,4.066-0.67,5.762-2.046c15.704-12.752,43.986-20.366,75.652-20.366
			c5.053,0,9.15-4.097,9.15-9.15S201.96,199.314,196.907,199.314z"/>
	</g>
</g>
<g>
	<g>
		<path d="M402.279,223.771c-18.861-15.315-51.455-24.459-87.187-24.459c-5.054,0-9.15,4.097-9.15,9.15s4.095,9.15,9.15,9.15
			c31.666,0,59.947,7.614,75.652,20.366c1.696,1.377,3.735,2.047,5.762,2.047c2.662,0,5.301-1.155,7.109-3.383
			C406.8,232.718,406.202,226.956,402.279,223.771z"/>
	</g>
</g>
<g>
</g>
<g>
</g>
<g>
</g>
<g>
</g>
<g>
</g>
<g>
</g>
<g>
</g>
<g>
</g>
<g>
</g>
<g>
</g>
<g>
</g>
<g>
</g>
<g>
</g>
<g>
</g>
<g>
</g>
</svg>
