<?xml version="1.0" encoding="utf-8"?>
<!-- Generator: Adobe Illustrator 21.1.0, SVG Export Plug-In . SVG Version: 6.00 Build 0)  -->
<svg version="1.1" id="Layer_1" xmlns="http://www.w3.org/2000/svg" xmlns:xlink="http://www.w3.org/1999/xlink" x="0px" y="0px"
	 viewBox="0 0 512 512" style="enable-background:new 0 0 512 512;" xml:space="preserve">
<style type="text/css">
	.st0{fill:#836D95;}
	.st1{fill:#FFFFFF;}
</style>
<g>
	<g>
		<g>
			<path class="st0" d="M256,510.5C115.7,510.5,1.5,396.3,1.5,256S115.7,1.5,256,1.5c140.3,0,254.5,114.2,254.5,254.5
				S396.3,510.5,256,510.5z M256,21.6C126.8,21.6,21.6,126.8,21.6,256c0,129.2,105.1,234.4,234.4,234.4
				c129.2,0,234.4-105.1,234.4-234.4C490.4,126.8,385.2,21.6,256,21.6z"/>
			<path class="st1" d="M256,2.5c139.8,0,253.5,113.7,253.5,253.5c0,139.8-113.7,253.5-253.5,253.5S2.5,395.8,2.5,256
				S116.2,2.5,256,2.5 M256,491.4c129.8,0,235.4-105.6,235.4-235.4c0-129.8-105.6-235.4-235.4-235.4S20.6,126.2,20.6,256
				S126.2,491.4,256,491.4 M256,0.5C115.1,0.5,0.5,115.1,0.5,256S115.1,511.5,256,511.5c140.9,0,255.5-114.6,255.5-255.5
				C511.5,115.1,396.9,0.5,256,0.5L256,0.5z M256,489.4C127.3,489.4,22.6,384.7,22.6,256C22.6,127.3,127.3,22.6,256,22.6
				S489.4,127.3,489.4,256C489.4,384.7,384.7,489.4,256,489.4L256,489.4z"/>
		</g>
	</g>
</g>
<g>
	<g>
		<g>
			<path class="st0" d="M256,366.3c-52.1,0-101-20.2-137.7-57c-1.9-1.9-3-4.5-3-7.2c0-2.7,1.1-5.3,3-7.2s4.5-3,7.2-3
				c2.7,0,5.3,1.1,7.2,3c32.9,32.9,76.7,51,123.4,51c0,0,0,0,0,0c46.7,0,90.5-18.1,123.4-51c1.9-1.9,4.5-3,7.2-3
				c2.7,0,5.3,1.1,7.2,3c1.9,1.9,3,4.5,3,7.2c0,2.7-1.1,5.3-3,7.2C357,346.1,308.1,366.3,256,366.3z"/>
			<path class="st1" d="M386.6,293c2.3,0,4.7,0.9,6.5,2.7c3.6,3.6,3.6,9.4,0,12.9c-37.8,37.8-87.4,56.7-137,56.7
				c-49.6,0-99.3-18.9-137-56.7c-3.6-3.6-3.6-9.4,0-12.9c1.8-1.8,4.1-2.7,6.5-2.7c2.3,0,4.7,0.9,6.5,2.7
				C166.1,329.9,211,347,256,347c44.9,0,89.9-17.1,124.1-51.3C381.9,293.9,384.2,293,386.6,293 M386.6,291c-3,0-5.8,1.2-7.9,3.3
				c-16.5,16.5-35.8,29.3-57.4,38.1c-20.8,8.4-42.8,12.7-65.3,12.7c-22.6,0-44.5-4.3-65.3-12.7c-21.5-8.7-40.8-21.5-57.4-38.1
				c-2.1-2.1-4.9-3.3-7.9-3.3c-3,0-5.8,1.2-7.9,3.3c-2.1,2.1-3.3,4.9-3.3,7.9c0,3,1.2,5.8,3.3,7.9c18.7,18.7,40.4,33.1,64.7,42.9
				c23.5,9.5,48.3,14.3,73.7,14.3c25.4,0,50.2-4.8,73.7-14.3c24.3-9.8,46.1-24.3,64.7-42.9c2.1-2.1,3.3-4.9,3.3-7.9
				c0-3-1.2-5.8-3.3-7.9C392.3,292.2,389.5,291,386.6,291L386.6,291z"/>
		</g>
	</g>
</g>
<g>
	<g>
		<g>
			<path class="st0" d="M256,401.8c-14.9,0-29.8-2-44.1-6.1c-5.4-1.5-8.5-7.1-7-12.5c1.2-4.4,5.2-7.4,9.8-7.4c0.9,0,1.8,0.1,2.7,0.4
				c12.6,3.5,25.6,5.3,38.6,5.3s26.1-1.8,38.6-5.3c0.9-0.3,1.8-0.4,2.7-0.4c4.5,0,8.5,3,9.8,7.4c0.7,2.6,0.4,5.3-0.9,7.7
				c-1.3,2.4-3.5,4.1-6.1,4.8C285.8,399.8,270.9,401.8,256,401.8z"/>
			<path class="st1" d="M214.6,376.8c0.8,0,1.7,0.1,2.5,0.3c12.7,3.6,25.8,5.4,38.9,5.4c13.1,0,26.2-1.8,38.9-5.4
				c0.8-0.2,1.7-0.3,2.5-0.3c4,0,7.7,2.6,8.8,6.7c1.4,4.9-1.5,9.9-6.3,11.3c-14.3,4-29.1,6-43.8,6c-14.8,0-29.5-2-43.8-6
				c-4.9-1.4-7.7-6.4-6.3-11.3C206.9,379.5,210.6,376.8,214.6,376.8 M214.6,374.8C214.6,374.8,214.6,374.8,214.6,374.8
				c-5,0-9.4,3.3-10.7,8.1c-1.7,5.9,1.8,12.1,7.7,13.7c14.5,4.1,29.4,6.1,44.4,6.1c15,0,29.9-2.1,44.4-6.1c2.9-0.8,5.3-2.7,6.7-5.3
				c1.5-2.6,1.8-5.6,1-8.5c-1.3-4.8-5.8-8.1-10.7-8.1c-1,0-2,0.1-3,0.4c-12.5,3.5-25.4,5.3-38.4,5.3c-13,0-25.9-1.8-38.4-5.3
				C216.6,375,215.6,374.8,214.6,374.8L214.6,374.8L214.6,374.8z"/>
		</g>
	</g>
</g>
<g>
	<g>
		<g>
			<path class="st0" d="M146.7,233c-19.2,0-34.9-15.6-34.9-34.9s15.6-34.9,34.9-34.9s34.9,15.6,34.9,34.9S165.9,233,146.7,233z"/>
			<path class="st1" d="M146.7,164.3c18.7,0,33.9,15.2,33.9,33.9c0,18.7-15.2,33.9-33.9,33.9c-18.7,0-33.9-15.2-33.9-33.9
				S128.1,164.3,146.7,164.3 M146.7,162.3c-19.8,0-35.9,16.1-35.9,35.9S127,234,146.7,234s35.9-16.1,35.9-35.9
				C182.6,178.4,166.5,162.3,146.7,162.3L146.7,162.3z"/>
		</g>
	</g>
</g>
<g>
	<g>
		<g>
			<path class="st0" d="M365.3,233c-19.2,0-34.9-15.6-34.9-34.9s15.6-34.9,34.9-34.9c19.2,0,34.9,15.6,34.9,34.9
				S384.5,233,365.3,233z"/>
			<path class="st1" d="M365.3,164.3c18.7,0,33.9,15.2,33.9,33.9S383.9,232,365.3,232s-33.9-15.2-33.9-33.9S346.6,164.3,365.3,164.3
				 M365.3,162.3c-19.8,0-35.9,16.1-35.9,35.9s16.1,35.9,35.9,35.9s35.9-16.1,35.9-35.9S385,162.3,365.3,162.3L365.3,162.3z"/>
		</g>
	</g>
</g>
</svg>
