<?xml version="1.0" encoding="iso-8859-1"?>
<!-- Generator: Adobe Illustrator 19.0.0, SVG Export Plug-In . SVG Version: 6.00 Build 0)  -->
<svg version="1.1" id="Layer_1" xmlns="http://www.w3.org/2000/svg" xmlns:xlink="http://www.w3.org/1999/xlink" x="0px" y="0px"
	 viewBox="0 0 512 512" style="enable-background:new 0 0 512 512;" xml:space="preserve">
<g>
	<g>
		<path d="M255.999,0C114.841,0,0,114.841,0,256.001S114.841,512,255.999,512C397.16,512,512,397.16,512,255.999
			C512,114.841,397.159,0,255.999,0z M255.999,493.702c-131.068,0-237.7-106.632-237.7-237.702s106.632-237.702,237.7-237.702
			c131.069,0,237.702,106.632,237.702,237.702S387.068,493.702,255.999,493.702z"/>
	</g>
</g>
<g>
	<g>
		<path d="M206.504,187.716c-11.6-19.415-32.028-31.007-54.646-31.007s-43.046,11.591-54.646,31.007
			c-2.591,4.338-1.176,9.955,3.162,12.547c4.341,2.591,9.956,1.175,12.547-3.162c8.265-13.835,22.821-22.094,38.937-22.094
			c16.115,0,30.672,8.26,38.937,22.094c1.713,2.868,4.749,4.459,7.864,4.459c1.597,0,3.215-0.418,4.683-1.297
			C207.68,197.672,209.096,192.054,206.504,187.716z"/>
	</g>
</g>
<g>
	<g>
		<path d="M414.788,187.716c-11.602-19.417-32.029-31.007-54.647-31.007c-22.617,0-43.044,11.592-54.645,31.007
			c-2.591,4.338-1.176,9.956,3.162,12.547c4.338,2.591,9.957,1.176,12.547-3.162c8.265-13.834,22.82-22.094,38.936-22.094
			c16.117,0,30.673,8.26,38.938,22.094c1.713,2.868,4.748,4.459,7.862,4.459c1.597,0,3.215-0.418,4.685-1.297
			C415.964,197.67,417.379,192.054,414.788,187.716z"/>
	</g>
</g>
<g>
	<g>
		<path d="M334.126,275.582c-5.054,0-9.15,4.097-9.15,9.15c0,16.494-13.418,29.913-29.913,29.913
			c-16.495,0-29.914-13.418-29.914-29.913c0-5.053-4.095-9.15-9.15-9.15c-5.053,0-9.15,4.097-9.15,9.15
			c0,16.494-13.419,29.913-29.914,29.913s-29.914-13.418-29.914-29.913c0-5.053-4.097-9.15-9.15-9.15s-9.15,4.097-9.15,9.15
			c0,26.584,21.628,48.212,48.213,48.212c16.051,0,30.296-7.886,39.064-19.984c8.769,12.099,23.013,19.984,39.064,19.984
			c26.584,0,48.212-21.627,48.212-48.212C343.275,279.678,339.18,275.582,334.126,275.582z"/>
	</g>
</g>
<g>
</g>
<g>
</g>
<g>
</g>
<g>
</g>
<g>
</g>
<g>
</g>
<g>
</g>
<g>
</g>
<g>
</g>
<g>
</g>
<g>
</g>
<g>
</g>
<g>
</g>
<g>
</g>
<g>
</g>
</svg>
