<?xml version="1.0" encoding="utf-8"?>
<!-- Generator: Adobe Illustrator 21.1.0, SVG Export Plug-In . SVG Version: 6.00 Build 0)  -->
<svg version="1.1" id="Layer_1" xmlns="http://www.w3.org/2000/svg" xmlns:xlink="http://www.w3.org/1999/xlink" x="0px" y="0px"
	 viewBox="0 0 512 512" style="enable-background:new 0 0 512 512;" xml:space="preserve">
<style type="text/css">
	.st0{fill:#836D95;}
	.st1{fill:#FFFFFF;}
</style>
<g>
	<g>
		<g>
			<path class="st0" d="M180.9,195.5c-6.1,0-11.1-5-11.1-11.1c0-20.8-16.9-37.7-37.7-37.7c-20.8,0-37.7,16.9-37.7,37.7
				c0,6.1-5,11.1-11.1,11.1s-11.1-5-11.1-11.1c0-33.1,26.9-60,60-60c33.1,0,60,26.9,60,60C192,190.5,187,195.5,180.9,195.5z"/>
			<path class="st1" d="M132,126.4c32,0,58,26,58,58c0,5.1-4.1,9.1-9.2,9.1c-5.1,0-9.1-4.1-9.1-9.1c0-21.9-17.8-39.7-39.7-39.7
				s-39.7,17.8-39.7,39.7c0,5.1-4.1,9.1-9.2,9.1s-9.2-4.1-9.2-9.1C74.1,152.4,100.1,126.4,132,126.4 M132,122.4
				c-34.2,0-62,27.8-62,62c0,7.3,5.9,13.1,13.2,13.1s13.2-5.9,13.2-13.1c0-19.7,16-35.7,35.7-35.7s35.7,16,35.7,35.7
				c0,7.3,5.9,13.1,13.1,13.1c7.3,0,13.2-5.9,13.2-13.1C194,150.2,166.2,122.4,132,122.4L132,122.4z"/>
		</g>
	</g>
</g>
<g>
	<g>
		<g>
			<path class="st0" d="M428.8,195.5c-6.1,0-11.1-5-11.1-11.1c0-20.8-16.9-37.7-37.7-37.7s-37.7,16.9-37.7,37.7
				c0,6.1-5,11.1-11.2,11.1c-6.1,0-11.1-5-11.1-11.1c0-33.1,26.9-60,60-60s60,26.9,60,60C439.9,190.5,434.9,195.5,428.8,195.5z"/>
			<path class="st1" d="M380,126.4c32,0,58,26,58,58c0,5.1-4.1,9.1-9.1,9.1s-9.1-4.1-9.1-9.1c0-21.9-17.8-39.7-39.7-39.7
				s-39.7,17.8-39.7,39.7c0,5.1-4.1,9.1-9.1,9.1s-9.1-4.1-9.1-9.1C322,152.4,348,126.4,380,126.4 M380,122.4c-34.2,0-62,27.8-62,62
				c0,7.3,5.9,13.1,13.1,13.1c7.3,0,13.1-5.9,13.1-13.1c0-19.7,16-35.7,35.7-35.7s35.7,16,35.7,35.7c0,7.3,5.9,13.1,13.1,13.1
				c7.3,0,13.1-5.9,13.1-13.1C441.9,150.2,414.1,122.4,380,122.4L380,122.4z"/>
		</g>
	</g>
</g>
<g>
	<g>
		<g>
			<path class="st0" d="M256,400.5c-29.4,0-58.1-10.2-80.9-28.7c-30.2-24.5-47.5-60.8-47.5-99.7v-56.7c0-4.5,2.7-8.6,6.9-10.3
				c1.4-0.6,2.8-0.8,4.3-0.8c3,0,5.8,1.2,7.9,3.3c29.2,29.2,68.1,45.3,109.4,45.3c41.3,0,80.2-16.1,109.4-45.3
				c2.1-2.1,4.9-3.3,7.9-3.3c1.5,0,2.9,0.3,4.3,0.8c4.2,1.7,6.9,5.8,6.9,10.3V272c0,34.3-13.4,66.6-37.6,90.8
				c-3.1,3.1-6.4,6.1-9.9,8.9C314.1,390.3,285.4,400.5,256,400.5z M197.5,360.6c17.4,11.5,37.6,17.6,58.5,17.6
				c20.9,0,41.1-6.1,58.5-17.6c-7.4-8-17.7-12.6-28.6-12.6c-8.4,0-16.4,2.7-23.2,7.7c-1.9,1.4-4.2,2.2-6.7,2.2
				c-2.4,0-4.7-0.8-6.7-2.2c-6.7-5-14.8-7.7-23.2-7.7C215.2,348,204.9,352.6,197.5,360.6z M150.4,282.9c2.4,24,12.9,46.3,29.9,63.5
				c11.6-13.2,28.2-20.7,45.9-20.7c10.5,0,20.8,2.7,29.9,7.8c9.1-5.1,19.3-7.8,29.8-7.8c17.7,0,34.2,7.5,45.9,20.7
				c16.9-17.2,27.4-39.6,29.9-63.5c-30.3,22.5-67.6,34.8-105.6,34.8C218,317.7,180.7,305.4,150.4,282.9z M149.9,253.4
				c28.8,27.1,66.4,42.1,106.1,42.1s77.4-14.9,106.1-42.1l0-13.6C331.4,262.9,294.8,275,256,275c-38.8,0-75.4-12.2-106.1-35.3V253.4
				z"/>
			<path class="st1" d="M138.7,206.2c2.4,0,4.7,0.9,6.5,2.7c29.6,29.6,69,45.9,110.8,45.9s81.2-16.3,110.8-45.9
				c1.7-1.8,4.1-2.7,6.5-2.7c1.2,0,2.4,0.2,3.5,0.7c3.4,1.4,5.6,4.8,5.6,8.5V272c0,33.8-13.2,65.5-37,89.4c-3,3-6.3,6-9.8,8.8
				c-22.4,18.2-50.7,28.2-79.6,28.2c-28.9,0-57.2-10-79.6-28.2c-29.7-24.1-46.8-59.9-46.8-98.2v-56.7c0-3.7,2.2-7,5.6-8.5
				C136.3,206.4,137.5,206.2,138.7,206.2 M256,297.4c39,0,77.9-14.4,108.1-43.2h0v-18.5C333.4,259.9,295.7,273,256,273
				c-39.7,0-77.4-13.1-108.1-37.4v18.5C178.1,283,217,297.4,256,297.4 M180.4,349.3c11.1-13.6,27.8-21.6,45.7-21.6
				c10.6,0,20.8,2.8,29.9,8.1c9-5.3,19.2-8.1,29.8-8.1c17.9,0,34.6,8.1,45.7,21.6c0.3-0.3,0.6-0.6,0.9-0.8
				c18.9-18.9,29.9-43.5,31.5-69.9c-31.6,24.8-69.7,37.1-107.9,37.1c-38.2,0-76.4-12.4-107.9-37.2
				C149.7,305.5,161.2,330.6,180.4,349.3 M256,355.9c-1.9,0-3.8-0.6-5.5-1.8c-7.1-5.3-15.5-8.1-24.4-8.1c-12.4,0-23.9,5.6-31.6,15
				c18,12.4,39.5,19.2,61.4,19.2c0,0,0,0,0,0c22,0,43.5-6.8,61.4-19.2c-7.7-9.4-19.2-15-31.6-15c-8.9,0-17.3,2.8-24.4,8.1
				C259.8,355.3,257.9,355.9,256,355.9 M138.7,202.2C138.7,202.2,138.7,202.2,138.7,202.2c-1.7,0-3.4,0.3-5,1
				c-4.9,2-8.1,6.8-8.1,12.1V272c0,39.5,17.6,76.4,48.3,101.3c23.1,18.8,52.3,29.1,82.2,29.1c29.9,0,59-10.3,82.2-29.1
				c3.5-2.9,6.9-5.9,10.1-9.1c24.6-24.6,38.2-57.4,38.2-92.2v-56.7c0-5.3-3.2-10.1-8.1-12.1c-1.6-0.7-3.3-1-5-1
				c-3.5,0-6.8,1.4-9.3,3.9c-28.8,28.8-67.2,44.7-108,44.7c-40.8,0-79.1-15.9-108-44.7C145.5,203.5,142.2,202.2,138.7,202.2
				L138.7,202.2L138.7,202.2z M151.9,252.5v-8.8C182.2,265.5,218.1,277,256,277c37.9,0,73.8-11.5,104.1-33.3v8.8
				c-28.3,26.4-65.2,40.9-104.1,40.9C217.1,293.4,180.2,278.9,151.9,252.5L151.9,252.5z M180.3,343.5
				c-14.7-15.6-24.2-35.2-27.3-56.3c13.9,9.8,29.1,17.5,45.3,23c18.6,6.3,38,9.5,57.7,9.5c19.7,0,39.1-3.2,57.7-9.5
				c16.2-5.5,31.4-13.2,45.3-23c-3.1,21.1-12.6,40.7-27.3,56.3c-11.9-12.6-28.4-19.8-45.9-19.8c-10.5,0-20.7,2.6-29.8,7.5
				c-9.1-4.9-19.4-7.5-29.9-7.5C208.6,323.7,192.1,330.9,180.3,343.5L180.3,343.5z M256,359.9c2.9,0,5.6-0.9,7.9-2.6
				c6.4-4.8,14-7.3,22-7.3c9.6,0,18.7,3.7,25.5,10.2c-16.6,10.4-35.6,15.9-55.3,15.9c-19.7,0-38.7-5.5-55.3-15.9
				c6.8-6.5,15.9-10.2,25.5-10.2c8,0,15.6,2.5,22,7.3C250.4,359,253.2,359.9,256,359.9L256,359.9z"/>
		</g>
	</g>
</g>
<g>
	<g>
		<g>
			<path class="st0" d="M256,510C115.9,510,2,396.1,2,256C2,115.9,115.9,2,256,2c140.1,0,254,113.9,254,254
				C510,396.1,396.1,510,256,510z M256,24C128.1,24,24,128.1,24,256c0,127.9,104.1,232,232,232c127.9,0,232-104.1,232-232
				C488,128.1,383.9,24,256,24z"/>
			<path class="st1" d="M256,4c139,0,252,113,252,252c0,139-113,252-252,252C117,508,4,395,4,256S117,4,256,4 M256,490
				c129,0,234-105,234-234c0-129-105-234-234-234C127,22,22,127,22,256C22,385,127,490,256,490 M256,0C114.8,0,0,114.8,0,256
				c0,141.2,114.8,256,256,256c141.2,0,256-114.8,256-256C512,114.8,397.2,0,256,0L256,0z M256,486C129.2,486,26,382.8,26,256
				C26,129.2,129.2,26,256,26c126.8,0,230,103.2,230,230C486,382.8,382.8,486,256,486L256,486z"/>
		</g>
	</g>
</g>
</svg>
