<?xml version="1.0" encoding="iso-8859-1"?>
<!-- Generator: Adobe Illustrator 19.0.0, SVG Export Plug-In . SVG Version: 6.00 Build 0)  -->
<svg version="1.1" id="Layer_1" xmlns="http://www.w3.org/2000/svg" xmlns:xlink="http://www.w3.org/1999/xlink" x="0px" y="0px"
	 viewBox="0 0 512 512" style="enable-background:new 0 0 512 512;" xml:space="preserve">
<g>
	<g>
		<path d="M255.999,0C114.841,0,0,114.841,0,255.999C0,397.159,114.841,512,255.999,512C397.159,512,512,397.159,512,255.999
			C512,114.841,397.159,0,255.999,0z M255.999,493.701c-131.068,0-237.7-106.632-237.7-237.702c0-131.068,106.632-237.7,237.7-237.7
			c131.069,0,237.702,106.632,237.702,237.7C493.701,387.068,387.068,493.701,255.999,493.701z"/>
	</g>
</g>
<g>
	<g>
		<path d="M414.038,131.281c-8.94-8.94-20.826-13.863-33.469-13.863c-9.792,0-19.132,2.953-26.998,8.441
			c-7.867-5.487-17.206-8.441-27-8.441c-12.643,0-24.529,4.924-33.469,13.863c-8.94,8.94-13.863,20.826-13.863,33.469
			c0,12.643,4.924,24.529,13.863,33.469l53.998,53.998c1.786,1.787,4.128,2.68,6.469,2.68c2.341,0,4.683-0.893,6.469-2.68
			l53.998-53.998C432.492,179.763,432.492,149.735,414.038,131.281z M401.098,185.28l-47.529,47.529L306.04,185.28
			c-5.484-5.484-8.504-12.774-8.504-20.529s3.021-15.046,8.504-20.529c5.484-5.484,12.774-8.503,20.529-8.503
			c7.755,0,15.045,3.021,20.53,8.504c1.716,1.715,4.043,2.68,6.469,2.68s4.754-0.964,6.469-2.68
			c5.484-5.484,12.774-8.503,20.529-8.503c7.755,0,15.046,3.021,20.53,8.503C412.418,155.54,412.418,173.958,401.098,185.28z"/>
	</g>
</g>
<g>
	<g>
		<path d="M218.9,131.28c-8.94-8.94-20.826-13.863-33.469-13.863c-9.794,0-19.132,2.953-27,8.441
			c-7.867-5.487-17.206-8.441-26.998-8.441c-12.643,0-24.529,4.924-33.469,13.863c-18.454,18.455-18.454,48.483,0,66.938
			l53.998,53.998c1.786,1.787,4.127,2.68,6.469,2.68c2.341,0,4.683-0.893,6.469-2.68l53.999-53.998
			C237.354,179.763,237.354,149.735,218.9,131.28z M205.96,185.28l-47.529,47.529l-47.529-47.529c-11.32-11.321-11.32-29.74,0-41.06
			c5.484-5.484,12.774-8.503,20.529-8.503c7.755,0,15.045,3.021,20.529,8.503c1.715,1.715,4.043,2.68,6.471,2.68
			c2.426,0,4.754-0.964,6.469-2.68c5.484-5.484,12.774-8.503,20.529-8.503c7.755,0,15.046,3.021,20.53,8.503
			C217.28,155.54,217.28,173.958,205.96,185.28z"/>
	</g>
</g>
<g>
	<g>
		<path d="M380.434,272.504H131.567c-5.053,0-9.15,4.097-9.15,9.15c0,14.662,2.367,29.087,7.034,42.876
			c8.934,26.382,25.642,48.998,48.314,65.4c22.862,16.557,49.915,25.309,78.235,25.309c28.32,0,55.373-8.752,78.23-25.305
			c22.676-16.404,39.386-39.02,48.319-65.402v-0.001c4.667-13.788,7.034-28.214,7.034-42.875
			C389.584,276.601,385.487,272.504,380.434,272.504z M256.001,396.938c-21.321,0-41.802-5.747-59.778-16.696
			c7.649-8.21,18.5-13.083,29.926-13.083c8.87,0,17.302,2.79,24.385,8.069c3.244,2.417,7.69,2.418,10.934,0
			c7.082-5.279,15.51-8.069,24.372-8.069c11.421,0,22.274,4.871,29.932,13.085C297.801,391.191,277.319,396.938,256.001,396.938z
			 M330.677,369.481c-11.137-12.9-27.534-20.621-44.838-20.621c-10.623,0-20.819,2.772-29.84,8.066
			c-9.021-5.296-19.221-8.066-29.852-8.066c-17.31,0-33.707,7.722-44.83,20.617c-12.623-10.71-22.68-23.855-29.665-38.733h208.694
			C353.362,345.623,343.303,358.77,330.677,369.481z M367.118,312.445H144.882c-1.954-7.067-3.233-14.303-3.809-21.642h229.852
			C370.35,298.142,369.072,305.378,367.118,312.445z"/>
	</g>
</g>
<g>
</g>
<g>
</g>
<g>
</g>
<g>
</g>
<g>
</g>
<g>
</g>
<g>
</g>
<g>
</g>
<g>
</g>
<g>
</g>
<g>
</g>
<g>
</g>
<g>
</g>
<g>
</g>
<g>
</g>
</svg>
