<?xml version="1.0" encoding="iso-8859-1"?>
<!-- Generator: Adobe Illustrator 19.0.0, SVG Export Plug-In . SVG Version: 6.00 Build 0)  -->
<svg version="1.1" id="Layer_1" xmlns="http://www.w3.org/2000/svg" xmlns:xlink="http://www.w3.org/1999/xlink" x="0px" y="0px"
	 viewBox="0 0 512 512" style="enable-background:new 0 0 512 512;" xml:space="preserve">
<g>
	<g>
		<path d="M255.999,0C114.841,0,0,114.841,0,256.001S114.841,512,255.999,512C397.159,512,512,397.16,512,256.001
			S397.159,0,255.999,0z M255.999,493.702c-131.068,0-237.7-106.632-237.7-237.702s106.632-237.702,237.7-237.702
			c131.069,0,237.702,106.632,237.702,237.702S387.068,493.702,255.999,493.702z"/>
	</g>
</g>
<g>
	<g>
		<path d="M206.505,228.673c-11.6-19.415-32.028-31.007-54.646-31.007s-43.046,11.591-54.646,31.007
			c-2.591,4.338-1.176,9.955,3.162,12.547c4.341,2.592,9.956,1.176,12.547-3.162c8.265-13.834,22.821-22.094,38.937-22.094
			c16.115,0,30.672,8.26,38.937,22.094c1.713,2.867,4.749,4.458,7.864,4.458c1.596,0,3.213-0.418,4.683-1.296
			C207.681,238.629,209.098,233.011,206.505,228.673z"/>
	</g>
</g>
<g>
	<g>
		<path d="M414.787,228.673c-11.6-19.415-32.028-31.007-54.646-31.007c-22.618,0-43.046,11.591-54.646,31.007
			c-2.591,4.338-1.176,9.955,3.162,12.547c4.339,2.592,9.956,1.176,12.547-3.162c8.265-13.834,22.821-22.094,38.937-22.094
			c16.115,0,30.672,8.26,38.937,22.094c1.713,2.867,4.749,4.458,7.864,4.458c1.597,0,3.215-0.418,4.683-1.296
			C415.963,238.629,417.379,233.011,414.787,228.673z"/>
	</g>
</g>
<g>
	<g>
		<path d="M297.657,331.021c7.986-6.901,13.046-17.099,13.046-28.456c0-20.735-16.869-37.605-37.606-37.605
			c-5.053,0-9.15,4.097-9.15,9.15c0,5.053,4.097,9.15,9.15,9.15c10.646,0,19.307,8.66,19.307,19.306
			c0,10.645-8.66,19.307-19.307,19.307c-5.053,0-9.15,4.097-9.15,9.15s4.097,9.15,9.15,9.15c10.646,0,19.307,8.662,19.307,19.307
			s-8.66,19.306-19.307,19.306c-5.053,0-9.15,4.097-9.15,9.15s4.097,9.15,9.15,9.15c20.735,0,37.605-16.869,37.606-37.605
			C310.703,348.119,305.642,337.922,297.657,331.021z"/>
	</g>
</g>
<g>
	<g>
		<path d="M463.682,299.272c-10.753-20.596-34.635-29.985-56.07-23.278c-13.757-17.753-38.721-23.699-59.315-12.947
			c-23.135,12.081-32.13,40.731-20.05,63.865l35.345,67.693c1.124,2.152,3.056,3.768,5.37,4.495c0.895,0.281,1.82,0.42,2.741,0.42
			c1.46,0,2.914-0.35,4.233-1.038l67.694-35.345C466.767,351.056,475.76,322.407,463.682,299.272z M435.162,346.915l-59.583,31.111
			l-31.11-59.583c-7.41-14.19-1.892-31.764,12.298-39.173c4.281-2.235,8.867-3.294,13.39-3.294c10.476,0,20.608,5.68,25.783,15.592
			c2.34,4.48,7.866,6.214,12.346,3.876c14.19-7.41,31.764-1.893,39.173,12.298C454.869,321.932,449.352,339.505,435.162,346.915z"/>
	</g>
</g>
<g>
</g>
<g>
</g>
<g>
</g>
<g>
</g>
<g>
</g>
<g>
</g>
<g>
</g>
<g>
</g>
<g>
</g>
<g>
</g>
<g>
</g>
<g>
</g>
<g>
</g>
<g>
</g>
<g>
</g>
</svg>
