<?xml version="1.0" encoding="utf-8"?>
<!-- Generator: Adobe Illustrator 21.1.0, SVG Export Plug-In . SVG Version: 6.00 Build 0)  -->
<svg version="1.1" id="Layer_1" xmlns="http://www.w3.org/2000/svg" xmlns:xlink="http://www.w3.org/1999/xlink" x="0px" y="0px"
	 viewBox="0 0 512 512" style="enable-background:new 0 0 512 512;" xml:space="preserve">
<style type="text/css">
	.st0{fill:#836D95;}
	.st1{fill:#FFFFFF;}
</style>
<g>
	<g>
		<g>
			<path class="st0" d="M256,510.5C115.7,510.5,1.5,396.3,1.5,256C1.5,115.7,115.7,1.5,256,1.5c140.3,0,254.5,114.2,254.5,254.5
				C510.5,396.3,396.3,510.5,256,510.5z M256,21.6C126.8,21.6,21.6,126.8,21.6,256S126.8,490.4,256,490.4
				c129.2,0,234.4-105.1,234.4-234.4C490.4,126.8,385.2,21.6,256,21.6z"/>
			<path class="st1" d="M256,2.5c139.8,0,253.5,113.7,253.5,253.5c0,139.8-113.7,253.5-253.5,253.5S2.5,395.8,2.5,256
				S116.2,2.5,256,2.5 M256,491.4c129.8,0,235.4-105.6,235.4-235.4c0-129.8-105.6-235.4-235.4-235.4C126.2,20.6,20.6,126.2,20.6,256
				S126.2,491.4,256,491.4 M256,0.5C115.1,0.5,0.5,115.1,0.5,256c0,140.9,114.6,255.5,255.5,255.5c140.9,0,255.5-114.6,255.5-255.5
				C511.5,115.1,396.9,0.5,256,0.5L256,0.5z M256,489.4C127.3,489.4,22.6,384.7,22.6,256C22.6,127.3,127.3,22.6,256,22.6
				c128.7,0,233.4,104.7,233.4,233.4C489.4,384.7,384.7,489.4,256,489.4L256,489.4z"/>
		</g>
	</g>
</g>
<g>
	<g>
		<g>
			<path class="st0" d="M105.1,243.5c-1.8,0-3.6-0.5-5.2-1.4c-4.8-2.9-6.4-9.1-3.5-13.9c11.8-19.7,32.5-31.5,55.5-31.5
				c23,0,43.7,11.8,55.5,31.5c2.9,4.8,1.3,11-3.5,13.9c-1.6,0.9-3.4,1.4-5.2,1.4c-3.6,0-6.9-1.9-8.7-4.9
				c-8.1-13.5-22.3-21.6-38.1-21.6c-15.8,0-30,8.1-38.1,21.6C112,241.6,108.6,243.5,105.1,243.5z"/>
			<path class="st1" d="M151.9,197.7c22.6,0,43,11.6,54.6,31c2.6,4.3,1.2,10-3.2,12.5c-1.5,0.9-3.1,1.3-4.7,1.3
				c-3.1,0-6.1-1.6-7.9-4.5c-8.3-13.8-22.8-22.1-38.9-22.1c-16.1,0-30.7,8.3-38.9,22.1c-1.7,2.9-4.7,4.5-7.9,4.5
				c-1.6,0-3.2-0.4-4.7-1.3c-4.3-2.6-5.8-8.2-3.2-12.5C108.8,209.3,129.2,197.7,151.9,197.7 M151.9,195.7c-23.3,0-44.4,12-56.4,32
				c-3.2,5.3-1.4,12.1,3.9,15.3c1.7,1,3.7,1.6,5.7,1.6c3.9,0,7.6-2.1,9.6-5.4c7.9-13.2,21.8-21.1,37.2-21.1s29.3,7.9,37.2,21.1
				c2,3.4,5.7,5.4,9.6,5.4c2,0,4-0.5,5.7-1.6c2.6-1.5,4.4-4,5.1-6.8c0.7-2.9,0.3-5.9-1.2-8.4C196.3,207.6,175.2,195.7,151.9,195.7
				L151.9,195.7z"/>
		</g>
	</g>
</g>
<g>
	<g>
		<g>
			<path class="st0" d="M313.3,243.5c-1.8,0-3.6-0.5-5.2-1.4c-4.8-2.9-6.4-9.1-3.5-13.9c11.8-19.7,32.5-31.5,55.5-31.5
				s43.7,11.8,55.5,31.5c2.9,4.8,1.3,11-3.5,13.9c-1.6,0.9-3.4,1.4-5.2,1.4c-3.6,0-6.9-1.9-8.7-4.9c-8.1-13.5-22.3-21.6-38.1-21.6
				c-15.8,0-30,8.1-38.1,21.6C320.2,241.6,316.9,243.5,313.3,243.5z"/>
			<path class="st1" d="M360.1,197.7c22.6,0,43,11.6,54.6,31c2.6,4.3,1.2,10-3.2,12.5c-1.5,0.9-3.1,1.3-4.7,1.3
				c-3.1,0-6.1-1.6-7.9-4.5c-8.3-13.8-22.8-22.1-38.9-22.1c-16.1,0-30.7,8.3-38.9,22.1c-1.7,2.9-4.7,4.5-7.9,4.5
				c-1.6,0-3.2-0.4-4.7-1.3c-4.3-2.6-5.8-8.2-3.2-12.5C317.1,209.3,337.5,197.7,360.1,197.7 M360.1,195.7c-23.3,0-44.4,12-56.4,32
				c-3.2,5.3-1.4,12.1,3.9,15.3c1.7,1,3.7,1.6,5.7,1.6c3.9,0,7.6-2.1,9.6-5.4c7.9-13.2,21.8-21.1,37.2-21.1
				c15.4,0,29.3,7.9,37.2,21.1c2,3.4,5.7,5.4,9.6,5.4c2,0,4-0.5,5.7-1.6c2.6-1.5,4.4-4,5.1-6.8c0.7-2.9,0.3-5.9-1.2-8.4
				C404.5,207.6,383.5,195.7,360.1,195.7L360.1,195.7z"/>
		</g>
	</g>
</g>
<g>
	<g>
		<g>
			<path class="st0" d="M273.1,398.1c-5.6,0-10.1-4.6-10.1-10.2s4.6-10.1,10.1-10.1c10.1,0,18.3-8.2,18.3-18.3
				c0-10.1-8.2-18.3-18.3-18.3c-5.6,0-10.1-4.6-10.1-10.1s4.6-10.2,10.1-10.2c10.1,0,18.3-8.2,18.3-18.3s-8.2-18.3-18.3-18.3
				c-5.6,0-10.1-4.6-10.1-10.1s4.6-10.2,10.1-10.2c21.3,0,38.6,17.3,38.6,38.6c0,10.8-4.6,21.1-12.5,28.5c8,7.3,12.5,17.6,12.5,28.5
				c0,10.3-4,20-11.3,27.3S283.4,398.1,273.1,398.1z"/>
			<path class="st1" d="M273.1,265c20.7,0,37.6,16.9,37.6,37.6c0,11.4-5.1,21.6-13,28.5c8,6.9,13,17.1,13,28.5
				c0,20.7-16.9,37.6-37.6,37.6c-5.1,0-9.1-4.1-9.1-9.1s4.1-9.1,9.1-9.1c10.6,0,19.3-8.7,19.3-19.3s-8.7-19.3-19.3-19.3
				c-5.1,0-9.1-4.1-9.1-9.1s4.1-9.1,9.1-9.1c10.6,0,19.3-8.7,19.3-19.3c0-10.6-8.7-19.3-19.3-19.3c-5.1,0-9.1-4.1-9.1-9.1
				C263.9,269.1,268,265,273.1,265 M273.1,263c-6.1,0-11.1,5-11.1,11.1s5,11.1,11.1,11.1c9.5,0,17.3,7.8,17.3,17.3
				c0,9.5-7.8,17.3-17.3,17.3c-6.1,0-11.1,5-11.1,11.1s5,11.1,11.1,11.1c9.5,0,17.3,7.8,17.3,17.3c0,9.5-7.8,17.3-17.3,17.3
				c-6.1,0-11.1,5-11.1,11.1s5,11.1,11.1,11.1c10.6,0,20.5-4.1,28-11.6c7.5-7.5,11.6-17.4,11.6-28c0-10.8-4.4-21-12.1-28.5
				c7.7-7.5,12.1-17.7,12.1-28.5C312.7,280.7,294.9,263,273.1,263L273.1,263z"/>
		</g>
	</g>
</g>
</svg>
