<?xml version="1.0" encoding="iso-8859-1"?>
<!-- Generator: Adobe Illustrator 19.0.0, SVG Export Plug-In . SVG Version: 6.00 Build 0)  -->
<svg version="1.1" id="Layer_1" xmlns="http://www.w3.org/2000/svg" xmlns:xlink="http://www.w3.org/1999/xlink" x="0px" y="0px"
	 viewBox="0 0 512 512" style="enable-background:new 0 0 512 512;" xml:space="preserve">
<g>
	<g>
		<path d="M256.001,0C114.841,0,0,114.841,0,255.999C0,397.159,114.841,512,256.001,512C397.159,512,512,397.159,512,255.999
			C512,114.841,397.159,0,256.001,0z M256.001,493.701c-131.069,0-237.702-106.632-237.702-237.702
			c0-131.068,106.632-237.7,237.702-237.7c131.068,0,237.7,106.632,237.7,237.7C493.701,387.068,387.068,493.701,256.001,493.701z"
			/>
	</g>
</g>
<g>
	<g>
		<path d="M380.438,254.815H131.57c-5.053,0-9.15,4.097-9.15,9.15c0,14.661,2.367,29.087,7.034,42.876
			c8.291,24.485,23.287,45.716,43.529,61.758v4.173c0,45.776,37.241,83.017,83.017,83.017s83.017-37.241,83.017-83.017v-4.167
			c20.245-16.042,35.244-37.276,43.536-61.764c4.667-13.788,7.034-28.214,7.034-42.875
			C389.588,258.911,385.491,254.815,380.438,254.815z M320.718,372.772c0,35.686-29.032,64.718-64.718,64.718
			s-64.718-29.032-64.718-64.718v-3.74c7.381-12.08,20.689-19.562,34.866-19.562c7.384,0,14.451,1.96,20.702,5.653v33.275
			c0,5.053,4.097,9.15,9.15,9.15s9.15-4.097,9.15-9.15v-33.275c6.25-3.693,13.313-5.653,20.69-5.653
			c14.17,0,27.479,7.478,34.878,19.562V372.772z M330.679,351.794c-11.137-12.901-27.534-20.623-44.839-20.623
			c-10.624,0-20.819,2.77-29.84,8.066c-9.021-5.296-19.221-8.066-29.852-8.066c-17.309,0-33.705,7.721-44.828,20.615
			c-12.623-10.71-22.679-23.854-29.663-38.732h208.694C353.365,327.937,343.306,341.084,330.679,351.794z M367.121,294.756H144.886
			c-1.954-7.067-3.233-14.303-3.809-21.642H370.93C370.354,280.453,369.076,287.689,367.121,294.756z"/>
	</g>
</g>
<g>
	<g>
		<path d="M203.315,204.672l-54.287-38.174c-4.133-2.906-9.84-1.912-12.747,2.222c-2.906,4.133-1.912,9.84,2.221,12.747
			l35.988,25.306l-75.524,12.469c-4.986,0.823-8.36,5.532-7.537,10.518c0.739,4.481,4.619,7.66,9.017,7.66
			c0.495,0,0.997-0.04,1.502-0.123l97.595-16.113c3.666-0.605,6.602-3.367,7.429-6.989
			C207.8,210.573,206.355,206.809,203.315,204.672z"/>
	</g>
</g>
<g>
	<g>
		<path d="M413.032,219.243l-75.524-12.469l35.988-25.306c4.133-2.907,5.129-8.614,2.221-12.747
			c-2.907-4.134-8.615-5.129-12.747-2.221l-54.287,38.174c-3.04,2.137-4.484,5.9-3.657,9.523c0.827,3.623,3.764,6.384,7.429,6.989
			l97.595,16.113c0.505,0.083,1.006,0.123,1.502,0.123c4.397,0,8.276-3.179,9.017-7.66
			C421.394,224.774,418.018,220.065,413.032,219.243z"/>
	</g>
</g>
<g>
</g>
<g>
</g>
<g>
</g>
<g>
</g>
<g>
</g>
<g>
</g>
<g>
</g>
<g>
</g>
<g>
</g>
<g>
</g>
<g>
</g>
<g>
</g>
<g>
</g>
<g>
</g>
<g>
</g>
</svg>
