<?xml version="1.0" encoding="iso-8859-1"?>
<!-- Generator: Adobe Illustrator 19.0.0, SVG Export Plug-In . SVG Version: 6.00 Build 0)  -->
<svg version="1.1" id="Layer_1" xmlns="http://www.w3.org/2000/svg" xmlns:xlink="http://www.w3.org/1999/xlink" x="0px" y="0px"
	 viewBox="0 0 512.001 512.001" style="enable-background:new 0 0 512.001 512.001;" xml:space="preserve">
<g>
	<g>
		<path d="M256.001,0C114.842,0,0.001,114.841,0.001,256.001s114.841,256.001,256.001,256.001
			c141.158,0,255.999-114.841,255.999-256.001S397.159,0,256.001,0z M256.001,493.701c-131.069,0-237.702-106.631-237.702-237.7
			S124.932,18.299,256.001,18.299c131.068,0,237.7,106.632,237.7,237.702S387.069,493.701,256.001,493.701z"/>
	</g>
</g>
<g>
	<g>
		<path d="M146.725,209.658c-18.666,0-33.852,15.186-33.852,33.852s15.186,33.852,33.852,33.852
			c18.666,0,33.852-15.186,33.852-33.852C180.577,224.843,165.391,209.658,146.725,209.658z"/>
	</g>
</g>
<g>
	<g>
		<path d="M365.277,209.658c-18.666,0-33.852,15.186-33.852,33.852s15.186,33.852,33.852,33.852s33.852-15.186,33.852-33.852
			C399.129,224.843,383.942,209.658,365.277,209.658z"/>
	</g>
</g>
<g>
	<g>
		<path d="M316.696,373.017l-43.074-26.168l43.074-26.168c4.319-2.624,5.693-8.252,3.069-12.57c-2.623-4.317-8.25-5.693-12.57-3.069
			L256,336.143l-51.195-31.101c-4.319-2.623-9.946-1.249-12.57,3.069s-1.249,9.946,3.069,12.57l43.074,26.168l-43.074,26.168
			c-4.319,2.623-5.692,8.252-3.069,12.57c2.557,4.209,8.365,5.624,12.57,3.069L256,357.556c0,0,51.167,31.084,51.195,31.101
			c4.203,2.553,9.969,1.214,12.57-3.069C322.389,381.269,321.014,375.641,316.696,373.017z"/>
	</g>
</g>
<g>
	<g>
		<g>
			<circle cx="155.25" cy="235.997" r="9.15"/>
			<circle cx="373.619" cy="235.997" r="9.15"/>
		</g>
	</g>
</g>
<g>
</g>
<g>
</g>
<g>
</g>
<g>
</g>
<g>
</g>
<g>
</g>
<g>
</g>
<g>
</g>
<g>
</g>
<g>
</g>
<g>
</g>
<g>
</g>
<g>
</g>
<g>
</g>
<g>
</g>
</svg>
