<?xml version="1.0" encoding="utf-8"?>
<!-- Generator: Adobe Illustrator 21.1.0, SVG Export Plug-In . SVG Version: 6.00 Build 0)  -->
<svg version="1.1" id="Layer_1" xmlns="http://www.w3.org/2000/svg" xmlns:xlink="http://www.w3.org/1999/xlink" x="0px" y="0px"
	 viewBox="0 0 512 512" style="enable-background:new 0 0 512 512;" xml:space="preserve">
<style type="text/css">
	.st0{fill:#836D95;}
	.st1{fill:#FFFFFF;}
</style>
<g>
	<g>
		<g>
			<path class="st0" d="M256,510.5C115.7,510.5,1.5,396.3,1.5,256S115.7,1.5,256,1.5c140.3,0,254.5,114.2,254.5,254.5
				S396.3,510.5,256,510.5z M256,21.6C126.8,21.6,21.6,126.8,21.6,256c0,129.2,105.1,234.4,234.4,234.4
				c129.2,0,234.4-105.1,234.4-234.4C490.4,126.8,385.2,21.6,256,21.6z"/>
			<path class="st1" d="M256,2.5c139.8,0,253.5,113.7,253.5,253.5c0,139.8-113.7,253.5-253.5,253.5S2.5,395.8,2.5,256
				S116.2,2.5,256,2.5 M256,491.4c129.8,0,235.4-105.6,235.4-235.4c0-129.8-105.6-235.4-235.4-235.4S20.6,126.2,20.6,256
				S126.2,491.4,256,491.4 M256,0.5C115.1,0.5,0.5,115.1,0.5,256S115.1,511.5,256,511.5c140.9,0,255.5-114.6,255.5-255.5
				C511.5,115.1,396.9,0.5,256,0.5L256,0.5z M256,489.4C127.3,489.4,22.6,384.7,22.6,256C22.6,127.3,127.3,22.6,256,22.6
				S489.4,127.3,489.4,256C489.4,384.7,384.7,489.4,256,489.4L256,489.4z"/>
		</g>
	</g>
</g>
<g>
	<g>
		<g>
			<path class="st0" d="M163.8,358.4c-2.7,0-5.3-1.1-7.2-3c-4-4-4-10.4,0-14.4c26.9-26.9,62.6-41.7,100.6-41.7s73.7,14.8,100.6,41.7
				c4,4,4,10.4,0,14.4c-1.9,1.9-4.5,3-7.2,3c-2.7,0-5.3-1.1-7.2-3c-23-23-53.6-35.7-86.2-35.7s-63.2,12.7-86.2,35.7
				C169,357.3,166.5,358.4,163.8,358.4z"/>
			<path class="st1" d="M257.1,300.4c37.7,0,73.2,14.7,99.9,41.4c3.6,3.6,3.6,9.4,0,12.9c-1.8,1.8-4.1,2.7-6.5,2.7
				c-2.3,0-4.7-0.9-6.5-2.7c-23.2-23.2-54.1-36-86.9-36s-63.7,12.8-86.9,36c-1.8,1.8-4.1,2.7-6.5,2.7s-4.7-0.9-6.5-2.7
				c-3.6-3.6-3.6-9.4,0-12.9C184,315.1,219.4,300.4,257.1,300.4 M257.1,298.4c-38.3,0-74.2,14.9-101.3,42c-4.3,4.3-4.3,11.4,0,15.8
				c2.1,2.1,4.9,3.3,7.9,3.3c3,0,5.8-1.2,7.9-3.3c22.8-22.8,53.2-35.4,85.5-35.4s62.7,12.6,85.5,35.4c2.1,2.1,4.9,3.3,7.9,3.3
				c3,0,5.8-1.2,7.9-3.3c4.3-4.3,4.3-11.4,0-15.8C331.4,313.3,295.4,298.4,257.1,298.4L257.1,298.4z"/>
		</g>
	</g>
</g>
<g>
	<g>
		<g>
			<path class="st0" d="M287.1,365c-1.6,0-3.3-0.4-4.7-1.2c-8.1-4.2-17.2-6.5-26.4-6.5c-9.2,0-18.3,2.2-26.4,6.5
				c-1.4,0.8-3.1,1.2-4.7,1.2c-3.8,0-7.2-2.1-9-5.4c-2.6-5-0.7-11.1,4.3-13.7c11-5.7,23.3-8.8,35.8-8.8c12.5,0,24.8,3,35.8,8.8
				c5,2.6,6.9,8.7,4.3,13.7C294.3,362.9,290.9,365,287.1,365z"/>
			<path class="st1" d="M256,338.1c12.3,0,24.5,3,35.3,8.7c4.5,2.3,6.2,7.9,3.9,12.4c-1.6,3.1-4.8,4.9-8.1,4.9c-1.4,0-2.9-0.3-4.2-1
				c-8.2-4.3-17.5-6.6-26.8-6.6c-9.4,0-18.6,2.3-26.8,6.6c-1.4,0.7-2.8,1-4.2,1c-3.3,0-6.5-1.8-8.1-4.9c-2.3-4.5-0.6-10,3.9-12.3
				C231.5,341.1,243.7,338.1,256,338.1 M256,336.1c-12.6,0-25.2,3.1-36.3,8.9c-5.4,2.9-7.6,9.6-4.7,15c1.9,3.7,5.7,6,9.9,6
				c1.8,0,3.6-0.4,5.2-1.3c7.9-4.1,16.9-6.3,25.9-6.3c9,0,18,2.2,25.9,6.3c1.6,0.8,3.4,1.3,5.2,1.3c4.2,0,8-2.3,9.9-6
				c2.8-5.4,0.7-12.2-4.7-15C281.2,339.1,268.6,336.1,256,336.1L256,336.1z"/>
		</g>
	</g>
</g>
<g>
	<g>
		<g>
			<path class="st0" d="M94.8,204.6c-5.6,0-10.2-4.6-10.2-10.2c0-5.6,4.6-10.1,10.2-10.1c26.3,0,47.7-21.4,47.7-47.7
				c0-5.6,4.6-10.1,10.2-10.1c2.7,0,5.3,1.1,7.2,3c1.9,1.9,3,4.5,3,7.2C162.9,174.1,132.3,204.6,94.8,204.6L94.8,204.6z"/>
			<path class="st1" d="M152.7,127.4c5.1,0,9.2,4.1,9.1,9.2c0,36.9-30.1,67-67,67c-5.1,0-9.2-4.1-9.2-9.1c0-5.1,4.1-9.2,9.2-9.2
				c26.9,0,48.7-21.8,48.7-48.7C143.6,131.5,147.6,127.4,152.7,127.4 M152.7,125.4c-6.1,0-11.1,5-11.1,11.2
				c0,25.8-21,46.7-46.7,46.7c-6.1,0-11.2,5-11.2,11.2c0,6.1,5,11.1,11.2,11.1c38.1,0,69-31,69-69c0-3-1.2-5.8-3.3-7.9
				C158.5,126.6,155.7,125.4,152.7,125.4L152.7,125.4z"/>
		</g>
	</g>
</g>
<g>
	<g>
		<g>
			<path class="st0" d="M417.2,204.6c-37.5,0-68-30.5-68-68c0-5.6,4.6-10.1,10.1-10.1s10.2,4.6,10.2,10.1
				c0,26.3,21.4,47.7,47.7,47.7c5.6,0,10.1,4.6,10.1,10.1C427.3,200,422.8,204.6,417.2,204.6z"/>
			<path class="st1" d="M359.3,127.4c5.1,0,9.1,4.1,9.1,9.1c0,26.9,21.8,48.7,48.7,48.7c5.1,0,9.1,4.1,9.1,9.1
				c0,5.1-4.1,9.2-9.1,9.2c-36.9,0-67-30.1-67-67C350.1,131.5,354.2,127.4,359.3,127.4 M359.3,125.4c-6.1,0-11.1,5-11.1,11.1
				c0,38.1,31,69,69,69c6.1,0,11.1-5,11.1-11.2c0-6.1-5-11.1-11.1-11.1c-25.8,0-46.7-21-46.7-46.7
				C370.4,130.4,365.4,125.4,359.3,125.4L359.3,125.4z"/>
		</g>
	</g>
</g>
<g>
	<g>
		<g>
			<path class="st0" d="M146.7,264.8c-19.2,0-34.9-15.6-34.9-34.9s15.6-34.9,34.9-34.9s34.9,15.6,34.9,34.9S165.9,264.8,146.7,264.8
				z"/>
			<path class="st1" d="M146.7,196.1c18.7,0,33.9,15.2,33.9,33.9c0,18.7-15.2,33.9-33.9,33.9s-33.9-15.2-33.9-33.9
				S128.1,196.1,146.7,196.1 M146.7,194.1c-19.8,0-35.9,16.1-35.9,35.9s16.1,35.9,35.9,35.9s35.9-16.1,35.9-35.9
				C182.6,210.2,166.5,194.1,146.7,194.1L146.7,194.1z"/>
		</g>
	</g>
</g>
<g>
	<g>
		<g>
			<path class="st0" d="M365.3,264.8c-19.2,0-34.9-15.6-34.9-34.9s15.6-34.9,34.9-34.9c9.3,0,18,3.6,24.6,10.2s10.2,15.3,10.2,24.6
				C400.1,249.2,384.5,264.8,365.3,264.8z"/>
			<path class="st1" d="M365.3,196.1c18.7,0,33.9,15.2,33.9,33.9c0,18.7-15.2,33.9-33.9,33.9s-33.9-15.2-33.9-33.9
				S346.6,196.1,365.3,196.1 M365.3,194.1c-19.8,0-35.9,16.1-35.9,35.9s16.1,35.9,35.9,35.9s35.9-16.1,35.9-35.9
				c0-9.6-3.7-18.6-10.5-25.3C383.8,197.9,374.8,194.1,365.3,194.1L365.3,194.1z"/>
		</g>
	</g>
</g>
</svg>
