<?xml version="1.0" encoding="iso-8859-1"?>
<!-- Generator: Adobe Illustrator 19.0.0, SVG Export Plug-In . SVG Version: 6.00 Build 0)  -->
<svg version="1.1" id="Layer_1" xmlns="http://www.w3.org/2000/svg" xmlns:xlink="http://www.w3.org/1999/xlink" x="0px" y="0px"
	 viewBox="0 0 512.001 512.001" style="enable-background:new 0 0 512.001 512.001;" xml:space="preserve">
<g>
	<g>
		<path d="M256.001,0.001C114.841,0.001,0,114.842,0,256.001s114.841,255.999,256.001,255.999S512,397.16,512.001,256.001
			C512.001,114.842,397.16,0.001,256.001,0.001z M256.001,493.702c-131.069,0-237.702-106.631-237.702-237.7
			S124.932,18.3,256.001,18.3c131.068,0,237.7,106.632,237.702,237.702C493.702,387.069,387.07,493.702,256.001,493.702z"/>
	</g>
</g>
<g>
	<g>
		<path d="M199.273,226.441H90.093c-5.054,0-9.15,4.097-9.15,9.15s4.095,9.15,9.15,9.15h109.181c5.053,0,9.15-4.097,9.15-9.15
			S204.328,226.441,199.273,226.441z"/>
	</g>
</g>
<g>
	<g>
		<path d="M421.909,226.441H312.728c-5.054,0-9.15,4.097-9.15,9.15s4.095,9.15,9.15,9.15h109.181c5.053,0,9.15-4.097,9.15-9.15
			S426.963,226.441,421.909,226.441z"/>
	</g>
</g>
<g>
	<g>
		<path d="M372.505,330.136H139.496c-5.054,0-9.15,4.097-9.15,9.15s4.095,9.15,9.15,9.15h233.008c5.053,0,9.15-4.097,9.15-9.15
			S377.559,330.136,372.505,330.136z"/>
	</g>
</g>
<g>
	<g>
		<path d="M298.702,364.294h-85.403c-5.054,0-9.15,4.097-9.15,9.15s4.095,9.15,9.15,9.15h85.403c5.053,0,9.15-4.097,9.15-9.15
			S303.756,364.294,298.702,364.294z"/>
	</g>
</g>
<g>
</g>
<g>
</g>
<g>
</g>
<g>
</g>
<g>
</g>
<g>
</g>
<g>
</g>
<g>
</g>
<g>
</g>
<g>
</g>
<g>
</g>
<g>
</g>
<g>
</g>
<g>
</g>
<g>
</g>
</svg>
