<?xml version="1.0" encoding="iso-8859-1"?>
<!-- Generator: Adobe Illustrator 19.0.0, SVG Export Plug-In . SVG Version: 6.00 Build 0)  -->
<svg version="1.1" id="Layer_1" xmlns="http://www.w3.org/2000/svg" xmlns:xlink="http://www.w3.org/1999/xlink" x="0px" y="0px"
	 viewBox="0 0 512.001 512.001" style="enable-background:new 0 0 512.001 512.001;" xml:space="preserve">
<g>
	<g>
		<path d="M256.001,0.001C114.841,0.001,0,114.842,0,256.001s114.841,255.999,256.001,255.999s256.001-114.841,256.001-255.999
			C512,114.842,397.16,0.001,256.001,0.001z M256.001,493.702c-131.069,0-237.702-106.631-237.702-237.7S124.932,18.3,256.001,18.3
			s237.702,106.632,237.702,237.702C493.701,387.07,387.068,493.702,256.001,493.702z"/>
	</g>
</g>
<g>
	<g>
		<path d="M332.853,231.13H179.148c-36.828,0-66.788,29.962-66.788,66.789s29.962,66.789,66.788,66.789h153.705
			c36.828,0,66.788-29.962,66.788-66.789S369.679,231.13,332.853,231.13z M359.761,257.604c10.579,7.084,18.22,18.217,20.702,31.165
			h-20.837L359.761,257.604z M152.735,257.286l0.135,31.483h-21.334C134.058,275.623,141.902,264.352,152.735,257.286z
			 M131.536,307.068h21.414l0.137,31.709C142.072,331.727,134.085,320.357,131.536,307.068z M171.004,250.127
			c2.65-0.45,5.368-0.698,8.144-0.698h15.591l0.17,39.341H171.17L171.004,250.127z M179.148,346.409
			c-2.633,0-5.213-0.218-7.733-0.623l-0.167-38.717h23.739l0.17,39.341H179.148z M213.039,249.428h33.603l0.17,39.341h-33.603
			L213.039,249.428z M213.456,346.409l-0.17-39.341h33.603v0l0.17,39.341H213.456z M299.041,346.409H265.36l-0.171-39.341h34.022
			L299.041,346.409z M299.289,288.769H265.11l-0.17-39.341h34.518L299.289,288.769z M341.082,345.696
			c-2.677,0.46-5.424,0.712-8.23,0.712H317.34l0.17-39.341h23.739L341.082,345.696z M341.328,288.769h-23.739l0.17-39.341h15.094
			c2.95,0.001,5.835,0.281,8.641,0.787L341.328,288.769z M359.412,338.457l0.135-31.389h20.916
			C377.954,320.155,370.17,331.385,359.412,338.457z"/>
	</g>
</g>
<g>
	<g>
		<path d="M159.933,133.965c-25.903,0-46.975,21.073-46.975,46.975c0,5.053,4.095,9.15,9.15,9.15c5.054,0,9.15-4.097,9.15-9.15
			c0-15.812,12.864-28.676,28.676-28.676c15.813,0,28.677,12.864,28.677,28.676c0,5.053,4.095,9.15,9.15,9.15
			c5.054,0,9.15-4.097,9.15-9.15C206.909,155.038,185.836,133.965,159.933,133.965z"/>
	</g>
</g>
<g>
	<g>
		<path d="M352.068,133.965c-25.903,0-46.976,21.073-46.976,46.975c0,5.053,4.095,9.15,9.15,9.15s9.15-4.097,9.15-9.15
			c0-15.812,12.864-28.676,28.677-28.676c15.812,0,28.676,12.864,28.676,28.676c0,5.053,4.095,9.15,9.15,9.15s9.15-4.097,9.15-9.15
			C399.043,155.038,377.971,133.965,352.068,133.965z"/>
	</g>
</g>
<g>
</g>
<g>
</g>
<g>
</g>
<g>
</g>
<g>
</g>
<g>
</g>
<g>
</g>
<g>
</g>
<g>
</g>
<g>
</g>
<g>
</g>
<g>
</g>
<g>
</g>
<g>
</g>
<g>
</g>
</svg>
