<?xml version="1.0" encoding="iso-8859-1"?>
<!-- Generator: Adobe Illustrator 19.0.0, SVG Export Plug-In . SVG Version: 6.00 Build 0)  -->
<svg version="1.1" id="Layer_1" xmlns="http://www.w3.org/2000/svg" xmlns:xlink="http://www.w3.org/1999/xlink" x="0px" y="0px"
	 viewBox="0 0 512.001 512.001" style="enable-background:new 0 0 512.001 512.001;" xml:space="preserve">
<g>
	<g>
		<path d="M256,0C114.842,0,0.001,114.841,0.001,256.001S114.842,512.001,256,512.001c141.159,0,256.001-114.841,256.001-256.001
			S397.16,0,256,0z M256,493.701c-131.068,0-237.7-106.631-237.7-237.7S124.932,18.299,256,18.299
			c131.069,0,237.702,106.632,237.702,237.702S387.069,493.701,256,493.701z"/>
	</g>
</g>
<g>
	<g>
		<path d="M206.505,133.239c-11.6-19.417-32.028-31.007-54.646-31.007s-43.046,11.592-54.646,31.007
			c-2.592,4.338-1.176,9.956,3.162,12.547c4.341,2.594,9.957,1.176,12.547-3.162c8.265-13.833,22.821-22.093,38.937-22.093
			c16.115,0,30.672,8.26,38.937,22.094c1.713,2.868,4.749,4.458,7.864,4.458c1.597,0,3.213-0.418,4.683-1.297
			C207.681,143.194,209.096,137.577,206.505,133.239z"/>
	</g>
</g>
<g>
	<g>
		<path d="M414.787,133.241c-11.6-19.415-32.028-31.007-54.645-31.008c-22.616,0-43.047,11.593-54.647,31.007
			c-2.591,4.338-1.176,9.956,3.162,12.547c1.47,0.878,3.086,1.297,4.685,1.297c3.113,0,6.15-1.591,7.862-4.458
			c8.265-13.834,22.821-22.094,38.938-22.094c16.115,0,30.67,8.26,38.936,22.094c2.592,4.338,8.21,5.753,12.547,3.162
			C415.963,143.195,417.378,137.579,414.787,133.241z"/>
	</g>
</g>
<g>
	<g>
		<path d="M146.724,200.518c-18.666,0-33.852,15.186-33.852,33.852c0,18.666,15.187,33.852,33.852,33.852
			c18.666,0,33.852-15.186,33.852-33.852S165.39,200.518,146.724,200.518z"/>
	</g>
</g>
<g>
	<g>
		<path d="M365.276,200.518c-18.666,0-33.852,15.186-33.852,33.852c0,18.666,15.186,33.852,33.852,33.852
			s33.852-15.186,33.852-33.852C399.128,215.704,383.942,200.518,365.276,200.518z"/>
	</g>
</g>
<g>
	<g>
		<path d="M393.046,348.979c-75.565-75.564-198.517-75.564-274.08,0c-2.617,2.617-3.4,6.552-1.984,9.971
			c1.416,3.419,4.753,5.648,8.453,5.648h261.14c3.7,0,7.038-2.229,8.453-5.648C396.444,355.531,395.662,351.596,393.046,348.979z
			 M201.979,346.299c6.919-5.074,15.376-7.966,24.174-7.966c8.809,0,17.183,2.757,24.235,7.966H201.979z M261.62,346.299
			c7.052-5.208,15.422-7.966,24.224-7.966c8.795,0,17.251,2.891,24.176,7.966H261.62z M334.998,346.299
			c-10.917-16.272-29.455-26.265-49.155-26.265c-10.623,0-20.818,2.772-29.84,8.066c-9.021-5.296-19.221-8.066-29.852-8.066
			c-19.711,0-38.249,10-49.145,26.265h-27.234c62.523-47.608,149.938-47.608,212.462,0H334.998z"/>
	</g>
</g>
<g>
	<g>
		<path d="M287.72,383.202h-63.437c-5.053,0-9.15,4.097-9.15,9.15s4.097,9.15,9.15,9.15h63.437c5.054,0,9.15-4.097,9.15-9.15
			S292.773,383.202,287.72,383.202z"/>
	</g>
</g>
<g>
	<g>
		<g>
			<circle cx="155.47" cy="229.141" r="9.15"/>
			<circle cx="373.839" cy="229.141" r="9.15"/>
		</g>
	</g>
</g>
<g>
</g>
<g>
</g>
<g>
</g>
<g>
</g>
<g>
</g>
<g>
</g>
<g>
</g>
<g>
</g>
<g>
</g>
<g>
</g>
<g>
</g>
<g>
</g>
<g>
</g>
<g>
</g>
<g>
</g>
</svg>
