<?xml version="1.0" encoding="utf-8"?>
<!-- Generator: Adobe Illustrator 21.1.0, SVG Export Plug-In . SVG Version: 6.00 Build 0)  -->
<svg version="1.1" id="Layer_1" xmlns="http://www.w3.org/2000/svg" xmlns:xlink="http://www.w3.org/1999/xlink" x="0px" y="0px"
	 viewBox="0 0 512 512" style="enable-background:new 0 0 512 512;" xml:space="preserve">
<style type="text/css">
	.st0{fill:#836D95;}
	.st1{fill:#FFFFFF;}
</style>
<g>
	<g>
		<g>
			<path class="st0" d="M256,510.5C115.7,510.5,1.5,396.3,1.5,256C1.5,115.7,115.7,1.5,256,1.5c140.3,0,254.5,114.2,254.5,254.5
				C510.5,396.3,396.3,510.5,256,510.5z M256,21.6C126.8,21.6,21.6,126.8,21.6,256c0,129.2,105.1,234.4,234.4,234.4
				c129.2,0,234.4-105.1,234.4-234.4C490.4,126.8,385.2,21.6,256,21.6z"/>
			<path class="st1" d="M256,2.5c139.8,0,253.5,113.7,253.5,253.5S395.8,509.5,256,509.5C116.2,509.5,2.5,395.8,2.5,256
				S116.2,2.5,256,2.5 M256,491.4c129.8,0,235.4-105.6,235.4-235.4S385.8,20.6,256,20.6C126.2,20.6,20.6,126.2,20.6,256
				S126.2,491.4,256,491.4 M256,0.5C115.1,0.5,0.5,115.1,0.5,256c0,140.9,114.6,255.5,255.5,255.5c140.9,0,255.5-114.6,255.5-255.5
				C511.5,115.1,396.9,0.5,256,0.5L256,0.5z M256,489.4C127.3,489.4,22.6,384.7,22.6,256C22.6,127.3,127.3,22.6,256,22.6
				c128.7,0,233.4,104.7,233.4,233.4C489.4,384.7,384.7,489.4,256,489.4L256,489.4z"/>
		</g>
	</g>
</g>
<g>
	<g>
		<g>
			<path class="st0" d="M131.6,305.5c-37.9,0-68.7-30.8-68.7-68.7c0-37.9,30.8-68.7,68.7-68.7c37.9,0,68.7,30.8,68.7,68.7
				C200.3,274.7,169.5,305.5,131.6,305.5z M131.6,188.4c-26.7,0-48.4,21.7-48.4,48.4c0,26.7,21.7,48.4,48.4,48.4
				c26.7,0,48.4-21.7,48.4-48.4C180,210.1,158.3,188.4,131.6,188.4z"/>
			<path class="st1" d="M131.6,169.1c37.3,0,67.7,30.4,67.7,67.7s-30.4,67.7-67.7,67.7s-67.7-30.4-67.7-67.7S94.2,169.1,131.6,169.1
				 M131.6,286.2c27.2,0,49.4-22.2,49.4-49.4s-22.2-49.4-49.4-49.4s-49.4,22.2-49.4,49.4S104.3,286.2,131.6,286.2 M131.6,167.1
				c-38.4,0-69.7,31.3-69.7,69.7s31.3,69.7,69.7,69.7s69.7-31.3,69.7-69.7S170,167.1,131.6,167.1L131.6,167.1z M131.6,284.2
				c-26.1,0-47.4-21.3-47.4-47.4s21.3-47.4,47.4-47.4s47.4,21.3,47.4,47.4S157.7,284.2,131.6,284.2L131.6,284.2z"/>
		</g>
	</g>
</g>
<g>
	<g>
		<g>
			<path class="st0" d="M380.4,305.5c-37.9,0-68.7-30.8-68.7-68.7c0-37.9,30.8-68.7,68.7-68.7s68.7,30.8,68.7,68.7
				C449.1,274.7,418.3,305.5,380.4,305.5z M380.4,188.4c-26.7,0-48.4,21.7-48.4,48.4c0,26.7,21.7,48.4,48.4,48.4
				s48.4-21.7,48.4-48.4C428.8,210.1,407.1,188.4,380.4,188.4z"/>
			<path class="st1" d="M380.4,169.1c37.3,0,67.7,30.4,67.7,67.7s-30.4,67.7-67.7,67.7s-67.7-30.4-67.7-67.7
				S343.1,169.1,380.4,169.1 M380.4,286.2c27.2,0,49.4-22.2,49.4-49.4s-22.2-49.4-49.4-49.4S331,209.6,331,236.8
				S353.2,286.2,380.4,286.2 M380.4,167.1c-38.4,0-69.7,31.3-69.7,69.7s31.3,69.7,69.7,69.7s69.7-31.3,69.7-69.7
				S418.9,167.1,380.4,167.1L380.4,167.1z M380.4,284.2c-26.1,0-47.4-21.3-47.4-47.4s21.3-47.4,47.4-47.4s47.4,21.3,47.4,47.4
				S406.6,284.2,380.4,284.2L380.4,284.2z"/>
		</g>
	</g>
</g>
<g>
	<g>
		<g>
			<path class="st0" d="M193.8,350.9c-5.6,0-10.1-4.6-10.1-10.1s4.6-10.2,10.1-10.2h124.4c5.6,0,10.2,4.6,10.2,10.2
				s-4.6,10.1-10.2,10.1H193.8z"/>
			<path class="st1" d="M318.2,331.6c5.1,0,9.2,4.1,9.2,9.1s-4.1,9.1-9.1,9.1H193.8c-5.1,0-9.1-4.1-9.1-9.1s4.1-9.1,9.1-9.1H318.2
				 M318.2,329.6H193.8c-6.1,0-11.1,5-11.1,11.1s5,11.1,11.1,11.1h124.4c6.1,0,11.1-5,11.1-11.1S324.4,329.6,318.2,329.6
				L318.2,329.6z"/>
		</g>
	</g>
</g>
<g>
	<g>
		<g>
			<path class="st0" d="M227.8,385.7c-5.6,0-10.1-4.6-10.1-10.2s4.6-10.1,10.1-10.1h56.4c5.6,0,10.2,4.6,10.2,10.1
				s-4.6,10.2-10.2,10.2H227.8z"/>
			<path class="st1" d="M284.2,366.4c5.1,0,9.1,4.1,9.1,9.1s-4.1,9.1-9.1,9.1h-56.4c-5.1,0-9.1-4.1-9.1-9.1s4.1-9.1,9.1-9.1H284.2
				 M284.2,364.4h-56.4c-6.1,0-11.1,5-11.1,11.1s5,11.1,11.1,11.1h56.4c6.1,0,11.1-5,11.1-11.1S290.4,364.4,284.2,364.4L284.2,364.4
				z"/>
		</g>
	</g>
</g>
<g>
	<g>
		<g>
			<path class="st0" d="M131.6,257.8c-11.6,0-21-9.4-21-21s9.4-21,21-21s21,9.4,21,21S143.2,257.8,131.6,257.8z"/>
			<path class="st1" d="M131.6,216.8c11.1,0,20,9,20,20s-9,20-20,20c-11.1,0-20-9-20-20S120.5,216.8,131.6,216.8 M131.6,214.8
				c-12.1,0-22,9.9-22,22s9.9,22,22,22s22-9.9,22-22S143.7,214.8,131.6,214.8L131.6,214.8z"/>
		</g>
	</g>
</g>
<g>
	<g>
		<g>
			<path class="st0" d="M380.4,257.8c-11.6,0-21-9.4-21-21s9.4-21,21-21s21,9.4,21,21S392,257.8,380.4,257.8z"/>
			<path class="st1" d="M380.4,216.8c11.1,0,20,9,20,20s-9,20-20,20s-20-9-20-20S369.4,216.8,380.4,216.8 M380.4,214.8
				c-12.1,0-22,9.9-22,22s9.9,22,22,22s22-9.9,22-22S392.6,214.8,380.4,214.8L380.4,214.8z"/>
		</g>
	</g>
</g>
</svg>
