<?xml version="1.0" encoding="utf-8"?>
<!-- Generator: Adobe Illustrator 21.1.0, SVG Export Plug-In . SVG Version: 6.00 Build 0)  -->
<svg version="1.1" id="Layer_1" xmlns="http://www.w3.org/2000/svg" xmlns:xlink="http://www.w3.org/1999/xlink" x="0px" y="0px"
	 viewBox="0 0 512 512" style="enable-background:new 0 0 512 512;" xml:space="preserve">
<style type="text/css">
	.st0{fill:#836D95;}
	.st1{fill:#FFFFFF;}
</style>
<g>
	<g>
		<g>
			<path class="st0" d="M256,510.5C115.7,510.5,1.5,396.3,1.5,256C1.5,115.7,115.7,1.5,256,1.5S510.5,115.7,510.5,256
				C510.5,396.3,396.3,510.5,256,510.5z M256,21.6C126.8,21.6,21.6,126.8,21.6,256c0,129.2,105.1,234.4,234.4,234.4
				c129.2,0,234.4-105.1,234.4-234.4C490.4,126.8,385.2,21.6,256,21.6z"/>
			<path class="st1" d="M256,2.5c139.8,0,253.5,113.7,253.5,253.5S395.8,509.5,256,509.5C116.2,509.5,2.5,395.8,2.5,256
				S116.2,2.5,256,2.5 M256,491.4c129.8,0,235.4-105.6,235.4-235.4S385.8,20.6,256,20.6C126.2,20.6,20.6,126.2,20.6,256
				S126.2,491.4,256,491.4 M256,0.5C115.1,0.5,0.5,115.1,0.5,256S115.1,511.5,256,511.5c140.9,0,255.5-114.6,255.5-255.5
				S396.9,0.5,256,0.5L256,0.5z M256,489.4C127.3,489.4,22.6,384.7,22.6,256C22.6,127.3,127.3,22.6,256,22.6
				c128.7,0,233.4,104.7,233.4,233.4C489.4,384.7,384.7,489.4,256,489.4L256,489.4z"/>
		</g>
	</g>
</g>
<g>
	<g>
		<g>
			<path class="st0" d="M146.7,290.1c-19.2,0-34.9-15.6-34.9-34.9s15.6-34.9,34.9-34.9s34.9,15.6,34.9,34.9S165.9,290.1,146.7,290.1
				z"/>
			<path class="st1" d="M146.7,221.4c18.7,0,33.9,15.2,33.9,33.9c0,18.7-15.2,33.9-33.9,33.9s-33.9-15.2-33.9-33.9
				C112.9,236.6,128.1,221.4,146.7,221.4 M146.7,219.4c-19.8,0-35.9,16.1-35.9,35.9s16.1,35.9,35.9,35.9s35.9-16.1,35.9-35.9
				S166.5,219.4,146.7,219.4L146.7,219.4z"/>
		</g>
	</g>
</g>
<g>
	<g>
		<g>
			<path class="st0" d="M365.3,290.1c-19.2,0-34.9-15.6-34.9-34.9s15.6-34.9,34.9-34.9c19.2,0,34.9,15.6,34.9,34.9
				S384.5,290.1,365.3,290.1z"/>
			<path class="st1" d="M365.3,221.4c18.7,0,33.9,15.2,33.9,33.9c0,18.7-15.2,33.9-33.9,33.9s-33.9-15.2-33.9-33.9
				C331.4,236.6,346.6,221.4,365.3,221.4 M365.3,219.4c-19.8,0-35.9,16.1-35.9,35.9s16.1,35.9,35.9,35.9s35.9-16.1,35.9-35.9
				S385,219.4,365.3,219.4L365.3,219.4z"/>
		</g>
	</g>
</g>
<g>
	<g>
		<g>
			<path class="st0" d="M318.5,194.4c-1.8,0-3.6-0.5-5.2-1.4c-2.3-1.4-4-3.6-4.6-6.2c-0.7-2.6-0.3-5.4,1.1-7.7
				c11.8-19.7,32.5-31.5,55.5-31.5c23,0,43.7,11.8,55.5,31.5c2.9,4.8,1.3,11-3.5,13.9c-1.6,0.9-3.4,1.4-5.2,1.4
				c-3.6,0-6.9-1.9-8.7-4.9c-8.1-13.5-22.3-21.6-38.1-21.6s-30,8.1-38.1,21.6C325.4,192.5,322,194.4,318.5,194.4z"/>
			<path class="st1" d="M365.3,148.6c22.6,0,43,11.6,54.6,31c2.6,4.3,1.2,10-3.2,12.5c-1.5,0.9-3.1,1.3-4.7,1.3
				c-3.1,0-6.2-1.6-7.9-4.5c-8.3-13.8-22.8-22.1-38.9-22.1c-16.1,0-30.7,8.3-38.9,22.1c-1.7,2.9-4.7,4.5-7.9,4.5
				c-1.6,0-3.2-0.4-4.7-1.3c-4.3-2.6-5.8-8.2-3.2-12.5C322.2,160.2,342.7,148.6,365.3,148.6 M365.3,146.6c-23.3,0-44.4,12-56.4,32
				c-1.5,2.6-2,5.6-1.2,8.4c0.7,2.9,2.5,5.3,5.1,6.8c1.7,1,3.7,1.6,5.7,1.6c3.9,0,7.6-2.1,9.6-5.4c7.9-13.2,21.8-21.1,37.2-21.1
				s29.3,7.9,37.2,21.1c2,3.4,5.7,5.4,9.6,5.4c2,0,4-0.5,5.7-1.6c5.3-3.2,7-10,3.9-15.3C409.7,158.5,388.6,146.6,365.3,146.6
				L365.3,146.6z"/>
		</g>
	</g>
</g>
<g>
	<g>
		<g>
			<path class="st0" d="M193.5,194.4c-3.6,0-6.9-1.9-8.7-4.9c-8.1-13.5-22.3-21.6-38.1-21.6c-15.8,0-30,8.1-38.1,21.6
				c-1.8,3.1-5.2,4.9-8.7,4.9c-1.8,0-3.6-0.5-5.2-1.4c-2.3-1.4-4-3.6-4.6-6.2s-0.3-5.4,1.1-7.7c11.8-19.7,32.5-31.5,55.5-31.5
				c23,0,43.7,11.8,55.5,31.5c2.9,4.8,1.3,11-3.5,13.9C197.1,193.9,195.4,194.4,193.5,194.4z"/>
			<path class="st1" d="M146.7,148.6c22.6,0,43,11.6,54.6,31c2.6,4.3,1.2,10-3.2,12.5c-1.5,0.9-3.1,1.3-4.7,1.3
				c-3.1,0-6.2-1.6-7.9-4.5c-8.3-13.8-22.8-22.1-38.9-22.1s-30.7,8.3-38.9,22.1c-1.7,2.9-4.7,4.5-7.9,4.5c-1.6,0-3.2-0.4-4.7-1.3
				c-4.3-2.6-5.8-8.2-3.2-12.5C103.7,160.2,124.1,148.6,146.7,148.6 M146.7,146.6c-23.3,0-44.4,12-56.4,32c-1.5,2.6-2,5.6-1.2,8.4
				c0.7,2.9,2.5,5.3,5.1,6.8c1.7,1,3.7,1.6,5.7,1.6c3.9,0,7.6-2.1,9.6-5.4c7.9-13.2,21.8-21.1,37.2-21.1c15.4,0,29.3,7.9,37.2,21.1
				c2,3.4,5.7,5.4,9.6,5.4c2,0,4-0.5,5.7-1.6c5.3-3.2,7-10,3.9-15.3C191.1,158.5,170.1,146.6,146.7,146.6L146.7,146.6z"/>
		</g>
	</g>
</g>
<g>
	<g>
		<g>
			<path class="st0" d="M188.5,422.4c-2.5,0-4.8-0.1-7-0.3c-20.6-1.8-31-13.5-31-34.8c0-45.5,47.3-82.4,105.5-82.4
				s105.5,37,105.5,82.4c0,21.2-10.4,32.9-31,34.8c-2.2,0.2-4.5,0.3-7,0.3c-8.2,0-17.3-1-27.8-2.2c-12-1.3-25.6-2.9-39.6-2.9
				c-14,0-27.6,1.5-39.6,2.8C205.8,421.4,196.8,422.4,188.5,422.4z M256,397.1c15.2,0,29.4,1.6,41.9,3c5.8,0.6,11.8,1.3,17.2,1.7
				c-7.6-13.4-18.4-21.3-29.2-21.3c-9.9,0-17.6,6.2-22.3,11.4c-1.9,2.1-4.7,3.4-7.6,3.4c-2.9,0-5.6-1.2-7.6-3.4
				c-4.7-5.2-12.3-11.4-22.3-11.4c-10.8,0-21.7,7.9-29.2,21.3c5.4-0.4,11.4-1.1,17.2-1.7C226.6,398.7,240.8,397.1,256,397.1z
				 M285.8,360.2c20.7,0,40.1,15.2,51,39.6c3.1-1.9,4.4-5.7,4.4-12.5c0-34.3-38.2-62.1-85.2-62.1c-47,0-85.2,27.9-85.2,62.1
				c0,6.8,1.3,10.5,4.3,12.5c10.8-24.5,30.3-39.6,51-39.6c10.6,0,20.9,3.8,29.9,11C265,364,275.3,360.2,285.8,360.2z"/>
			<path class="st1" d="M256,306c57.6,0,104.5,36.5,104.5,81.4c0,20.6-10.1,32-30.1,33.8c-2.2,0.2-4.5,0.3-6.9,0.3
				c-8.2,0-17.4-1-27.7-2.2c-12-1.3-25.7-2.9-39.7-2.9c-14.1,0-27.7,1.5-39.7,2.9c-10.3,1.1-19.6,2.2-27.7,2.2
				c-2.4,0-4.7-0.1-6.9-0.3c-20-1.8-30.1-13.1-30.1-33.8C151.5,342.5,198.4,306,256,306 M175.7,401.3c10.6-24.7,29.7-40,50.5-40
				c10.7,0,20.9,3.9,29.9,11.3c9-7.4,19.1-11.3,29.8-11.3c20.7,0,39.9,15.3,50.5,40c4-1.9,5.8-5.7,5.8-13.9
				c0-34.8-38.7-63.1-86.2-63.1s-86.2,28.3-86.2,63.1C169.8,395.6,171.7,399.4,175.7,401.3 M256,394.3c-2.6,0-5.1-1.1-6.8-3
				c-4.8-5.4-12.7-11.8-23-11.8c-11.8,0-23.2,8.8-31,23.4c5.7-0.4,12.1-1.1,19.1-1.8c12.5-1.4,26.7-3,41.8-3s29.3,1.6,41.8,3
				c7,0.8,13.4,1.5,19.1,1.8c-7.8-14.6-19.2-23.4-31-23.4c-10.3,0-18.2,6.4-23,11.8C261.1,393.2,258.6,394.3,256,394.3 M256,304
				c-58.7,0-106.5,37.4-106.5,83.4c0,10.8,2.7,19.3,8.1,25.3c5.4,6,13.4,9.5,23.8,10.5c2.2,0.2,4.5,0.3,7.1,0.3c8.3,0,17.4-1,28-2.2
				c12-1.3,25.6-2.8,39.5-2.8c13.9,0,27.5,1.5,39.5,2.8c10.6,1.2,19.7,2.2,28,2.2c2.5,0,4.9-0.1,7.1-0.3
				c10.5-0.9,18.5-4.5,23.8-10.5c5.3-6,8.1-14.5,8.1-25.3C362.5,341.4,314.7,304,256,304L256,304z M174.8,398.3
				c-1.8-1.6-2.9-4.6-2.9-10.9c0-33.7,37.8-61.1,84.2-61.1s84.2,27.4,84.2,61.1c0,6.3-1.1,9.3-2.9,10.9
				c-5.3-11.5-12.5-21.1-21.1-27.9c-9.2-7.3-19.7-11.2-30.3-11.2c-10.6,0-20.8,3.7-29.8,10.7c-9-7-19.3-10.7-29.9-10.7
				C205.4,359.2,185.8,374.1,174.8,398.3L174.8,398.3z M258.2,396.1c2.3-0.5,4.5-1.7,6.1-3.5c4.5-5.1,12-11.1,21.5-11.1
				c10,0,20.1,7.1,27.4,19.1c-4.4-0.4-9.3-0.9-15.3-1.6C286.1,397.8,272.6,396.3,258.2,396.1L258.2,396.1z M198.7,400.6
				c7.3-12,17.4-19.1,27.4-19.1c9.6,0,17,6,21.5,11.1c1.6,1.8,3.8,3,6.1,3.5c-14.4,0.1-27.8,1.6-39.8,3
				C208,399.8,203.2,400.3,198.7,400.6L198.7,400.6z"/>
		</g>
	</g>
</g>
</svg>
