<?xml version="1.0" encoding="iso-8859-1"?>
<!-- Generator: Adobe Illustrator 19.0.0, SVG Export Plug-In . SVG Version: 6.00 Build 0)  -->
<svg version="1.1" id="Layer_1" xmlns="http://www.w3.org/2000/svg" xmlns:xlink="http://www.w3.org/1999/xlink" x="0px" y="0px"
	 viewBox="0 0 512.001 512.001" style="enable-background:new 0 0 512.001 512.001;" xml:space="preserve">
<g>
	<g>
		<path d="M256.001,0C114.841,0,0,114.841,0,256.001s114.841,256.001,256.001,256.001S512.001,397.16,512.001,256.001
			S397.16,0,256.001,0z M256.001,493.701c-131.069,0-237.702-106.631-237.702-237.7S124.932,18.299,256.001,18.299
			s237.702,106.632,237.702,237.702S387.068,493.701,256.001,493.701z"/>
	</g>
</g>
<g>
	<g>
		<path d="M146.723,192.982c-18.666,0-33.852,15.186-33.852,33.852c0,18.666,15.186,33.852,33.852,33.852
			s33.852-15.186,33.852-33.852C180.575,208.168,165.39,192.982,146.723,192.982z"/>
	</g>
</g>
<g>
	<g>
		<path d="M365.277,192.982c-18.666,0-33.852,15.186-33.852,33.852c0,18.666,15.186,33.852,33.852,33.852
			s33.852-15.186,33.852-33.852C399.129,208.168,383.943,192.982,365.277,192.982z"/>
	</g>
</g>
<g>
	<g>
		<path d="M256.004,285.924c-30.99,0-56.203,32.836-56.203,73.196c0,13.36,2.767,26.424,7.998,37.772
			c10.193,22.182,28.215,35.425,48.206,35.425s38.012-13.242,48.206-35.423c5.224-11.364,7.986-24.426,7.986-37.773
			C312.195,318.76,286.987,285.924,256.004,285.924z M256.004,414.018c-8.765,0-17.123-4.455-23.803-12.352
			c1.274,0.188,2.537,0.423,3.781,0.729c6.546,1.615,13.279,2.422,20.014,2.422c6.737,0,13.478-0.809,20.03-2.424
			c1.244-0.307,2.509-0.542,3.785-0.729C273.13,409.562,264.771,414.018,256.004,414.018z M290.017,383.083
			c-6.183-0.432-12.414,0.076-18.373,1.544c-10.237,2.524-21.053,2.525-31.282,0.002c-5.957-1.47-12.188-1.98-18.38-1.547
			c-2.541-7.443-3.884-15.601-3.884-23.961c0-30.27,17.003-54.897,37.904-54.897c20.894,0,37.893,24.627,37.893,54.897
			C293.896,367.476,292.555,375.633,290.017,383.083z"/>
	</g>
</g>
<g>
	<g>
		<path d="M419.923,151.21c-11.602-19.414-32.03-31.006-54.647-31.006c-22.616,0-43.044,11.592-54.645,31.007
			c-2.591,4.338-1.176,9.956,3.162,12.547c4.341,2.592,9.957,1.176,12.547-3.162c8.265-13.834,22.82-22.093,38.936-22.094
			c16.117,0,30.673,8.26,38.938,22.094c1.713,2.868,4.749,4.458,7.863,4.458c1.597,0,3.215-0.418,4.685-1.297
			C421.099,161.165,422.514,155.548,419.923,151.21z"/>
	</g>
</g>
<g>
	<g>
		<path d="M201.369,151.211c-11.6-19.415-32.028-31.007-54.645-31.007c-0.001,0,0.001,0-0.001,0
			c-22.615,0-43.046,11.593-54.646,31.007c-2.591,4.338-1.176,9.956,3.162,12.547c1.47,0.878,3.086,1.297,4.685,1.297
			c3.113,0,6.15-1.591,7.862-4.458c8.265-13.834,22.821-22.094,38.938-22.094c16.115,0,30.671,8.26,38.936,22.094
			c2.592,4.338,8.21,5.753,12.547,3.162C202.545,161.167,203.96,155.55,201.369,151.211z"/>
	</g>
</g>
<g>
	<g>
		<g>
			<circle cx="154.749" cy="218.516" r="9.15"/>
			<circle cx="373.118" cy="218.516" r="9.15"/>
		</g>
	</g>
</g>
<g>
</g>
<g>
</g>
<g>
</g>
<g>
</g>
<g>
</g>
<g>
</g>
<g>
</g>
<g>
</g>
<g>
</g>
<g>
</g>
<g>
</g>
<g>
</g>
<g>
</g>
<g>
</g>
<g>
</g>
</svg>
