<?xml version="1.0" encoding="utf-8"?>
<!-- Generator: Adobe Illustrator 21.1.0, SVG Export Plug-In . SVG Version: 6.00 Build 0)  -->
<svg version="1.1" id="Layer_1" xmlns="http://www.w3.org/2000/svg" xmlns:xlink="http://www.w3.org/1999/xlink" x="0px" y="0px"
	 viewBox="0 0 512 512" style="enable-background:new 0 0 512 512;" xml:space="preserve">
<style type="text/css">
	.st0{fill:#836D95;}
	.st1{fill:#FFFFFF;}
</style>
<g>
	<g>
		<g>
			<path class="st0" d="M256,511C115.4,511,1,396.6,1,256C1,115.4,115.4,1,256,1c140.6,0,255,114.4,255,255
				C511,396.6,396.6,511,256,511z M256,21.2C126.5,21.2,21.2,126.5,21.2,256c0,129.5,105.4,234.8,234.8,234.8
				c129.5,0,234.8-105.3,234.8-234.8C490.8,126.5,385.5,21.2,256,21.2z"/>
			<path class="st1" d="M256,2c140.1,0,254,113.9,254,254S396.1,510,256,510S2,396.1,2,256S115.9,2,256,2 M256,491.8
				c130,0,235.8-105.8,235.8-235.8S386,20.2,256,20.2S20.2,126,20.2,256S126,491.8,256,491.8 M256,0C114.8,0,0,114.8,0,256
				s114.8,256,256,256c141.2,0,256-114.8,256-256S397.2,0,256,0L256,0z M256,489.8C127.1,489.8,22.2,384.9,22.2,256
				C22.2,127.1,127.1,22.2,256,22.2S489.8,127.1,489.8,256C489.8,384.9,384.9,489.8,256,489.8L256,489.8z"/>
		</g>
	</g>
</g>
<g>
	<g>
		<g>
			<path class="st0" d="M186.5,251.3c-5.6,0-10.2-4.6-10.2-10.1c0-19.3-15.7-35-35-35s-35,15.7-35,35c0,5.6-4.6,10.1-10.1,10.1
				c-5.6,0-10.2-4.6-10.2-10.1c0-30.5,24.8-55.3,55.3-55.3c30.5,0,55.3,24.8,55.3,55.3C196.6,246.8,192.1,251.3,186.5,251.3z"/>
			<path class="st1" d="M141.3,186.9c29.9,0,54.3,24.4,54.3,54.3c0,5.1-4.1,9.1-9.1,9.1s-9.1-4.1-9.1-9.1c0-19.8-16.1-36-36-36
				c-19.8,0-36,16.1-36,36c0,5.1-4.1,9.1-9.2,9.1c-5.1,0-9.2-4.1-9.2-9.1C87,211.2,111.4,186.9,141.3,186.9 M141.3,184.9
				c-31,0-56.3,25.3-56.3,56.3c0,6.1,5,11.1,11.2,11.1s11.2-5,11.2-11.1c0-18.7,15.3-34,34-34s34,15.3,34,34c0,6.1,5,11.1,11.1,11.1
				c6.1,0,11.1-5,11.1-11.1C197.6,210.1,172.4,184.9,141.3,184.9L141.3,184.9z"/>
		</g>
	</g>
</g>
<g>
	<g>
		<g>
			<path class="st0" d="M415.8,251.3c-5.6,0-10.1-4.6-10.1-10.1c0-19.3-15.7-35-35-35s-35,15.7-35,35c0,5.6-4.6,10.1-10.2,10.1
				s-10.1-4.6-10.1-10.1c0-30.5,24.8-55.3,55.3-55.3c30.5,0,55.3,24.8,55.3,55.3C426,246.8,421.4,251.3,415.8,251.3z"/>
			<path class="st1" d="M370.7,186.9c29.9,0,54.3,24.4,54.3,54.3c0,5.1-4.1,9.1-9.1,9.1s-9.1-4.1-9.1-9.1c0-19.8-16.1-36-36-36
				s-36,16.1-36,36c0,5.1-4.1,9.1-9.1,9.1c-5.1,0-9.1-4.1-9.1-9.1C316.4,211.2,340.7,186.9,370.7,186.9 M370.7,184.9
				c-31,0-56.3,25.3-56.3,56.3c0,6.1,5,11.1,11.1,11.1s11.1-5,11.1-11.1c0-18.7,15.3-34,34-34s34,15.3,34,34c0,6.1,5,11.1,11.1,11.1
				s11.1-5,11.1-11.1C427,210.1,401.7,184.9,370.7,184.9L370.7,184.9z"/>
		</g>
	</g>
</g>
<g>
	<g>
		<g>
			<path class="st0" d="M389.9,422.5c-14.5,0-28.3-6.1-38-16.8l-26.6-29.3c-22.1,9-45.4,13.6-69.4,13.6c-17.2,0-34.4-2.4-51-7.2
				c-44.1-12.7-81.5-41.6-105.4-81.5c-2.9-4.8-1.3-11,3.5-13.9c1.6-0.9,3.4-1.4,5.2-1.4c3.6,0,6.9,1.9,8.7,4.9
				c21.2,35.5,54.4,61.2,93.6,72.4c14.8,4.2,30,6.4,45.4,6.4c23.3,0,46.7-5.1,67.8-14.8c24-11,44.4-27.3,60.5-48.5
				c3.8-5,7.3-10.2,10.5-15.5c1.8-3,5.2-4.9,8.7-4.9c5.6,0,10.2,4.6,10.2,10.2c0,2-0.6,3.9-1.7,5.6c-2,3.3-4.2,6.7-6.6,10.2
				l22.5,24.8c19,21,17.5,53.5-3.5,72.5C415,417.8,402.7,422.5,389.9,422.5z M366.9,392.1c5.9,6.4,14.2,10.1,23,10.1
				c7.7,0,15.1-2.9,20.8-8c12.7-11.5,13.6-31.2,2.1-43.8l-20.1-22.1c-4.2,4.8-8.7,9.5-13.4,13.9l20.1,21.3
				c3.8,4.1,3.7,10.5-0.4,14.3c-1.9,1.8-4.4,2.8-7,2.8c-2.8,0-5.4-1.1-7.4-3.2l-21-22.3c-6.1,4.5-12.5,8.6-19.2,12.3L366.9,392.1z"
				/>
			<path class="st1" d="M403.4,287c5.1,0,9.2,4.1,9.2,9.1c0,1.9-0.6,3.6-1.5,5c-2.2,3.7-4.6,7.3-7,10.8l23.1,25.4
				c18.7,20.5,17.1,52.4-3.4,71.1c-9.6,8.7-21.7,13.1-33.8,13.1c-13.7,0-27.4-5.5-37.3-16.5l-27.1-29.8
				c-22.2,9.2-45.9,13.8-69.7,13.8c0,0,0,0,0,0c-17,0-34.1-2.4-50.7-7.1c-43.9-12.6-81.1-41.4-104.8-81.1c-2.6-4.3-1.2-10,3.2-12.5
				c1.5-0.9,3.1-1.3,4.7-1.3c3.1,0,6.2,1.6,7.9,4.5c21.3,35.7,54.8,61.6,94.2,72.9c15,4.3,30.3,6.4,45.7,6.4
				c23.4,0,46.7-5,68.2-14.8c24.2-11.1,44.6-27.5,60.9-48.8c3.8-5,7.3-10.3,10.6-15.6C397.2,288.7,400.2,287,403.4,287 M392.1,379.5
				c-2.4,0-4.9-1-6.7-2.9l-21.6-22.9c-6.6,4.9-13.6,9.4-20.9,13.4l23.3,25.7c6.3,6.9,15,10.5,23.7,10.5c7.7,0,15.4-2.7,21.5-8.3
				c13.1-11.9,14-32.2,2.2-45.2l-20.9-23c-4.7,5.4-9.6,10.5-14.8,15.3l20.8,22c3.5,3.7,3.3,9.5-0.4,12.9
				C396.6,378.6,394.3,379.5,392.1,379.5 M403.4,285c-3.9,0-7.6,2.1-9.6,5.4c-3.2,5.3-6.7,10.5-10.4,15.5
				c-16,21.1-36.3,37.3-60.1,48.2c-20.9,9.6-44.2,14.7-67.4,14.7c-15.3,0-30.4-2.1-45.1-6.4c-38.9-11.2-71.9-36.7-93-72
				c-2-3.4-5.7-5.4-9.6-5.4c-2,0-4,0.5-5.7,1.6c-5.3,3.2-7,10-3.9,15.3c24,40.1,61.6,69.3,106,82c16.7,4.8,33.9,7.2,51.2,7.2
				c23.9,0,47.1-4.5,69.1-13.4l26.1,28.7c9.9,10.9,24,17.1,38.8,17.1c13,0,25.5-4.8,35.2-13.6c21.3-19.4,22.9-52.5,3.5-73.9
				l-22-24.2c2.2-3.2,4.3-6.4,6.2-9.6c1.2-1.8,1.8-3.9,1.8-6.1C414.6,290,409.6,285,403.4,285L403.4,285z M380.8,342.1
				c4.2-3.9,8.2-8.1,12-12.4l19.4,21.3c11.1,12.3,10.2,31.3-2,42.4c-5.5,5-12.7,7.8-20.2,7.8c-8.5,0-16.6-3.6-22.2-9.8L346,367.6
				c6.1-3.4,11.9-7.2,17.5-11.2L384,378c2.1,2.2,5.1,3.5,8.1,3.5c2.9,0,5.6-1.1,7.7-3c4.5-4.2,4.7-11.3,0.5-15.8L380.8,342.1
				L380.8,342.1z"/>
		</g>
	</g>
</g>
</svg>
