<?xml version="1.0" encoding="iso-8859-1"?>
<!-- Generator: Adobe Illustrator 19.0.0, SVG Export Plug-In . SVG Version: 6.00 Build 0)  -->
<svg version="1.1" id="Layer_1" xmlns="http://www.w3.org/2000/svg" xmlns:xlink="http://www.w3.org/1999/xlink" x="0px" y="0px"
	 viewBox="0 0 512.001 512.001" style="enable-background:new 0 0 512.001 512.001;" xml:space="preserve">
<g>
	<g>
		<path d="M256,0C114.842,0,0.001,114.841,0.001,256.001S114.842,512.001,256,512.001c141.159,0,256.001-114.841,256.001-256.001
			S397.159,0,256,0z M256,493.701c-131.068,0-237.7-106.631-237.7-237.7S124.932,18.299,256,18.299
			c131.069,0,237.702,106.632,237.702,237.702S387.069,493.701,256,493.701z"/>
	</g>
</g>
<g>
	<g>
		<path d="M206.506,195.276c-11.6-19.417-32.028-31.007-54.646-31.007c-22.618,0-43.046,11.592-54.646,31.007
			c-2.592,4.338-1.176,9.956,3.162,12.547c4.341,2.594,9.956,1.177,12.547-3.161c8.265-13.834,22.821-22.094,38.937-22.094
			c16.115,0,30.672,8.26,38.937,22.094c1.713,2.868,4.749,4.458,7.864,4.458c1.597,0,3.213-0.418,4.683-1.297
			C207.682,205.23,209.097,199.614,206.506,195.276z"/>
	</g>
</g>
<g>
	<g>
		<path d="M414.789,195.274c-11.6-19.414-32.029-31.006-54.646-31.006c-22.618,0-43.046,11.592-54.646,31.007
			c-2.592,4.338-1.176,9.956,3.162,12.547c4.341,2.592,9.957,1.176,12.547-3.162c8.265-13.834,22.821-22.094,38.937-22.094
			c16.115,0,30.672,8.26,38.937,22.094c1.713,2.868,4.749,4.458,7.864,4.458c1.597,0,3.213-0.418,4.683-1.297
			C415.965,205.229,417.38,199.613,414.789,195.274z"/>
	</g>
</g>
<g>
	<g>
		<path d="M156.485,229.84h-43.396c-5.053,0-9.15,4.097-9.15,9.15s4.097,9.15,9.15,9.15h13.342c-2.422,4.661-3.8,9.947-3.8,15.553
			c0,18.666,15.186,33.852,33.852,33.852c18.666,0,33.853-15.186,33.853-33.852C190.337,245.026,175.151,229.84,156.485,229.84z"/>
	</g>
</g>
<g>
	<g>
		<path d="M375.036,229.84h-43.394c-5.053,0-9.15,4.097-9.15,9.15c0,5.053,4.097,9.15,9.15,9.15h13.343
			c-2.422,4.661-3.8,9.947-3.8,15.553c0,18.666,15.186,33.852,33.852,33.852c18.666,0,33.852-15.186,33.852-33.852
			C408.888,245.026,393.702,229.84,375.036,229.84z"/>
	</g>
</g>
<g>
	<g>
		<path d="M332.124,348.836c-16.159-27.046-44.617-43.193-76.123-43.193c-31.507,0-59.964,16.147-76.123,43.194
			c-2.592,4.338-1.176,9.956,3.162,12.547c4.339,2.591,9.956,1.176,12.547-3.162c12.825-21.466,35.409-34.282,60.414-34.282
			c25.005,0,47.589,12.815,60.414,34.282c1.714,2.868,4.749,4.459,7.864,4.458c1.596,0,3.213-0.418,4.683-1.297
			C333.3,358.79,334.715,353.174,332.124,348.836z"/>
	</g>
</g>
<g>
	<g>
		<path d="M283.674,353.702c-17.587-14.604-37.76-14.605-55.347,0c-3.888,3.228-4.422,8.997-1.194,12.885
			c3.228,3.888,8.997,4.421,12.885,1.194c10.905-9.056,21.062-9.054,31.966,0c1.708,1.419,3.781,2.11,5.841,2.11
			c2.627,0,5.235-1.125,7.044-3.304C288.097,362.699,287.562,356.931,283.674,353.702z"/>
	</g>
</g>
<g>
	<g>
		<g>
			<circle cx="163.692" cy="257.139" r="9.15"/>
			<circle cx="382.061" cy="257.139" r="9.15"/>
		</g>
	</g>
</g>
<g>
</g>
<g>
</g>
<g>
</g>
<g>
</g>
<g>
</g>
<g>
</g>
<g>
</g>
<g>
</g>
<g>
</g>
<g>
</g>
<g>
</g>
<g>
</g>
<g>
</g>
<g>
</g>
<g>
</g>
</svg>
