<?xml version="1.0" encoding="iso-8859-1"?>
<!-- Generator: Adobe Illustrator 19.0.0, SVG Export Plug-In . SVG Version: 6.00 Build 0)  -->
<svg version="1.1" id="Layer_1" xmlns="http://www.w3.org/2000/svg" xmlns:xlink="http://www.w3.org/1999/xlink" x="0px" y="0px"
	 viewBox="0 0 512.001 512.001" style="enable-background:new 0 0 512.001 512.001;" xml:space="preserve">
<g>
	<g>
		<path d="M256.001,0C114.841,0,0,114.841,0,256.001s114.841,256.001,256.001,256.001S512.001,397.16,512.001,256.001
			S397.16,0,256.001,0z M256.001,493.701c-131.069,0-237.702-106.631-237.702-237.7S124.932,18.299,256.001,18.299
			s237.702,106.632,237.702,237.702S387.068,493.701,256.001,493.701z"/>
	</g>
</g>
<g>
	<g>
		<path d="M354.301,169.827c-18.666,0-33.852,15.186-33.852,33.852s15.186,33.852,33.852,33.852
			c18.666,0,33.852-15.186,33.852-33.852C388.153,185.012,372.967,169.827,354.301,169.827z"/>
	</g>
</g>
<g>
	<g>
		<path d="M203.085,210.236c-10.086-16.88-27.846-26.958-47.509-26.958c-19.664,0-37.425,10.078-47.511,26.958
			c-2.591,4.338-1.176,9.956,3.162,12.547c4.339,2.592,9.956,1.176,12.547-3.162c6.75-11.299,18.638-18.045,31.801-18.045
			c13.161,0.001,25.05,6.747,31.8,18.047c1.713,2.868,4.749,4.459,7.862,4.458c1.597,0,3.215-0.418,4.685-1.297
			C204.261,220.19,205.676,214.574,203.085,210.236z"/>
	</g>
</g>
<g>
	<g>
		<path d="M289.731,359.029c-1.363-4.865-6.41-7.703-11.278-6.34c-14.689,4.119-30.215,4.119-44.905,0
			c-4.866-1.366-9.916,1.475-11.28,6.34s1.475,9.916,6.34,11.281c8.961,2.512,18.175,3.768,27.391,3.768
			c9.217,0,18.431-1.257,27.391-3.768C288.256,368.945,291.095,363.896,289.731,359.029z"/>
	</g>
</g>
<g>
	<g>
		<path d="M342.565,276.267c-4.334-2.59-9.955-1.177-12.547,3.162c-15.713,26.298-43.383,41.999-74.017,41.999
			s-58.305-15.701-74.017-41.999c-2.591-4.337-8.208-5.752-12.547-3.162c-4.338,2.592-5.753,8.209-3.162,12.547
			c19.047,31.879,52.589,50.913,89.727,50.913s70.68-19.033,89.727-50.913C348.318,284.476,346.902,278.859,342.565,276.267z"/>
	</g>
</g>
<g>
	<g>
		<circle cx="363.969" cy="200.216" r="9.15"/>
	</g>
</g>
<g>
</g>
<g>
</g>
<g>
</g>
<g>
</g>
<g>
</g>
<g>
</g>
<g>
</g>
<g>
</g>
<g>
</g>
<g>
</g>
<g>
</g>
<g>
</g>
<g>
</g>
<g>
</g>
<g>
</g>
</svg>
