<?xml version="1.0" encoding="utf-8"?>
<!-- Generator: Adobe Illustrator 21.1.0, SVG Export Plug-In . SVG Version: 6.00 Build 0)  -->
<svg version="1.1" id="Layer_1" xmlns="http://www.w3.org/2000/svg" xmlns:xlink="http://www.w3.org/1999/xlink" x="0px" y="0px"
	 viewBox="0 0 512 512" style="enable-background:new 0 0 512 512;" xml:space="preserve">
<style type="text/css">
	.st0{fill:#836D95;}
	.st1{fill:#FFFFFF;}
</style>
<g>
	<g>
		<g>
			<path class="st0" d="M256,510.5C115.7,510.5,1.5,396.3,1.5,256C1.5,115.7,115.7,1.5,256,1.5S510.5,115.7,510.5,256
				C510.5,396.3,396.3,510.5,256,510.5z M256,21.6C126.8,21.6,21.6,126.8,21.6,256c0,129.2,105.1,234.4,234.4,234.4
				c129.2,0,234.4-105.1,234.4-234.4C490.4,126.8,385.2,21.6,256,21.6z"/>
			<path class="st1" d="M256,2.5c139.8,0,253.5,113.7,253.5,253.5S395.8,509.5,256,509.5C116.2,509.5,2.5,395.8,2.5,256
				S116.2,2.5,256,2.5 M256,491.4c129.8,0,235.4-105.6,235.4-235.4S385.8,20.6,256,20.6C126.2,20.6,20.6,126.2,20.6,256
				S126.2,491.4,256,491.4 M256,0.5C115.1,0.5,0.5,115.1,0.5,256S115.1,511.5,256,511.5c140.9,0,255.5-114.6,255.5-255.5
				S396.9,0.5,256,0.5L256,0.5z M256,489.4C127.3,489.4,22.6,384.7,22.6,256C22.6,127.3,127.3,22.6,256,22.6
				c128.7,0,233.4,104.7,233.4,233.4C489.4,384.7,384.7,489.4,256,489.4L256,489.4z"/>
		</g>
	</g>
</g>
<g>
	<g>
		<g>
			<path class="st0" d="M256,461.7c-46.3,0-84-37.7-84-84V374c-20.2-16.1-35.2-37.5-43.5-61.9c-4.7-13.9-7.1-28.4-7.1-43.2
				c0-5.6,4.6-10.2,10.1-10.2h248.9c5.6,0,10.1,4.6,10.1,10.2c0,14.8-2.4,29.3-7.1,43.2c-8.3,24.4-23.3,45.8-43.5,61.9v3.7
				C340,424,302.3,461.7,256,461.7z M192.3,377.7c0,35.1,28.6,63.7,63.7,63.7c35.1,0,63.7-28.6,63.7-63.7v-3.5
				c-7.2-11.6-20.2-18.8-33.9-18.8c-6.9,0-13.7,1.8-19.7,5.2v32.7c0,5.6-4.6,10.2-10.2,10.2s-10.1-4.6-10.1-10.2v-32.7
				c-6-3.4-12.8-5.2-19.7-5.2c-13.7,0-26.6,7.2-33.9,18.8V377.7z M285.8,335.1c17.1,0,33.5,7.4,44.9,20.2
				c11.8-10.2,21.2-22.4,28-36.3H153.2c6.8,13.9,16.2,26.1,28,36.3c11.5-12.9,27.8-20.2,44.9-20.2c10.5,0,20.8,2.7,29.9,7.9
				C265,337.8,275.3,335.1,285.8,335.1z M366.4,298.7c1.7-6.4,2.9-13,3.5-19.6H142.2c0.6,6.6,1.8,13.2,3.5,19.6H366.4z"/>
			<path class="st1" d="M380.4,259.7c5.1,0,9.1,4.1,9.1,9.2c0,14.7-2.4,29.1-7,42.9c-8.3,24.5-23.3,45.7-43.5,61.8v4.2
				c0,45.8-37.2,83-83,83s-83-37.2-83-83v-4.2c-20.2-16-35.2-37.3-43.5-61.8c-4.7-13.8-7-28.2-7-42.9c0-5.1,4.1-9.1,9.2-9.1H380.4
				 M144.9,299.7h222.2c2-7.1,3.2-14.3,3.8-21.6H141.1C141.7,285.4,142.9,292.6,144.9,299.7 M181.3,356.7
				c11.1-12.9,27.5-20.6,44.8-20.6c10.6,0,20.8,2.8,29.9,8.1c9-5.3,19.2-8.1,29.8-8.1c17.3,0,33.7,7.7,44.8,20.6
				c12.6-10.7,22.7-23.9,29.7-38.7H151.7C158.6,332.8,168.7,346,181.3,356.7 M256,402.5c-5.1,0-9.1-4.1-9.1-9.1V360
				c-6.3-3.7-13.3-5.7-20.7-5.7c-14.2,0-27.5,7.5-34.9,19.6v3.7c0,35.7,29,64.7,64.7,64.7s64.7-29,64.7-64.7v-3.7
				c-7.4-12.1-20.7-19.6-34.9-19.6c-7.4,0-14.4,2-20.7,5.7v33.3C265.2,398.4,261.1,402.5,256,402.5 M380.4,257.7H131.6
				c-6.1,0-11.2,5-11.2,11.1c0,14.9,2.4,29.5,7.1,43.5c8.3,24.4,23.3,45.9,43.4,62.1v3.2c0,46.9,38.1,85,85,85s85-38.1,85-85v-3.2
				c20.1-16.2,35.2-37.6,43.4-62.1c4.7-14,7.1-28.6,7.1-43.5C391.6,262.7,386.6,257.7,380.4,257.7L380.4,257.7z M143.3,280h225.5
				c-0.6,5.9-1.6,11.9-3.2,17.6H146.4C144.9,291.9,143.8,286,143.3,280L143.3,280z M154.9,320h202.3c-6.5,12.9-15.3,24.3-26.3,33.9
				c-11.6-12.6-27.9-19.8-45-19.8c-10.5,0-20.8,2.7-29.8,7.8c-9.1-5.1-19.3-7.8-29.9-7.8c-17.1,0-33.4,7.2-45,19.8
				C170.2,344.3,161.4,332.9,154.9,320L154.9,320z M267.2,361.2c5.7-3.2,12.1-4.8,18.7-4.8c13.2,0,25.8,6.9,32.9,18.1v3.2
				c0,34.6-28.1,62.7-62.7,62.7s-62.7-28.1-62.7-62.7v-3.2c7.1-11.2,19.6-18.1,32.9-18.1c6.5,0,13,1.7,18.7,4.8v32.1
				c0,6.1,5,11.1,11.1,11.1c6.1,0,11.1-5,11.1-11.1V361.2L267.2,361.2z"/>
		</g>
	</g>
</g>
<g>
	<g>
		<g>
			<path class="st0" d="M362.8,238.5c-19.2,0-34.9-15.6-34.9-34.9s15.6-34.9,34.9-34.9c19.2,0,34.9,15.6,34.9,34.9
				S382.1,238.5,362.8,238.5z"/>
			<path class="st1" d="M362.8,169.8c18.7,0,33.9,15.2,33.9,33.9c0,18.7-15.2,33.9-33.9,33.9c-18.7,0-33.9-15.2-33.9-33.9
				C329,185,344.2,169.8,362.8,169.8 M362.8,167.8c-19.8,0-35.9,16.1-35.9,35.9c0,19.8,16.1,35.9,35.9,35.9s35.9-16.1,35.9-35.9
				C398.7,183.9,382.6,167.8,362.8,167.8L362.8,167.8z"/>
		</g>
	</g>
</g>
<g>
	<g>
		<g>
			<path class="st0" d="M124.5,225.1c-1.8,0-3.6-0.5-5.2-1.4c-2.3-1.4-4-3.6-4.6-6.2s-0.3-5.4,1.1-7.7
				c10.3-17.2,28.4-27.4,48.4-27.4s38.1,10.3,48.4,27.4c2.9,4.8,1.3,11-3.5,13.9c-1.6,0.9-3.4,1.4-5.2,1.4c-3.6,0-6.9-1.9-8.7-4.9
				c-6.6-11-18.1-17.6-30.9-17.6c-12.8,0-24.4,6.6-30.9,17.6C131.3,223.2,128,225.1,124.5,225.1z"/>
			<path class="st1" d="M164.1,183.3c19.7,0,37.4,10.1,47.5,27c2.6,4.3,1.2,10-3.2,12.5c-1.5,0.9-3.1,1.3-4.7,1.3c0,0,0,0,0,0
				c-3.1,0-6.1-1.6-7.9-4.5c-6.8-11.3-18.6-18-31.8-18s-25,6.7-31.8,18c-1.7,2.9-4.7,4.5-7.9,4.5c-1.6,0-3.2-0.4-4.7-1.3
				c-4.3-2.6-5.8-8.2-3.2-12.5C126.7,193.4,144.5,183.3,164.1,183.3 M164.1,181.3c-20.4,0-38.8,10.4-49.2,27.9
				c-1.5,2.6-2,5.6-1.2,8.4c0.7,2.9,2.5,5.3,5.1,6.8c1.7,1,3.7,1.6,5.7,1.6c3.9,0,7.6-2.1,9.6-5.4c6.4-10.7,17.6-17.1,30.1-17.1
				c12.5,0,23.7,6.4,30.1,17.1c2,3.4,5.7,5.4,9.6,5.4c2,0,4-0.5,5.7-1.6c5.3-3.2,7-10,3.9-15.3C202.9,191.7,184.5,181.3,164.1,181.3
				L164.1,181.3z"/>
		</g>
	</g>
</g>
</svg>
